<?xml version="1.0" encoding="UTF-8" standalone="no"?><svg xmlns="http://www.w3.org/2000/svg" xmlns:xlink="http://www.w3.org/1999/xlink" contentScriptType="application/ecmascript" contentStyleType="text/css" height="792px" preserveAspectRatio="none" style="width:2046px;height:792px;" version="1.1" viewBox="0 0 2046 792" width="2046px" zoomAndPan="magnify"><defs/><g><text fill="#000000" font-family="Noto Sans CJK JP" font-size="18" lengthAdjust="spacingAndGlyphs" textLength="450" x="804" y="20.8799">Arduinoコンパチレイヤ変換フロー（gbs-control-esp）</text><!--MD5=[cbc0be2e139dd15b0007deace4fc5f27]
cluster  --><polygon fill="#FFFFFF" points="22,50.0638,31,50.0638,38,76.3357,2024,76.3357,2024,780.0638,22,780.0638,22,50.0638" style="stroke: #FFFFFF; stroke-width: 1.5;"/><line style="stroke: #FFFFFF; stroke-width: 1.5;" x1="22" x2="38" y1="76.3357" y2="76.3357"/><text fill="#FFFFFF" font-family="Noto Sans CJK JP" font-size="14" font-weight="bold" lengthAdjust="spacingAndGlyphs" textLength="0" x="29" y="68.3038"/><!--MD5=[43a1252305bd850efe2e9563866807d4]
cluster Application Layer (移植対象)--><polygon fill="#FFFFFF" points="1118,97.0638,1312,97.0638,1319,123.3357,1686,123.3357,1686,213.0638,1118,213.0638,1118,97.0638" style="stroke: #000000; stroke-width: 1.5;"/><line style="stroke: #000000; stroke-width: 1.5;" x1="1118" x2="1319" y1="123.3357" y2="123.3357"/><text fill="#000000" font-family="Noto Sans CJK JP" font-size="14" font-weight="bold" lengthAdjust="spacingAndGlyphs" textLength="188" x="1122" y="115.3038">Application Layer (移植対象)</text><!--MD5=[7095573df0cc889ef310b79bb0eb450b]
cluster Arduino Compat API Surface\ncomponents/compat/include--><polygon fill="#FFFFFF" points="420,265.0638,626,265.0638,633,311.6077,1748,311.6077,1748,401.0638,420,401.0638,420,265.0638" style="stroke: #000000; stroke-width: 1.5;"/><line style="stroke: #000000; stroke-width: 1.5;" x1="420" x2="633" y1="311.6077" y2="311.6077"/><text fill="#000000" font-family="Noto Sans CJK JP" font-size="14" font-weight="bold" lengthAdjust="spacingAndGlyphs" textLength="194" x="427" y="283.3038">Arduino Compat API Surface</text><text fill="#000000" font-family="Noto Sans CJK JP" font-size="14" font-weight="bold" lengthAdjust="spacingAndGlyphs" textLength="200" x="424" y="303.5757">components/compat/include</text><!--MD5=[d116a9df0cef335ede9f4be361edee85]
cluster Compat Implementation\ncomponents/compat--><polygon fill="#FFFFFF" points="796,434.5638,973,434.5638,980,481.1077,1518,481.1077,1518,570.5638,796,570.5638,796,434.5638" style="stroke: #000000; stroke-width: 1.5;"/><line style="stroke: #000000; stroke-width: 1.5;" x1="796" x2="980" y1="481.1077" y2="481.1077"/><text fill="#000000" font-family="Noto Sans CJK JP" font-size="14" font-weight="bold" lengthAdjust="spacingAndGlyphs" textLength="171" x="800" y="452.8038">Compat Implementation</text><text fill="#000000" font-family="Noto Sans CJK JP" font-size="14" font-weight="bold" lengthAdjust="spacingAndGlyphs" textLength="145" x="813" y="473.0757">components/compat</text><!--MD5=[c25f37fb99adadcd97c843c7dc5d08f9]
cluster ESP-IDF APIs--><polygon fill="#FFFFFF" points="56,661.0638,150,661.0638,157,687.3357,1470,687.3357,1470,756.0638,56,756.0638,56,661.0638" style="stroke: #000000; stroke-width: 1.5;"/><line style="stroke: #000000; stroke-width: 1.5;" x1="56" x2="157" y1="687.3357" y2="687.3357"/><text fill="#000000" font-family="Noto Sans CJK JP" font-size="14" font-weight="bold" lengthAdjust="spacingAndGlyphs" textLength="88" x="60" y="679.3038">ESP-IDF APIs</text><path d="M38.5,472.0638 L38.5,576.1839 L323.5,576.1839 L323.5,482.0638 L313.5,472.0638 L38.5,472.0638 " fill="#FBFB77" style="stroke: #A80036; stroke-width: 1.0;"/><path d="M313.5,472.0638 L313.5,482.0638 L323.5,482.0638 L313.5,472.0638 " fill="#FBFB77" style="stroke: #A80036; stroke-width: 1.0;"/><text fill="#000000" font-family="Noto Sans CJK JP" font-size="13" lengthAdjust="spacingAndGlyphs" textLength="82" x="44.5" y="492.1439">互換ポリシー:</text><text fill="#000000" font-family="Noto Sans CJK JP" font-size="13" lengthAdjust="spacingAndGlyphs" textLength="132" x="44.5" y="510.9679">- 必要最小APIのみ実装</text><text fill="#000000" font-family="Noto Sans CJK JP" font-size="13" lengthAdjust="spacingAndGlyphs" textLength="149" x="44.5" y="529.7919">- 一部APIはスタブ/No-op</text><text fill="#000000" font-family="Noto Sans CJK JP" font-size="13" lengthAdjust="spacingAndGlyphs" textLength="174" x="44.5" y="548.6159">- 完全なArduino互換は目的外</text><text fill="#000000" font-family="Noto Sans CJK JP" font-size="13" lengthAdjust="spacingAndGlyphs" textLength="264" x="44.5" y="567.4399">- yield() = taskYIELD() (vTaskDelay(1) 非推奨)</text><path d="M358.5,472.0638 L358.5,576.1839 L777.5,576.1839 L777.5,482.0638 L767.5,472.0638 L358.5,472.0638 " fill="#FBFB77" style="stroke: #A80036; stroke-width: 1.0;"/><path d="M767.5,472.0638 L767.5,482.0638 L777.5,482.0638 L767.5,472.0638 " fill="#FBFB77" style="stroke: #A80036; stroke-width: 1.0;"/><text fill="#000000" font-family="Noto Sans CJK JP" font-size="13" lengthAdjust="spacingAndGlyphs" textLength="82" x="364.5" y="492.1439">スレッド安全:</text><text fill="#000000" font-family="Noto Sans CJK JP" font-size="13" lengthAdjust="spacingAndGlyphs" textLength="296" x="364.5" y="510.9679">- 再帰 Mutex (xSemaphoreCreateRecursiveMutex)</text><text fill="#000000" font-family="Noto Sans CJK JP" font-size="13" lengthAdjust="spacingAndGlyphs" textLength="398" x="364.5" y="529.7919">- beginTransmission/endTransmission/requestFrom で自動ロック</text><text fill="#000000" font-family="Noto Sans CJK JP" font-size="13" lengthAdjust="spacingAndGlyphs" textLength="267" x="364.5" y="548.6159">- tw.h の lockBus/unlockBus と組み合わせて</text><text fill="#000000" font-family="Noto Sans CJK JP" font-size="13" lengthAdjust="spacingAndGlyphs" textLength="259" x="370.5" y="567.4399">複数タスクからの安全な I2C アクセスを実現</text><path d="M141.5,321.5638 L141.5,388.0359 L400.5,388.0359 L400.5,331.5638 L390.5,321.5638 L141.5,321.5638 " fill="#FBFB77" style="stroke: #A80036; stroke-width: 1.0;"/><path d="M390.5,321.5638 L390.5,331.5638 L400.5,331.5638 L390.5,321.5638 " fill="#FBFB77" style="stroke: #A80036; stroke-width: 1.0;"/><text fill="#000000" font-family="Noto Sans CJK JP" font-size="13" lengthAdjust="spacingAndGlyphs" textLength="217" x="147.5" y="341.6439">gbs_control.cpp では digitalRead を</text><text fill="#000000" font-family="Noto Sans CJK JP" font-size="13" lengthAdjust="spacingAndGlyphs" textLength="238" x="147.5" y="360.4679">直接 gpio_get_level に再定義して高速化</text><text fill="#000000" font-family="Noto Sans CJK JP" font-size="13" lengthAdjust="spacingAndGlyphs" textLength="172" x="147.5" y="379.2919">(#undef/#define digitalRead)</text><!--MD5=[4541fb81c80c07473fe4b07432ef0971]
entity app--><rect fill="#FEFECE" height="60.5438" style="stroke: #A80036; stroke-width: 1.5;" width="166" x="1134" y="136.0638"/><rect fill="#FEFECE" height="5" style="stroke: #A80036; stroke-width: 1.5;" width="10" x="1129" y="141.0638"/><rect fill="#FEFECE" height="5" style="stroke: #A80036; stroke-width: 1.5;" width="10" x="1129" y="186.6077"/><text fill="#000000" font-family="Noto Sans CJK JP" font-size="14" lengthAdjust="spacingAndGlyphs" textLength="107" x="1144" y="162.3038">gbs_control.cpp</text><text fill="#000000" font-family="Noto Sans CJK JP" font-size="14" lengthAdjust="spacingAndGlyphs" textLength="146" x="1144" y="182.5757">(gbs_setup/gbs_loop)</text><!--MD5=[00179af9bc14e048fef3c02ab7970256]
entity pwm--><rect fill="#FEFECE" height="40.2719" style="stroke: #A80036; stroke-width: 1.5;" width="163" x="1335.5" y="146.5638"/><rect fill="#FEFECE" height="5" style="stroke: #A80036; stroke-width: 1.5;" width="10" x="1330.5" y="151.5638"/><rect fill="#FEFECE" height="5" style="stroke: #A80036; stroke-width: 1.5;" width="10" x="1330.5" y="176.8357"/><text fill="#000000" font-family="Noto Sans CJK JP" font-size="14" lengthAdjust="spacingAndGlyphs" textLength="143" x="1345.5" y="172.8038">PersWiFiManager.cpp</text><!--MD5=[2b3ff478e007de30f424c5f8c5f53fb3]
entity i2c_clients--><rect fill="#FEFECE" height="60.5438" style="stroke: #A80036; stroke-width: 1.5;" width="136" x="1534" y="136.0638"/><rect fill="#FEFECE" height="5" style="stroke: #A80036; stroke-width: 1.5;" width="10" x="1529" y="141.0638"/><rect fill="#FEFECE" height="5" style="stroke: #A80036; stroke-width: 1.5;" width="10" x="1529" y="186.6077"/><text fill="#000000" font-family="Noto Sans CJK JP" font-size="14" lengthAdjust="spacingAndGlyphs" textLength="116" x="1544" y="162.3038">SSD1306Wire.cpp</text><text fill="#000000" font-family="Noto Sans CJK JP" font-size="14" lengthAdjust="spacingAndGlyphs" textLength="101" x="1544" y="182.5757">si5351mcu.cpp</text><!--MD5=[cb7a91ad4de6b05e50f395da6df46354]
entity arduino_h--><rect fill="#FEFECE" height="60.5438" style="stroke: #A80036; stroke-width: 1.5;" width="294" x="1164" y="324.0638"/><rect fill="#FEFECE" height="5" style="stroke: #A80036; stroke-width: 1.5;" width="10" x="1159" y="329.0638"/><rect fill="#FEFECE" height="5" style="stroke: #A80036; stroke-width: 1.5;" width="10" x="1159" y="374.6077"/><text fill="#000000" font-family="Noto Sans CJK JP" font-size="14" lengthAdjust="spacingAndGlyphs" textLength="66" x="1174" y="350.3038">Arduino.h</text><text fill="#000000" font-family="Noto Sans CJK JP" font-size="14" lengthAdjust="spacingAndGlyphs" textLength="274" x="1174" y="370.5757">(digitalWrite/millis/delay/attachInterrupt)</text><!--MD5=[6c3a7b4ae083fa34dc5d0a50322987be]
entity wire_h--><rect fill="#FEFECE" height="60.5438" style="stroke: #A80036; stroke-width: 1.5;" width="86" x="1646" y="324.0638"/><rect fill="#FEFECE" height="5" style="stroke: #A80036; stroke-width: 1.5;" width="10" x="1641" y="329.0638"/><rect fill="#FEFECE" height="5" style="stroke: #A80036; stroke-width: 1.5;" width="10" x="1641" y="374.6077"/><text fill="#000000" font-family="Noto Sans CJK JP" font-size="14" lengthAdjust="spacingAndGlyphs" textLength="42" x="1656" y="350.3038">Wire.h</text><text fill="#000000" font-family="Noto Sans CJK JP" font-size="14" lengthAdjust="spacingAndGlyphs" textLength="66" x="1656" y="370.5757">(TwoWire)</text><!--MD5=[52b7513755c1cf5bde2628ffc6fbf40f]
entity wifi_h--><rect fill="#FEFECE" height="60.5438" style="stroke: #A80036; stroke-width: 1.5;" width="118" x="1493" y="324.0638"/><rect fill="#FEFECE" height="5" style="stroke: #A80036; stroke-width: 1.5;" width="10" x="1488" y="329.0638"/><rect fill="#FEFECE" height="5" style="stroke: #A80036; stroke-width: 1.5;" width="10" x="1488" y="374.6077"/><text fill="#000000" font-family="Noto Sans CJK JP" font-size="14" lengthAdjust="spacingAndGlyphs" textLength="98" x="1503" y="350.3038">ESP8266WiFi.h</text><text fill="#000000" font-family="Noto Sans CJK JP" font-size="14" lengthAdjust="spacingAndGlyphs" textLength="73" x="1503" y="370.5757">(WiFiClass)</text><!--MD5=[d57cb92530b348503863424327c3b971]
entity web_h--><rect fill="#FEFECE" height="60.5438" style="stroke: #A80036; stroke-width: 1.5;" width="167" x="435.5" y="324.0638"/><rect fill="#FEFECE" height="5" style="stroke: #A80036; stroke-width: 1.5;" width="10" x="430.5" y="329.0638"/><rect fill="#FEFECE" height="5" style="stroke: #A80036; stroke-width: 1.5;" width="10" x="430.5" y="374.6077"/><text fill="#000000" font-family="Noto Sans CJK JP" font-size="14" lengthAdjust="spacingAndGlyphs" textLength="147" x="445.5" y="350.3038">ESPAsyncWebServer.h</text><text fill="#000000" font-family="Noto Sans CJK JP" font-size="14" lengthAdjust="spacingAndGlyphs" textLength="144" x="445.5" y="370.5757">(AsyncWebServer API)</text><!--MD5=[e9e25b65e10208994919b4586b0f1e39]
entity fs_h--><rect fill="#FEFECE" height="60.5438" style="stroke: #A80036; stroke-width: 1.5;" width="128" x="1001" y="324.0638"/><rect fill="#FEFECE" height="5" style="stroke: #A80036; stroke-width: 1.5;" width="10" x="996" y="329.0638"/><rect fill="#FEFECE" height="5" style="stroke: #A80036; stroke-width: 1.5;" width="10" x="996" y="374.6077"/><text fill="#000000" font-family="Noto Sans CJK JP" font-size="14" lengthAdjust="spacingAndGlyphs" textLength="29" x="1011" y="350.3038">FS.h</text><text fill="#000000" font-family="Noto Sans CJK JP" font-size="14" lengthAdjust="spacingAndGlyphs" textLength="108" x="1011" y="370.5757">(SPIFFS/File/Dir)</text><!--MD5=[2df424908b0954ecd0e773e967fdddc3]
entity net_h--><rect fill="#FEFECE" height="40.2719" style="stroke: #A80036; stroke-width: 1.5;" width="328" x="638" y="334.5638"/><rect fill="#FEFECE" height="5" style="stroke: #A80036; stroke-width: 1.5;" width="10" x="633" y="339.5638"/><rect fill="#FEFECE" height="5" style="stroke: #A80036; stroke-width: 1.5;" width="10" x="633" y="364.8357"/><text fill="#000000" font-family="Noto Sans CJK JP" font-size="14" lengthAdjust="spacingAndGlyphs" textLength="308" x="648" y="360.8038">ESP8266mDNS.h / ArduinoOTA.h / DNSServer.h</text><!--MD5=[90f90b1b1f4b24980ba72e32d8374e7f]
entity compat_cpp--><rect fill="#FEFECE" height="60.5438" style="stroke: #A80036; stroke-width: 1.5;" width="289" x="1030.5" y="493.5638"/><rect fill="#FEFECE" height="5" style="stroke: #A80036; stroke-width: 1.5;" width="10" x="1025.5" y="498.5638"/><rect fill="#FEFECE" height="5" style="stroke: #A80036; stroke-width: 1.5;" width="10" x="1025.5" y="544.1077"/><text fill="#000000" font-family="Noto Sans CJK JP" font-size="14" lengthAdjust="spacingAndGlyphs" textLength="79" x="1040.5" y="519.8038">compat.cpp</text><text fill="#000000" font-family="Noto Sans CJK JP" font-size="14" lengthAdjust="spacingAndGlyphs" textLength="269" x="1040.5" y="540.0757">GPIO/Serial/WiFi/mDNS/OTA/DNS/SPIFFS</text><!--MD5=[60a503a105ec775247c5a6a6dc227fca]
entity wire_cpp--><rect fill="#FEFECE" height="60.5438" style="stroke: #A80036; stroke-width: 1.5;" width="148" x="1354" y="493.5638"/><rect fill="#FEFECE" height="5" style="stroke: #A80036; stroke-width: 1.5;" width="10" x="1349" y="498.5638"/><rect fill="#FEFECE" height="5" style="stroke: #A80036; stroke-width: 1.5;" width="10" x="1349" y="544.1077"/><text fill="#000000" font-family="Noto Sans CJK JP" font-size="14" lengthAdjust="spacingAndGlyphs" textLength="58" x="1364" y="519.8038">Wire.cpp</text><text fill="#000000" font-family="Noto Sans CJK JP" font-size="14" lengthAdjust="spacingAndGlyphs" textLength="128" x="1364" y="540.0757">I2C master wrapper</text><!--MD5=[ce29ffbb8485e0924bd14399130592eb]
entity web_cpp--><rect fill="#FEFECE" height="60.5438" style="stroke: #A80036; stroke-width: 1.5;" width="183" x="812.5" y="493.5638"/><rect fill="#FEFECE" height="5" style="stroke: #A80036; stroke-width: 1.5;" width="10" x="807.5" y="498.5638"/><rect fill="#FEFECE" height="5" style="stroke: #A80036; stroke-width: 1.5;" width="10" x="807.5" y="544.1077"/><text fill="#000000" font-family="Noto Sans CJK JP" font-size="14" lengthAdjust="spacingAndGlyphs" textLength="151" x="822.5" y="519.8038">WebServerCompat.cpp</text><text fill="#000000" font-family="Noto Sans CJK JP" font-size="14" lengthAdjust="spacingAndGlyphs" textLength="163" x="822.5" y="540.0757">esp_http_server adapter</text><!--MD5=[48617ad9f9b150c5114249034558e3d4]
entity idf_gpio--><rect fill="#FEFECE" height="40.2719" style="stroke: #A80036; stroke-width: 1.5;" width="92" x="908" y="700.0638"/><rect fill="#FEFECE" height="5" style="stroke: #A80036; stroke-width: 1.5;" width="10" x="903" y="705.0638"/><rect fill="#FEFECE" height="5" style="stroke: #A80036; stroke-width: 1.5;" width="10" x="903" y="730.3357"/><text fill="#000000" font-family="Noto Sans CJK JP" font-size="14" lengthAdjust="spacingAndGlyphs" textLength="72" x="918" y="726.3038">driver/gpio</text><!--MD5=[1dcb523a0057b89aa344ede1149fe252]
entity idf_time--><rect fill="#FEFECE" height="40.2719" style="stroke: #A80036; stroke-width: 1.5;" width="165" x="1035.5" y="700.0638"/><rect fill="#FEFECE" height="5" style="stroke: #A80036; stroke-width: 1.5;" width="10" x="1030.5" y="705.0638"/><rect fill="#FEFECE" height="5" style="stroke: #A80036; stroke-width: 1.5;" width="10" x="1030.5" y="730.3357"/><text fill="#000000" font-family="Noto Sans CJK JP" font-size="14" lengthAdjust="spacingAndGlyphs" textLength="145" x="1045.5" y="726.3038">esp_timer + FreeRTOS</text><!--MD5=[f1d5a02995e866ed24e7620d4a430d1a]
entity idf_uart--><rect fill="#FEFECE" height="40.2719" style="stroke: #A80036; stroke-width: 1.5;" width="90" x="1236" y="700.0638"/><rect fill="#FEFECE" height="5" style="stroke: #A80036; stroke-width: 1.5;" width="10" x="1231" y="705.0638"/><rect fill="#FEFECE" height="5" style="stroke: #A80036; stroke-width: 1.5;" width="10" x="1231" y="730.3357"/><text fill="#000000" font-family="Noto Sans CJK JP" font-size="14" lengthAdjust="spacingAndGlyphs" textLength="70" x="1246" y="726.3038">driver/uart</text><!--MD5=[2b43c65d1c41a1c3d5049c0f8f66dc0d]
entity idf_wifi--><rect fill="#FEFECE" height="40.2719" style="stroke: #A80036; stroke-width: 1.5;" width="236" x="235" y="700.0638"/><rect fill="#FEFECE" height="5" style="stroke: #A80036; stroke-width: 1.5;" width="10" x="230" y="705.0638"/><rect fill="#FEFECE" height="5" style="stroke: #A80036; stroke-width: 1.5;" width="10" x="230" y="730.3357"/><text fill="#000000" font-family="Noto Sans CJK JP" font-size="14" lengthAdjust="spacingAndGlyphs" textLength="216" x="245" y="726.3038">esp_wifi + esp_netif + esp_event</text><!--MD5=[90a2478121e268f1c0cee6ad9de579be]
entity idf_http--><rect fill="#FEFECE" height="40.2719" style="stroke: #A80036; stroke-width: 1.5;" width="128" x="72" y="700.0638"/><rect fill="#FEFECE" height="5" style="stroke: #A80036; stroke-width: 1.5;" width="10" x="67" y="705.0638"/><rect fill="#FEFECE" height="5" style="stroke: #A80036; stroke-width: 1.5;" width="10" x="67" y="730.3357"/><text fill="#000000" font-family="Noto Sans CJK JP" font-size="14" lengthAdjust="spacingAndGlyphs" textLength="108" x="82" y="726.3038">esp_http_server</text><!--MD5=[aebbcda88defcf6feb6b2e639324f6ee]
entity idf_i2c--><rect fill="#FEFECE" height="40.2719" style="stroke: #A80036; stroke-width: 1.5;" width="93" x="1361.5" y="700.0638"/><rect fill="#FEFECE" height="5" style="stroke: #A80036; stroke-width: 1.5;" width="10" x="1356.5" y="705.0638"/><rect fill="#FEFECE" height="5" style="stroke: #A80036; stroke-width: 1.5;" width="10" x="1356.5" y="730.3357"/><text fill="#000000" font-family="Noto Sans CJK JP" font-size="14" lengthAdjust="spacingAndGlyphs" textLength="73" x="1371.5" y="726.3038">i2c_master</text><!--MD5=[29e9966dfc9bee1ba64e4a6bc0cb331d]
entity idf_fs--><rect fill="#FEFECE" height="40.2719" style="stroke: #A80036; stroke-width: 1.5;" width="185" x="506.5" y="700.0638"/><rect fill="#FEFECE" height="5" style="stroke: #A80036; stroke-width: 1.5;" width="10" x="501.5" y="705.0638"/><rect fill="#FEFECE" height="5" style="stroke: #A80036; stroke-width: 1.5;" width="10" x="501.5" y="730.3357"/><text fill="#000000" font-family="Noto Sans CJK JP" font-size="14" lengthAdjust="spacingAndGlyphs" textLength="165" x="516.5" y="726.3038">esp_vfs_spiffs + libc FILE</text><!--MD5=[bb723e66c68273cc2f88444392a918de]
entity idf_net--><rect fill="#FEFECE" height="40.2719" style="stroke: #A80036; stroke-width: 1.5;" width="146" x="727" y="700.0638"/><rect fill="#FEFECE" height="5" style="stroke: #A80036; stroke-width: 1.5;" width="10" x="722" y="705.0638"/><rect fill="#FEFECE" height="5" style="stroke: #A80036; stroke-width: 1.5;" width="10" x="722" y="730.3357"/><text fill="#000000" font-family="Noto Sans CJK JP" font-size="14" lengthAdjust="spacingAndGlyphs" textLength="126" x="737" y="726.3038">mdns + lwip socket</text><!--MD5=[d1e8d03df838f77b118ac9aa4c118d12]
link app to arduino_h--><path d="M1210.31,197.1838 C1208.09,213.0938 1207.58,232.7238 1214,249.0638 C1224.99,277.0438 1247.38,301.9938 1267.88,320.4938 " fill="none" id="app-&gt;arduino_h" style="stroke: #2D3748; stroke-width: 1.0;"/><polygon fill="#2D3748" points="1271.68,323.8738,1267.6129,314.904,1267.9437,320.5511,1262.2966,320.882,1271.68,323.8738" style="stroke: #2D3748; stroke-width: 1.0;"/><text fill="#000000" font-family="Noto Sans CJK JP" font-size="13" lengthAdjust="spacingAndGlyphs" textLength="225" x="1215" y="245.1439">pinMode / digitalWrite / delay / millis</text><!--MD5=[d0a1e81acc5c8257b24584c092e1de64]
link app to wire_h--><path d="M1261.91,197.1238 C1278.79,206.6538 1298.6,216.0338 1318,221.0638 C1328.78,223.8538 1711.2,221.1038 1719,229.0638 C1742.34,252.8738 1728.04,291.5138 1712.19,319.4438 " fill="none" id="app-&gt;wire_h" style="stroke: #2D3748; stroke-width: 1.0;"/><polygon fill="#2D3748" points="1709.63,323.8238,1717.6176,318.062,1712.1476,319.5039,1710.7057,314.0339,1709.63,323.8238" style="stroke: #2D3748; stroke-width: 1.0;"/><text fill="#000000" font-family="Noto Sans CJK JP" font-size="13" lengthAdjust="spacingAndGlyphs" textLength="107" x="1730" y="245.1439">Wire.begin(), tx/rx</text><!--MD5=[92177e1bf48f37c16d65c17de2f53fc6]
link app to wifi_h--><path d="M1262.78,197.0938 C1279.51,206.4238 1299,215.7038 1318,221.0638 C1345.22,228.7438 1418.94,218.0838 1445,229.0638 C1486.05,246.3638 1516.87,288.9538 1534.64,319.5038 " fill="none" id="app-&gt;wifi_h" style="stroke: #2D3748; stroke-width: 1.0;"/><polygon fill="#2D3748" points="1537.16,323.9138,1536.1608,314.1158,1534.6762,319.5744,1529.2177,318.0898,1537.16,323.9138" style="stroke: #2D3748; stroke-width: 1.0;"/><text fill="#000000" font-family="Noto Sans CJK JP" font-size="13" lengthAdjust="spacingAndGlyphs" textLength="234" x="1476" y="245.1439">WiFi.mode(), WiFi.begin(), WiFi.status()</text><!--MD5=[98ed4b6e06e9f5541074843eb8fb1d17]
link app to web_h--><path d="M1133.72,168.0138 C944.62,169.9038 495.64,179.6138 450,229.0638 C425.14,256.0038 452.26,293.5238 479.46,320.3238 " fill="none" id="app-&gt;web_h" style="stroke: #2D3748; stroke-width: 1.0;"/><polygon fill="#2D3748" points="483.12,323.8638,479.4367,314.7297,479.5279,320.3858,473.8718,320.477,483.12,323.8638" style="stroke: #2D3748; stroke-width: 1.0;"/><text fill="#000000" font-family="Noto Sans CJK JP" font-size="13" lengthAdjust="spacingAndGlyphs" textLength="167" x="451" y="245.1439">server.on(), request-&gt;send()</text><!--MD5=[31b57329bc8a0a89e8f0a6164f172e35]
link app to fs_h--><path d="M1133.77,193.6638 C1116.79,202.4738 1100.59,214.0238 1089,229.0638 C1069.35,254.5638 1064.32,291.5638 1063.61,318.5938 " fill="none" id="app-&gt;fs_h" style="stroke: #2D3748; stroke-width: 1.0;"/><polygon fill="#2D3748" points="1063.53,323.8638,1067.6837,314.9337,1063.6157,318.8646,1059.6849,314.7966,1063.53,323.8638" style="stroke: #2D3748; stroke-width: 1.0;"/><text fill="#000000" font-family="Noto Sans CJK JP" font-size="13" lengthAdjust="spacingAndGlyphs" textLength="110" x="1090" y="245.1439">SPIFFS.open(), Dir</text><!--MD5=[5af60c1453cf3e9de422ef4616d807a9]
link app to net_h--><path d="M1133.96,170.3438 C981.52,176.2938 669.61,192.8138 637,229.0638 C598.23,272.1638 674.09,310.4438 735.35,332.8238 " fill="none" id="app-&gt;net_h" style="stroke: #2D3748; stroke-width: 1.0;"/><polygon fill="#2D3748" points="740.11,334.5438,733.0005,327.728,735.4065,332.8477,730.2868,335.2536,740.11,334.5438" style="stroke: #2D3748; stroke-width: 1.0;"/><text fill="#000000" font-family="Noto Sans CJK JP" font-size="13" lengthAdjust="spacingAndGlyphs" textLength="431" x="638" y="245.1439">MDNS.update(), ArduinoOTA.handle(), dnsServer.processNextRequest()</text><!--MD5=[8f3d184ff6a400f546d531bd341a565b]
link pwm to wifi_h--><path d="M1444.4,186.7838 C1463.71,199.1538 1490.72,214.1538 1517,221.0638 C1535.97,226.0538 1856.29,215.0338 1870,229.0638 C1876.21,235.4238 1876.18,242.6738 1870,249.0638 C1851.37,268.3238 1652.94,245.0438 1629,257.0638 C1602.6,270.3138 1582.31,297.2638 1569.2,319.3238 " fill="none" id="pwm-&gt;wifi_h" style="stroke: #2D3748; stroke-width: 1.0;"/><polygon fill="#2D3748" points="1566.68,323.6638,1574.6676,317.902,1569.1976,319.3439,1567.7557,313.8739,1566.68,323.6638" style="stroke: #2D3748; stroke-width: 1.0;"/><!--MD5=[568213e8a1031c07cc800493e965f550]
link i2c_clients to wire_h--><path d="M1670.33,173.2338 C1743.19,180.8738 1851.58,197.3238 1877,229.0638 C1921.81,285.0038 1806.34,324.6138 1736.95,342.6338 " fill="none" id="i2c_clients-&gt;wire_h" style="stroke: #2D3748; stroke-width: 1.0;"/><polygon fill="#2D3748" points="1732.03,343.8938,1741.7418,345.531,1736.8731,342.6509,1739.7532,337.7822,1732.03,343.8938" style="stroke: #2D3748; stroke-width: 1.0;"/><!--MD5=[b42888337b77e3e5ebf45e60f514605c]
link arduino_h to compat_cpp--><path d="M1287,385.1238 C1263.28,414.3338 1227.05,458.9638 1202.26,489.4938 " fill="none" id="arduino_h-&gt;compat_cpp" style="stroke: #2D3748; stroke-width: 1.0;"/><polygon fill="#2D3748" points="1198.99,493.5138,1207.7698,489.0512,1202.143,489.6333,1201.5609,484.0064,1198.99,493.5138" style="stroke: #2D3748; stroke-width: 1.0;"/><!--MD5=[9d1a7f125a468ef3c107da41c39db084]
link wire_h to wire_cpp--><path d="M1658.29,385.1938 C1649.19,393.3538 1638.98,401.9038 1629,409.0638 C1585.61,440.1738 1533.01,469.7538 1492.5,490.9738 " fill="none" id="wire_h-&gt;wire_cpp" style="stroke: #2D3748; stroke-width: 1.0;"/><polygon fill="#2D3748" points="1487.62,493.5238,1497.4499,492.9136,1492.0544,491.2139,1493.7541,485.8184,1487.62,493.5238" style="stroke: #2D3748; stroke-width: 1.0;"/><!--MD5=[692fb0348761ea5c7cb1dd4ad9302b2e]
link wifi_h to compat_cpp--><path d="M1517.36,385.3038 C1505.04,394.3638 1490.6,403.4138 1476,409.0638 C1417.93,431.5438 1395.88,406.3138 1337,426.5638 C1293.74,441.4438 1249.45,468.8238 1218.13,490.6338 " fill="none" id="wifi_h-&gt;compat_cpp" style="stroke: #2D3748; stroke-width: 1.0;"/><polygon fill="#2D3748" points="1213.99,493.5338,1223.6534,491.6315,1218.0808,490.6589,1219.0534,485.0862,1213.99,493.5338" style="stroke: #2D3748; stroke-width: 1.0;"/><!--MD5=[9ee6409a3afb3902c66de4e5a78bd1a3]
link fs_h to compat_cpp--><path d="M1084.41,385.1238 C1103.52,414.2138 1132.66,458.5938 1152.71,489.1238 " fill="none" id="fs_h-&gt;compat_cpp" style="stroke: #2D3748; stroke-width: 1.0;"/><polygon fill="#2D3748" points="1155.6,493.5138,1153.9744,483.8001,1152.843,489.3426,1147.3004,488.2113,1155.6,493.5138" style="stroke: #2D3748; stroke-width: 1.0;"/><!--MD5=[e54c5a4b31e20a01399c37b852bec78d]
link net_h to compat_cpp--><path d="M870.89,374.6938 C912.82,387.3138 967,405.4138 1013,426.5638 C1052.69,444.8138 1095.02,470.2538 1126.45,490.4338 " fill="none" id="net_h-&gt;compat_cpp" style="stroke: #2D3748; stroke-width: 1.0;"/><polygon fill="#2D3748" points="1131.01,493.3738,1125.6024,485.1423,1126.8041,490.67,1121.2764,491.8717,1131.01,493.3738" style="stroke: #2D3748; stroke-width: 1.0;"/><!--MD5=[491cd4e1afa5cfcce6e9a5a9b36c3628]
link web_h to web_cpp--><path d="M566.13,385.1838 C582.86,394.3538 602.21,403.5038 621,409.0638 C701.46,432.8938 733.18,390.5938 809,426.5638 C838.39,440.5138 863.77,467.5738 880.88,489.5038 " fill="none" id="web_h-&gt;web_cpp" style="stroke: #2D3748; stroke-width: 1.0;"/><polygon fill="#2D3748" points="883.98,493.5338,881.6814,483.957,880.939,489.5649,875.3311,488.8225,883.98,493.5338" style="stroke: #2D3748; stroke-width: 1.0;"/><!--MD5=[da4710c81ca01846d2eff56eb07968ab]
link compat_cpp to idf_gpio--><path d="M1088.76,554.6138 C1029.68,575.2638 961.23,600.1538 957,606.0638 C938.56,631.8438 942.2,670.0738 947.39,694.7838 " fill="none" id="compat_cpp-&gt;idf_gpio" style="stroke: #2D3748; stroke-width: 1.0;"/><polygon fill="#2D3748" points="948.51,699.8438,950.4624,690.1904,947.4253,694.9629,942.6529,691.9259,948.51,699.8438" style="stroke: #2D3748; stroke-width: 1.0;"/><text fill="#000000" font-family="Noto Sans CJK JP" font-size="13" lengthAdjust="spacingAndGlyphs" textLength="271" x="958" y="631.6439">gpio_config / gpio_set_level / gpio_get_level</text><!--MD5=[74142780b5b8481fee77366a5f448c6b]
link compat_cpp to idf_time--><path d="M1208.5,554.6238 C1232.54,579.5138 1257.52,615.6638 1238,645.0638 C1232.93,652.6938 1227.09,648.7638 1219,653.0638 C1194.41,666.1338 1168.12,683.4338 1148.53,697.0338 " fill="none" id="compat_cpp-&gt;idf_time" style="stroke: #2D3748; stroke-width: 1.0;"/><polygon fill="#2D3748" points="1144.2,700.0538,1153.8665,698.1673,1148.2955,697.1856,1149.2773,691.6146,1144.2,700.0538" style="stroke: #2D3748; stroke-width: 1.0;"/><text fill="#000000" font-family="Noto Sans CJK JP" font-size="13" lengthAdjust="spacingAndGlyphs" textLength="202" x="1245" y="631.6439">esp_timer_get_time / vTaskDelay</text><!--MD5=[3b622bb83ee577fe51ce1969ae4d6c6c]
link compat_cpp to idf_uart--><path d="M1259.47,554.5838 C1284.3,562.8238 1311.62,571.4538 1337,578.5638 C1389.27,593.2038 1422.21,563.5738 1456,606.0638 C1466.79,619.6338 1467.81,632.3738 1456,645.0638 C1439,663.3238 1366.58,642.4338 1344,653.0638 C1324.22,662.3738 1307.45,680.8338 1296.2,695.8638 " fill="none" id="compat_cpp-&gt;idf_uart" style="stroke: #2D3748; stroke-width: 1.0;"/><polygon fill="#2D3748" points="1293.18,700.0038,1301.7301,695.1156,1296.1387,695.9732,1295.2811,690.3817,1293.18,700.0038" style="stroke: #2D3748; stroke-width: 1.0;"/><text fill="#000000" font-family="Noto Sans CJK JP" font-size="13" lengthAdjust="spacingAndGlyphs" textLength="227" x="1465" y="631.6439">uart_driver_install / uart_write_bytes</text><!--MD5=[8e825edfd0d7cce2d670237362bd3631]
link compat_cpp to idf_wifi--><path d="M1099.9,554.6938 C1072.92,564.0338 1042,573.2938 1013,578.5638 C976.13,585.2638 364.95,579.0338 339,606.0638 C316.45,629.5538 328.72,669.6138 340.33,695.1838 " fill="none" id="compat_cpp-&gt;idf_wifi" style="stroke: #2D3748; stroke-width: 1.0;"/><polygon fill="#2D3748" points="342.49,699.7838,342.3071,689.9367,340.3748,695.2533,335.0582,693.321,342.49,699.7838" style="stroke: #2D3748; stroke-width: 1.0;"/><text fill="#000000" font-family="Noto Sans CJK JP" font-size="13" lengthAdjust="spacingAndGlyphs" textLength="143" x="340" y="631.6439">esp_wifi_* / esp_netif_*</text><!--MD5=[7a37ff9af53d935d1e5c3db667885209]
link compat_cpp to idf_fs--><path d="M1099.46,554.6238 C1072.57,563.9038 1041.82,573.1338 1013,578.5638 C957.02,589.1138 540.19,564.7138 501,606.0638 C471.9,636.7638 519.5,674.1438 557.98,697.2738 " fill="none" id="compat_cpp-&gt;idf_fs" style="stroke: #2D3748; stroke-width: 1.0;"/><polygon fill="#2D3748" points="562.62,700.0238,556.8976,692.008,558.3125,697.485,552.8355,698.8999,562.62,700.0238" style="stroke: #2D3748; stroke-width: 1.0;"/><text fill="#000000" font-family="Noto Sans CJK JP" font-size="13" lengthAdjust="spacingAndGlyphs" textLength="183" x="502" y="631.6439">esp_vfs_spiffs_register / fopen</text><!--MD5=[acd17b574c6f61976e409bcf514e144e]
link compat_cpp to idf_net--><path d="M1097.71,554.6238 C1071.21,563.6638 1041.14,572.7538 1013,578.5638 C979.03,585.5738 725.42,580.4738 702,606.0638 C690.3,618.8438 694.27,629.5438 702,645.0638 C705.68,652.4438 740.71,677.9338 767.85,696.9438 " fill="none" id="compat_cpp-&gt;idf_net" style="stroke: #2D3748; stroke-width: 1.0;"/><polygon fill="#2D3748" points="772.13,699.9438,767.033,691.5165,768.0278,697.0852,762.4591,698.08,772.13,699.9438" style="stroke: #2D3748; stroke-width: 1.0;"/><text fill="#000000" font-family="Noto Sans CJK JP" font-size="13" lengthAdjust="spacingAndGlyphs" textLength="232" x="703" y="631.6439">mdns_* / UDP socket recvfrom/sendto</text><!--MD5=[91231d1a433bae2e435dfd9b7882f7e5]
link wire_cpp to idf_i2c--><path d="M1502.45,527.6238 C1618.17,534.3038 1820.99,558.3738 1751,645.0638 C1714.98,689.6838 1546.46,708.6938 1459.79,715.6338 " fill="none" id="wire_cpp-&gt;idf_i2c" style="stroke: #2D3748; stroke-width: 1.0;"/><polygon fill="#2D3748" points="1454.71,716.0338,1464.0011,719.3013,1459.694,715.634,1463.3613,711.3269,1454.71,716.0338" style="stroke: #2D3748; stroke-width: 1.0;"/><text fill="#000000" font-family="Noto Sans CJK JP" font-size="13" lengthAdjust="spacingAndGlyphs" textLength="128" x="1810" y="622.1439">i2c_new_master_bus</text><text fill="#000000" font-family="Noto Sans CJK JP" font-size="13" lengthAdjust="spacingAndGlyphs" textLength="216" x="1766" y="640.9679">i2c_master_transmit/receive/probe</text><!--MD5=[f7354d49c69e71b1b07ac0ecde265afa]
link web_cpp to idf_http--><path d="M861.46,554.7238 C845.7,564.1338 827.22,573.4238 809,578.5638 C769.46,589.7238 98.51,576.4738 70,606.0638 C44.01,633.0438 78.88,672.1438 106.99,696.5638 " fill="none" id="web_cpp-&gt;idf_http" style="stroke: #2D3748; stroke-width: 1.0;"/><polygon fill="#2D3748" points="111.09,700.0538,106.8406,691.1689,107.2867,696.8081,101.6474,697.2542,111.09,700.0538" style="stroke: #2D3748; stroke-width: 1.0;"/><text fill="#000000" font-family="Noto Sans CJK JP" font-size="13" lengthAdjust="spacingAndGlyphs" textLength="69" x="119" y="622.1439">httpd_start</text><text fill="#000000" font-family="Noto Sans CJK JP" font-size="13" lengthAdjust="spacingAndGlyphs" textLength="165" x="71" y="640.9679">httpd_register_uri_handler</text><!--MD5=[3c45b95665b438de20f391db9a33b61c]
link compat_cpp to GMN105--><path d="M1138.74,493.5238 C1104.41,466.9438 1050.13,430.7138 995.5,417.8138 C961.06,409.6838 392.94,409.6838 358.5,417.8138 C318.13,427.3438 278.05,449.9038 246.23,471.7938 " fill="none" id="compat_cpp-GMN105" style="stroke: #2D3748; stroke-width: 1.0; stroke-dasharray: 7.0,7.0;"/><!--MD5=[29eabebfaa3375bb71f10fb0b9c880b9]
link wire_cpp to GMN108--><path d="M1410.3,493.4838 C1391.87,465.6138 1360.04,427.3838 1319.5,417.8138 C1292.14,411.3538 841.03,412.1138 813.5,417.8138 C761.77,428.5238 707.54,450.6938 663.25,472.0238 " fill="none" id="wire_cpp-GMN108" style="stroke: #2D3748; stroke-width: 1.0; stroke-dasharray: 7.0,7.0;"/><!--MD5=[ee374865ee16ebf1d57cf1cafe406c76]
link app to GMN111--><path d="M1133.82,168.1038 C958.8,170.2038 558.26,180.3538 432,229.0638 C380.08,249.0938 331.1,291.6038 301.1,321.3538 " fill="none" id="app-GMN111" style="stroke: #2D3748; stroke-width: 1.0; stroke-dasharray: 7.0,7.0;"/><!--MD5=[2237a59075baac536b8ba93596b357b5]
@startuml
skinparam backgroundColor white
skinparam shadowing false
skinparam defaultFontName Noto Sans CJK JP
skinparam componentStyle rectangle
skinparam packageStyle rectangle
skinparam ArrowColor #2d3748
hide stereotype
skinparam package<<canvas>> {
  BackgroundColor #FFFFFF
  BorderColor #FFFFFF
  FontColor #FFFFFF
}

title Arduinoコンパチレイヤ変換フロー（gbs-control-esp）

package " " <<canvas>> {

package "Application Layer (移植対象)" {
  component "gbs_control.cpp\n(gbs_setup/gbs_loop)" as app
  component "PersWiFiManager.cpp" as pwm
  component "SSD1306Wire.cpp\nsi5351mcu.cpp" as i2c_clients
}

package "Arduino Compat API Surface\ncomponents/compat/include" {
  component "Arduino.h\n(digitalWrite/millis/delay/attachInterrupt)" as arduino_h
  component "Wire.h\n(TwoWire)" as wire_h
  component "ESP8266WiFi.h\n(WiFiClass)" as wifi_h
  component "ESPAsyncWebServer.h\n(AsyncWebServer API)" as web_h
  component "FS.h\n(SPIFFS/File/Dir)" as fs_h
  component "ESP8266mDNS.h / ArduinoOTA.h / DNSServer.h" as net_h
}

package "Compat Implementation\ncomponents/compat" {
  component "compat.cpp\nGPIO/Serial/WiFi/mDNS/OTA/DNS/SPIFFS" as compat_cpp
  component "Wire.cpp\nI2C master wrapper" as wire_cpp
  component "WebServerCompat.cpp\nesp_http_server adapter" as web_cpp
}

package "ESP-IDF APIs" {
  component "driver/gpio" as idf_gpio
  component "esp_timer + FreeRTOS" as idf_time
  component "driver/uart" as idf_uart
  component "esp_wifi + esp_netif + esp_event" as idf_wifi
  component "esp_http_server" as idf_http
  component "i2c_master" as idf_i2c
  component "esp_vfs_spiffs + libc FILE" as idf_fs
  component "mdns + lwip socket" as idf_net
}

app - -> arduino_h : pinMode / digitalWrite / delay / millis
app - -> wire_h : Wire.begin(), tx/rx
app - -> wifi_h : WiFi.mode(), WiFi.begin(), WiFi.status()
app - -> web_h : server.on(), request->send()
app - -> fs_h : SPIFFS.open(), Dir
app - -> net_h : MDNS.update(), ArduinoOTA.handle(), dnsServer.processNextRequest()

pwm - -> wifi_h
i2c_clients - -> wire_h

arduino_h - -> compat_cpp
wire_h - -> wire_cpp
wifi_h - -> compat_cpp
fs_h - -> compat_cpp
net_h - -> compat_cpp
web_h - -> web_cpp

compat_cpp - -> idf_gpio : gpio_config / gpio_set_level / gpio_get_level
compat_cpp - -> idf_time : esp_timer_get_time / vTaskDelay
compat_cpp - -> idf_uart : uart_driver_install / uart_write_bytes
compat_cpp - -> idf_wifi : esp_wifi_* / esp_netif_*
compat_cpp - -> idf_fs : esp_vfs_spiffs_register / fopen
compat_cpp - -> idf_net : mdns_* / UDP socket recvfrom/sendto

wire_cpp - -> idf_i2c : i2c_new_master_bus\ni2c_master_transmit/receive/probe
web_cpp - -> idf_http : httpd_start\nhttpd_register_uri_handler

note right of compat_cpp
  互換ポリシー:
  - 必要最小APIのみ実装
  - 一部APIはスタブ/No-op
  - 完全なArduino互換は目的外
  - yield() = taskYIELD() (vTaskDelay(1) 非推奨)
end note

note right of wire_cpp
  スレッド安全:
  - 再帰 Mutex (xSemaphoreCreateRecursiveMutex)
  - beginTransmission/endTransmission/requestFrom で自動ロック
  - tw.h の lockBus/unlockBus と組み合わせて
    複数タスクからの安全な I2C アクセスを実現
end note

note bottom of app
  gbs_control.cpp では digitalRead を
  直接 gpio_get_level に再定義して高速化
  (#undef/#define digitalRead)
end note

}

@enduml

PlantUML version 1.2020.02(Sun Mar 01 19:22:07 JST 2020)
(GPL source distribution)
Java Runtime: OpenJDK Runtime Environment
JVM: OpenJDK 64-Bit Server VM
Java Version: 21.0.10+7-Debian-1deb13u1
Operating System: Linux
Default Encoding: UTF-8
Language: ja
Country: JP
--></g></svg>