<?xml version="1.0" encoding="UTF-8" standalone="no"?><svg xmlns="http://www.w3.org/2000/svg" xmlns:xlink="http://www.w3.org/1999/xlink" contentScriptType="application/ecmascript" contentStyleType="text/css" height="802px" preserveAspectRatio="none" style="width:2046px;height:802px;" version="1.1" viewBox="0 0 2046 802" width="2046px" zoomAndPan="magnify"><defs/><g><text fill="#000000" font-family="Noto Sans CJK JP" font-size="18" lengthAdjust="spacingAndGlyphs" textLength="450" x="804" y="20.8799">Arduinoコンパチレイヤ変換フロー（gbs-control-esp）</text><!--MD5=[cbc0be2e139dd15b0007deace4fc5f27]
cluster  --><polygon fill="#FFFFFF" points="22,50.5638,31,50.5638,38,76.8357,2024,76.8357,2024,790.0638,22,790.0638,22,50.5638" style="stroke: #FFFFFF; stroke-width: 1.5;"/><line style="stroke: #FFFFFF; stroke-width: 1.5;" x1="22" x2="38" y1="76.8357" y2="76.8357"/><text fill="#FFFFFF" font-family="Noto Sans CJK JP" font-size="14" font-weight="bold" lengthAdjust="spacingAndGlyphs" textLength="0" x="29" y="68.8038"/><!--MD5=[43a1252305bd850efe2e9563866807d4]
cluster Application Layer (移植対象)--><polygon fill="#FFFFFF" points="1118,97.5638,1312,97.5638,1319,123.8357,1686,123.8357,1686,213.5638,1118,213.5638,1118,97.5638" style="stroke: #000000; stroke-width: 1.5;"/><line style="stroke: #000000; stroke-width: 1.5;" x1="1118" x2="1319" y1="123.8357" y2="123.8357"/><text fill="#000000" font-family="Noto Sans CJK JP" font-size="14" font-weight="bold" lengthAdjust="spacingAndGlyphs" textLength="188" x="1122" y="115.8038">Application Layer (移植対象)</text><!--MD5=[7095573df0cc889ef310b79bb0eb450b]
cluster Arduino Compat API Surface\ncomponents/compat/include--><polygon fill="#FFFFFF" points="420,265.5638,626,265.5638,633,312.1077,1748,312.1077,1748,401.5638,420,401.5638,420,265.5638" style="stroke: #000000; stroke-width: 1.5;"/><line style="stroke: #000000; stroke-width: 1.5;" x1="420" x2="633" y1="312.1077" y2="312.1077"/><text fill="#000000" font-family="Noto Sans CJK JP" font-size="14" font-weight="bold" lengthAdjust="spacingAndGlyphs" textLength="194" x="427" y="283.8038">Arduino Compat API Surface</text><text fill="#000000" font-family="Noto Sans CJK JP" font-size="14" font-weight="bold" lengthAdjust="spacingAndGlyphs" textLength="200" x="424" y="304.0757">components/compat/include</text><!--MD5=[d116a9df0cef335ede9f4be361edee85]
cluster Compat Implementation\ncomponents/compat--><polygon fill="#FFFFFF" points="796,435.0638,973,435.0638,980,481.6077,1518,481.6077,1518,571.0638,796,571.0638,796,435.0638" style="stroke: #000000; stroke-width: 1.5;"/><line style="stroke: #000000; stroke-width: 1.5;" x1="796" x2="980" y1="481.6077" y2="481.6077"/><text fill="#000000" font-family="Noto Sans CJK JP" font-size="14" font-weight="bold" lengthAdjust="spacingAndGlyphs" textLength="171" x="800" y="453.3038">Compat Implementation</text><text fill="#000000" font-family="Noto Sans CJK JP" font-size="14" font-weight="bold" lengthAdjust="spacingAndGlyphs" textLength="145" x="813" y="473.5757">components/compat</text><!--MD5=[c25f37fb99adadcd97c843c7dc5d08f9]
cluster ESP-IDF APIs--><polygon fill="#FFFFFF" points="56,671.0638,150,671.0638,157,697.3357,1470,697.3357,1470,766.0638,56,766.0638,56,671.0638" style="stroke: #000000; stroke-width: 1.5;"/><line style="stroke: #000000; stroke-width: 1.5;" x1="56" x2="157" y1="697.3357" y2="697.3357"/><text fill="#000000" font-family="Noto Sans CJK JP" font-size="14" font-weight="bold" lengthAdjust="spacingAndGlyphs" textLength="88" x="60" y="689.3038">ESP-IDF APIs</text><path d="M38.5,472.5638 L38.5,576.6839 L323.5,576.6839 L323.5,482.5638 L313.5,472.5638 L38.5,472.5638 " fill="#FBFB77" style="stroke: #A80036; stroke-width: 1.0;"/><path d="M313.5,472.5638 L313.5,482.5638 L323.5,482.5638 L313.5,472.5638 " fill="#FBFB77" style="stroke: #A80036; stroke-width: 1.0;"/><text fill="#000000" font-family="Noto Sans CJK JP" font-size="13" lengthAdjust="spacingAndGlyphs" textLength="82" x="44.5" y="492.6439">互換ポリシー:</text><text fill="#000000" font-family="Noto Sans CJK JP" font-size="13" lengthAdjust="spacingAndGlyphs" textLength="132" x="44.5" y="511.4679">- 必要最小APIのみ実装</text><text fill="#000000" font-family="Noto Sans CJK JP" font-size="13" lengthAdjust="spacingAndGlyphs" textLength="149" x="44.5" y="530.2919">- 一部APIはスタブ/No-op</text><text fill="#000000" font-family="Noto Sans CJK JP" font-size="13" lengthAdjust="spacingAndGlyphs" textLength="174" x="44.5" y="549.1159">- 完全なArduino互換は目的外</text><text fill="#000000" font-family="Noto Sans CJK JP" font-size="13" lengthAdjust="spacingAndGlyphs" textLength="264" x="44.5" y="567.9399">- yield() = taskYIELD() (vTaskDelay(1) 非推奨)</text><path d="M358.5,463.0638 L358.5,586.0079 L777.5,586.0079 L777.5,473.0638 L767.5,463.0638 L358.5,463.0638 " fill="#FBFB77" style="stroke: #A80036; stroke-width: 1.0;"/><path d="M767.5,463.0638 L767.5,473.0638 L777.5,473.0638 L767.5,463.0638 " fill="#FBFB77" style="stroke: #A80036; stroke-width: 1.0;"/><text fill="#000000" font-family="Noto Sans CJK JP" font-size="13" lengthAdjust="spacingAndGlyphs" textLength="82" x="364.5" y="483.1439">スレッド安全:</text><text fill="#000000" font-family="Noto Sans CJK JP" font-size="13" lengthAdjust="spacingAndGlyphs" textLength="296" x="364.5" y="501.9679">- 再帰 Mutex (xSemaphoreCreateRecursiveMutex)</text><text fill="#000000" font-family="Noto Sans CJK JP" font-size="13" lengthAdjust="spacingAndGlyphs" textLength="398" x="364.5" y="520.7919">- beginTransmission/endTransmission/requestFrom で自動ロック</text><text fill="#000000" font-family="Noto Sans CJK JP" font-size="13" lengthAdjust="spacingAndGlyphs" textLength="267" x="364.5" y="539.6159">- tw.h の lockBus/unlockBus と組み合わせて</text><text fill="#000000" font-family="Noto Sans CJK JP" font-size="13" lengthAdjust="spacingAndGlyphs" textLength="259" x="370.5" y="558.4399">複数タスクからの安全な I2C アクセスを実現</text><text fill="#000000" font-family="Noto Sans CJK JP" font-size="13" lengthAdjust="spacingAndGlyphs" textLength="306" x="364.5" y="577.2639">- shell_i2c_bridge はキュー不要で直接呼び出し可能</text><path d="M141.5,322.0638 L141.5,388.5359 L400.5,388.5359 L400.5,332.0638 L390.5,322.0638 L141.5,322.0638 " fill="#FBFB77" style="stroke: #A80036; stroke-width: 1.0;"/><path d="M390.5,322.0638 L390.5,332.0638 L400.5,332.0638 L390.5,322.0638 " fill="#FBFB77" style="stroke: #A80036; stroke-width: 1.0;"/><text fill="#000000" font-family="Noto Sans CJK JP" font-size="13" lengthAdjust="spacingAndGlyphs" textLength="217" x="147.5" y="342.1439">gbs_control.cpp では digitalRead を</text><text fill="#000000" font-family="Noto Sans CJK JP" font-size="13" lengthAdjust="spacingAndGlyphs" textLength="238" x="147.5" y="360.9679">直接 gpio_get_level に再定義して高速化</text><text fill="#000000" font-family="Noto Sans CJK JP" font-size="13" lengthAdjust="spacingAndGlyphs" textLength="172" x="147.5" y="379.7919">(#undef/#define digitalRead)</text><!--MD5=[4541fb81c80c07473fe4b07432ef0971]
entity app--><rect fill="#FEFECE" height="60.5438" style="stroke: #A80036; stroke-width: 1.5;" width="166" x="1134" y="136.5638"/><rect fill="#FEFECE" height="5" style="stroke: #A80036; stroke-width: 1.5;" width="10" x="1129" y="141.5638"/><rect fill="#FEFECE" height="5" style="stroke: #A80036; stroke-width: 1.5;" width="10" x="1129" y="187.1077"/><text fill="#000000" font-family="Noto Sans CJK JP" font-size="14" lengthAdjust="spacingAndGlyphs" textLength="107" x="1144" y="162.8038">gbs_control.cpp</text><text fill="#000000" font-family="Noto Sans CJK JP" font-size="14" lengthAdjust="spacingAndGlyphs" textLength="146" x="1144" y="183.0757">(gbs_setup/gbs_loop)</text><!--MD5=[00179af9bc14e048fef3c02ab7970256]
entity pwm--><rect fill="#FEFECE" height="40.2719" style="stroke: #A80036; stroke-width: 1.5;" width="163" x="1335.5" y="147.0638"/><rect fill="#FEFECE" height="5" style="stroke: #A80036; stroke-width: 1.5;" width="10" x="1330.5" y="152.0638"/><rect fill="#FEFECE" height="5" style="stroke: #A80036; stroke-width: 1.5;" width="10" x="1330.5" y="177.3357"/><text fill="#000000" font-family="Noto Sans CJK JP" font-size="14" lengthAdjust="spacingAndGlyphs" textLength="143" x="1345.5" y="173.3038">PersWiFiManager.cpp</text><!--MD5=[2b3ff478e007de30f424c5f8c5f53fb3]
entity i2c_clients--><rect fill="#FEFECE" height="60.5438" style="stroke: #A80036; stroke-width: 1.5;" width="136" x="1534" y="136.5638"/><rect fill="#FEFECE" height="5" style="stroke: #A80036; stroke-width: 1.5;" width="10" x="1529" y="141.5638"/><rect fill="#FEFECE" height="5" style="stroke: #A80036; stroke-width: 1.5;" width="10" x="1529" y="187.1077"/><text fill="#000000" font-family="Noto Sans CJK JP" font-size="14" lengthAdjust="spacingAndGlyphs" textLength="116" x="1544" y="162.8038">SSD1306Wire.cpp</text><text fill="#000000" font-family="Noto Sans CJK JP" font-size="14" lengthAdjust="spacingAndGlyphs" textLength="101" x="1544" y="183.0757">si5351mcu.cpp</text><!--MD5=[cb7a91ad4de6b05e50f395da6df46354]
entity arduino_h--><rect fill="#FEFECE" height="60.5438" style="stroke: #A80036; stroke-width: 1.5;" width="294" x="1164" y="324.5638"/><rect fill="#FEFECE" height="5" style="stroke: #A80036; stroke-width: 1.5;" width="10" x="1159" y="329.5638"/><rect fill="#FEFECE" height="5" style="stroke: #A80036; stroke-width: 1.5;" width="10" x="1159" y="375.1077"/><text fill="#000000" font-family="Noto Sans CJK JP" font-size="14" lengthAdjust="spacingAndGlyphs" textLength="66" x="1174" y="350.8038">Arduino.h</text><text fill="#000000" font-family="Noto Sans CJK JP" font-size="14" lengthAdjust="spacingAndGlyphs" textLength="274" x="1174" y="371.0757">(digitalWrite/millis/delay/attachInterrupt)</text><!--MD5=[6c3a7b4ae083fa34dc5d0a50322987be]
entity wire_h--><rect fill="#FEFECE" height="60.5438" style="stroke: #A80036; stroke-width: 1.5;" width="86" x="1646" y="324.5638"/><rect fill="#FEFECE" height="5" style="stroke: #A80036; stroke-width: 1.5;" width="10" x="1641" y="329.5638"/><rect fill="#FEFECE" height="5" style="stroke: #A80036; stroke-width: 1.5;" width="10" x="1641" y="375.1077"/><text fill="#000000" font-family="Noto Sans CJK JP" font-size="14" lengthAdjust="spacingAndGlyphs" textLength="42" x="1656" y="350.8038">Wire.h</text><text fill="#000000" font-family="Noto Sans CJK JP" font-size="14" lengthAdjust="spacingAndGlyphs" textLength="66" x="1656" y="371.0757">(TwoWire)</text><!--MD5=[52b7513755c1cf5bde2628ffc6fbf40f]
entity wifi_h--><rect fill="#FEFECE" height="60.5438" style="stroke: #A80036; stroke-width: 1.5;" width="118" x="1493" y="324.5638"/><rect fill="#FEFECE" height="5" style="stroke: #A80036; stroke-width: 1.5;" width="10" x="1488" y="329.5638"/><rect fill="#FEFECE" height="5" style="stroke: #A80036; stroke-width: 1.5;" width="10" x="1488" y="375.1077"/><text fill="#000000" font-family="Noto Sans CJK JP" font-size="14" lengthAdjust="spacingAndGlyphs" textLength="98" x="1503" y="350.8038">ESP8266WiFi.h</text><text fill="#000000" font-family="Noto Sans CJK JP" font-size="14" lengthAdjust="spacingAndGlyphs" textLength="73" x="1503" y="371.0757">(WiFiClass)</text><!--MD5=[d57cb92530b348503863424327c3b971]
entity web_h--><rect fill="#FEFECE" height="60.5438" style="stroke: #A80036; stroke-width: 1.5;" width="167" x="435.5" y="324.5638"/><rect fill="#FEFECE" height="5" style="stroke: #A80036; stroke-width: 1.5;" width="10" x="430.5" y="329.5638"/><rect fill="#FEFECE" height="5" style="stroke: #A80036; stroke-width: 1.5;" width="10" x="430.5" y="375.1077"/><text fill="#000000" font-family="Noto Sans CJK JP" font-size="14" lengthAdjust="spacingAndGlyphs" textLength="147" x="445.5" y="350.8038">ESPAsyncWebServer.h</text><text fill="#000000" font-family="Noto Sans CJK JP" font-size="14" lengthAdjust="spacingAndGlyphs" textLength="144" x="445.5" y="371.0757">(AsyncWebServer API)</text><!--MD5=[e9e25b65e10208994919b4586b0f1e39]
entity fs_h--><rect fill="#FEFECE" height="60.5438" style="stroke: #A80036; stroke-width: 1.5;" width="128" x="1001" y="324.5638"/><rect fill="#FEFECE" height="5" style="stroke: #A80036; stroke-width: 1.5;" width="10" x="996" y="329.5638"/><rect fill="#FEFECE" height="5" style="stroke: #A80036; stroke-width: 1.5;" width="10" x="996" y="375.1077"/><text fill="#000000" font-family="Noto Sans CJK JP" font-size="14" lengthAdjust="spacingAndGlyphs" textLength="29" x="1011" y="350.8038">FS.h</text><text fill="#000000" font-family="Noto Sans CJK JP" font-size="14" lengthAdjust="spacingAndGlyphs" textLength="108" x="1011" y="371.0757">(SPIFFS/File/Dir)</text><!--MD5=[2df424908b0954ecd0e773e967fdddc3]
entity net_h--><rect fill="#FEFECE" height="40.2719" style="stroke: #A80036; stroke-width: 1.5;" width="328" x="638" y="335.0638"/><rect fill="#FEFECE" height="5" style="stroke: #A80036; stroke-width: 1.5;" width="10" x="633" y="340.0638"/><rect fill="#FEFECE" height="5" style="stroke: #A80036; stroke-width: 1.5;" width="10" x="633" y="365.3357"/><text fill="#000000" font-family="Noto Sans CJK JP" font-size="14" lengthAdjust="spacingAndGlyphs" textLength="308" x="648" y="361.3038">ESP8266mDNS.h / ArduinoOTA.h / DNSServer.h</text><!--MD5=[90f90b1b1f4b24980ba72e32d8374e7f]
entity compat_cpp--><rect fill="#FEFECE" height="60.5438" style="stroke: #A80036; stroke-width: 1.5;" width="289" x="1030.5" y="494.0638"/><rect fill="#FEFECE" height="5" style="stroke: #A80036; stroke-width: 1.5;" width="10" x="1025.5" y="499.0638"/><rect fill="#FEFECE" height="5" style="stroke: #A80036; stroke-width: 1.5;" width="10" x="1025.5" y="544.6077"/><text fill="#000000" font-family="Noto Sans CJK JP" font-size="14" lengthAdjust="spacingAndGlyphs" textLength="79" x="1040.5" y="520.3038">compat.cpp</text><text fill="#000000" font-family="Noto Sans CJK JP" font-size="14" lengthAdjust="spacingAndGlyphs" textLength="269" x="1040.5" y="540.5757">GPIO/Serial/WiFi/mDNS/OTA/DNS/SPIFFS</text><!--MD5=[60a503a105ec775247c5a6a6dc227fca]
entity wire_cpp--><rect fill="#FEFECE" height="60.5438" style="stroke: #A80036; stroke-width: 1.5;" width="148" x="1354" y="494.0638"/><rect fill="#FEFECE" height="5" style="stroke: #A80036; stroke-width: 1.5;" width="10" x="1349" y="499.0638"/><rect fill="#FEFECE" height="5" style="stroke: #A80036; stroke-width: 1.5;" width="10" x="1349" y="544.6077"/><text fill="#000000" font-family="Noto Sans CJK JP" font-size="14" lengthAdjust="spacingAndGlyphs" textLength="58" x="1364" y="520.3038">Wire.cpp</text><text fill="#000000" font-family="Noto Sans CJK JP" font-size="14" lengthAdjust="spacingAndGlyphs" textLength="128" x="1364" y="540.5757">I2C master wrapper</text><!--MD5=[ce29ffbb8485e0924bd14399130592eb]
entity web_cpp--><rect fill="#FEFECE" height="60.5438" style="stroke: #A80036; stroke-width: 1.5;" width="183" x="812.5" y="494.0638"/><rect fill="#FEFECE" height="5" style="stroke: #A80036; stroke-width: 1.5;" width="10" x="807.5" y="499.0638"/><rect fill="#FEFECE" height="5" style="stroke: #A80036; stroke-width: 1.5;" width="10" x="807.5" y="544.6077"/><text fill="#000000" font-family="Noto Sans CJK JP" font-size="14" lengthAdjust="spacingAndGlyphs" textLength="151" x="822.5" y="520.3038">WebServerCompat.cpp</text><text fill="#000000" font-family="Noto Sans CJK JP" font-size="14" lengthAdjust="spacingAndGlyphs" textLength="163" x="822.5" y="540.5757">esp_http_server adapter</text><!--MD5=[48617ad9f9b150c5114249034558e3d4]
entity idf_gpio--><rect fill="#FEFECE" height="40.2719" style="stroke: #A80036; stroke-width: 1.5;" width="92" x="908" y="710.0638"/><rect fill="#FEFECE" height="5" style="stroke: #A80036; stroke-width: 1.5;" width="10" x="903" y="715.0638"/><rect fill="#FEFECE" height="5" style="stroke: #A80036; stroke-width: 1.5;" width="10" x="903" y="740.3357"/><text fill="#000000" font-family="Noto Sans CJK JP" font-size="14" lengthAdjust="spacingAndGlyphs" textLength="72" x="918" y="736.3038">driver/gpio</text><!--MD5=[1dcb523a0057b89aa344ede1149fe252]
entity idf_time--><rect fill="#FEFECE" height="40.2719" style="stroke: #A80036; stroke-width: 1.5;" width="165" x="1035.5" y="710.0638"/><rect fill="#FEFECE" height="5" style="stroke: #A80036; stroke-width: 1.5;" width="10" x="1030.5" y="715.0638"/><rect fill="#FEFECE" height="5" style="stroke: #A80036; stroke-width: 1.5;" width="10" x="1030.5" y="740.3357"/><text fill="#000000" font-family="Noto Sans CJK JP" font-size="14" lengthAdjust="spacingAndGlyphs" textLength="145" x="1045.5" y="736.3038">esp_timer + FreeRTOS</text><!--MD5=[f1d5a02995e866ed24e7620d4a430d1a]
entity idf_uart--><rect fill="#FEFECE" height="40.2719" style="stroke: #A80036; stroke-width: 1.5;" width="90" x="1236" y="710.0638"/><rect fill="#FEFECE" height="5" style="stroke: #A80036; stroke-width: 1.5;" width="10" x="1231" y="715.0638"/><rect fill="#FEFECE" height="5" style="stroke: #A80036; stroke-width: 1.5;" width="10" x="1231" y="740.3357"/><text fill="#000000" font-family="Noto Sans CJK JP" font-size="14" lengthAdjust="spacingAndGlyphs" textLength="70" x="1246" y="736.3038">driver/uart</text><!--MD5=[2b43c65d1c41a1c3d5049c0f8f66dc0d]
entity idf_wifi--><rect fill="#FEFECE" height="40.2719" style="stroke: #A80036; stroke-width: 1.5;" width="236" x="235" y="710.0638"/><rect fill="#FEFECE" height="5" style="stroke: #A80036; stroke-width: 1.5;" width="10" x="230" y="715.0638"/><rect fill="#FEFECE" height="5" style="stroke: #A80036; stroke-width: 1.5;" width="10" x="230" y="740.3357"/><text fill="#000000" font-family="Noto Sans CJK JP" font-size="14" lengthAdjust="spacingAndGlyphs" textLength="216" x="245" y="736.3038">esp_wifi + esp_netif + esp_event</text><!--MD5=[90a2478121e268f1c0cee6ad9de579be]
entity idf_http--><rect fill="#FEFECE" height="40.2719" style="stroke: #A80036; stroke-width: 1.5;" width="128" x="72" y="710.0638"/><rect fill="#FEFECE" height="5" style="stroke: #A80036; stroke-width: 1.5;" width="10" x="67" y="715.0638"/><rect fill="#FEFECE" height="5" style="stroke: #A80036; stroke-width: 1.5;" width="10" x="67" y="740.3357"/><text fill="#000000" font-family="Noto Sans CJK JP" font-size="14" lengthAdjust="spacingAndGlyphs" textLength="108" x="82" y="736.3038">esp_http_server</text><!--MD5=[aebbcda88defcf6feb6b2e639324f6ee]
entity idf_i2c--><rect fill="#FEFECE" height="40.2719" style="stroke: #A80036; stroke-width: 1.5;" width="93" x="1361.5" y="710.0638"/><rect fill="#FEFECE" height="5" style="stroke: #A80036; stroke-width: 1.5;" width="10" x="1356.5" y="715.0638"/><rect fill="#FEFECE" height="5" style="stroke: #A80036; stroke-width: 1.5;" width="10" x="1356.5" y="740.3357"/><text fill="#000000" font-family="Noto Sans CJK JP" font-size="14" lengthAdjust="spacingAndGlyphs" textLength="73" x="1371.5" y="736.3038">i2c_master</text><!--MD5=[29e9966dfc9bee1ba64e4a6bc0cb331d]
entity idf_fs--><rect fill="#FEFECE" height="40.2719" style="stroke: #A80036; stroke-width: 1.5;" width="185" x="506.5" y="710.0638"/><rect fill="#FEFECE" height="5" style="stroke: #A80036; stroke-width: 1.5;" width="10" x="501.5" y="715.0638"/><rect fill="#FEFECE" height="5" style="stroke: #A80036; stroke-width: 1.5;" width="10" x="501.5" y="740.3357"/><text fill="#000000" font-family="Noto Sans CJK JP" font-size="14" lengthAdjust="spacingAndGlyphs" textLength="165" x="516.5" y="736.3038">esp_vfs_spiffs + libc FILE</text><!--MD5=[bb723e66c68273cc2f88444392a918de]
entity idf_net--><rect fill="#FEFECE" height="40.2719" style="stroke: #A80036; stroke-width: 1.5;" width="146" x="727" y="710.0638"/><rect fill="#FEFECE" height="5" style="stroke: #A80036; stroke-width: 1.5;" width="10" x="722" y="715.0638"/><rect fill="#FEFECE" height="5" style="stroke: #A80036; stroke-width: 1.5;" width="10" x="722" y="740.3357"/><text fill="#000000" font-family="Noto Sans CJK JP" font-size="14" lengthAdjust="spacingAndGlyphs" textLength="126" x="737" y="736.3038">mdns + lwip socket</text><!--MD5=[d1e8d03df838f77b118ac9aa4c118d12]
link app to arduino_h--><path d="M1210.31,197.6838 C1208.09,213.5938 1207.58,233.2238 1214,249.5638 C1224.99,277.5438 1247.38,302.4938 1267.88,320.9938 " fill="none" id="app-&gt;arduino_h" style="stroke: #2D3748; stroke-width: 1.0;"/><polygon fill="#2D3748" points="1271.68,324.3738,1267.6129,315.404,1267.9437,321.0511,1262.2966,321.382,1271.68,324.3738" style="stroke: #2D3748; stroke-width: 1.0;"/><text fill="#000000" font-family="Noto Sans CJK JP" font-size="13" lengthAdjust="spacingAndGlyphs" textLength="225" x="1215" y="245.6439">pinMode / digitalWrite / delay / millis</text><!--MD5=[d0a1e81acc5c8257b24584c092e1de64]
link app to wire_h--><path d="M1261.91,197.6238 C1278.79,207.1538 1298.6,216.5338 1318,221.5638 C1328.78,224.3538 1711.2,221.6038 1719,229.5638 C1742.34,253.3738 1728.04,292.0138 1712.19,319.9438 " fill="none" id="app-&gt;wire_h" style="stroke: #2D3748; stroke-width: 1.0;"/><polygon fill="#2D3748" points="1709.63,324.3238,1717.6176,318.562,1712.1476,320.0039,1710.7057,314.5339,1709.63,324.3238" style="stroke: #2D3748; stroke-width: 1.0;"/><text fill="#000000" font-family="Noto Sans CJK JP" font-size="13" lengthAdjust="spacingAndGlyphs" textLength="107" x="1730" y="245.6439">Wire.begin(), tx/rx</text><!--MD5=[92177e1bf48f37c16d65c17de2f53fc6]
link app to wifi_h--><path d="M1262.78,197.5938 C1279.51,206.9238 1299,216.2038 1318,221.5638 C1345.22,229.2438 1418.94,218.5838 1445,229.5638 C1486.05,246.8638 1516.87,289.4538 1534.64,320.0038 " fill="none" id="app-&gt;wifi_h" style="stroke: #2D3748; stroke-width: 1.0;"/><polygon fill="#2D3748" points="1537.16,324.4138,1536.1608,314.6158,1534.6762,320.0744,1529.2177,318.5898,1537.16,324.4138" style="stroke: #2D3748; stroke-width: 1.0;"/><text fill="#000000" font-family="Noto Sans CJK JP" font-size="13" lengthAdjust="spacingAndGlyphs" textLength="234" x="1476" y="245.6439">WiFi.mode(), WiFi.begin(), WiFi.status()</text><!--MD5=[98ed4b6e06e9f5541074843eb8fb1d17]
link app to web_h--><path d="M1133.72,168.5138 C944.62,170.4038 495.64,180.1138 450,229.5638 C425.14,256.5038 452.26,294.0238 479.46,320.8238 " fill="none" id="app-&gt;web_h" style="stroke: #2D3748; stroke-width: 1.0;"/><polygon fill="#2D3748" points="483.12,324.3638,479.4367,315.2297,479.5279,320.8858,473.8718,320.977,483.12,324.3638" style="stroke: #2D3748; stroke-width: 1.0;"/><text fill="#000000" font-family="Noto Sans CJK JP" font-size="13" lengthAdjust="spacingAndGlyphs" textLength="167" x="451" y="245.6439">server.on(), request-&gt;send()</text><!--MD5=[31b57329bc8a0a89e8f0a6164f172e35]
link app to fs_h--><path d="M1133.77,194.1638 C1116.79,202.9738 1100.59,214.5238 1089,229.5638 C1069.35,255.0638 1064.32,292.0638 1063.61,319.0938 " fill="none" id="app-&gt;fs_h" style="stroke: #2D3748; stroke-width: 1.0;"/><polygon fill="#2D3748" points="1063.53,324.3638,1067.6837,315.4337,1063.6157,319.3646,1059.6849,315.2966,1063.53,324.3638" style="stroke: #2D3748; stroke-width: 1.0;"/><text fill="#000000" font-family="Noto Sans CJK JP" font-size="13" lengthAdjust="spacingAndGlyphs" textLength="110" x="1090" y="245.6439">SPIFFS.open(), Dir</text><!--MD5=[5af60c1453cf3e9de422ef4616d807a9]
link app to net_h--><path d="M1133.96,170.8438 C981.52,176.7938 669.61,193.3138 637,229.5638 C598.23,272.6638 674.09,310.9438 735.35,333.3238 " fill="none" id="app-&gt;net_h" style="stroke: #2D3748; stroke-width: 1.0;"/><polygon fill="#2D3748" points="740.11,335.0438,733.0005,328.228,735.4065,333.3477,730.2868,335.7536,740.11,335.0438" style="stroke: #2D3748; stroke-width: 1.0;"/><text fill="#000000" font-family="Noto Sans CJK JP" font-size="13" lengthAdjust="spacingAndGlyphs" textLength="431" x="638" y="245.6439">MDNS.update(), ArduinoOTA.handle(), dnsServer.processNextRequest()</text><!--MD5=[8f3d184ff6a400f546d531bd341a565b]
link pwm to wifi_h--><path d="M1444.4,187.2838 C1463.71,199.6538 1490.72,214.6538 1517,221.5638 C1535.97,226.5538 1856.29,215.5338 1870,229.5638 C1876.21,235.9238 1876.18,243.1738 1870,249.5638 C1851.37,268.8238 1652.94,245.5438 1629,257.5638 C1602.6,270.8138 1582.31,297.7638 1569.2,319.8238 " fill="none" id="pwm-&gt;wifi_h" style="stroke: #2D3748; stroke-width: 1.0;"/><polygon fill="#2D3748" points="1566.68,324.1638,1574.6676,318.402,1569.1976,319.8439,1567.7557,314.3739,1566.68,324.1638" style="stroke: #2D3748; stroke-width: 1.0;"/><!--MD5=[568213e8a1031c07cc800493e965f550]
link i2c_clients to wire_h--><path d="M1670.33,173.7338 C1743.19,181.3738 1851.58,197.8238 1877,229.5638 C1921.81,285.5038 1806.34,325.1138 1736.95,343.1338 " fill="none" id="i2c_clients-&gt;wire_h" style="stroke: #2D3748; stroke-width: 1.0;"/><polygon fill="#2D3748" points="1732.03,344.3938,1741.7418,346.031,1736.8731,343.1509,1739.7532,338.2822,1732.03,344.3938" style="stroke: #2D3748; stroke-width: 1.0;"/><!--MD5=[b42888337b77e3e5ebf45e60f514605c]
link arduino_h to compat_cpp--><path d="M1287,385.6238 C1263.28,414.8338 1227.05,459.4638 1202.26,489.9938 " fill="none" id="arduino_h-&gt;compat_cpp" style="stroke: #2D3748; stroke-width: 1.0;"/><polygon fill="#2D3748" points="1198.99,494.0138,1207.7698,489.5512,1202.143,490.1333,1201.5609,484.5064,1198.99,494.0138" style="stroke: #2D3748; stroke-width: 1.0;"/><!--MD5=[9d1a7f125a468ef3c107da41c39db084]
link wire_h to wire_cpp--><path d="M1658.29,385.6938 C1649.19,393.8538 1638.98,402.4038 1629,409.5638 C1585.61,440.6738 1533.01,470.2538 1492.5,491.4738 " fill="none" id="wire_h-&gt;wire_cpp" style="stroke: #2D3748; stroke-width: 1.0;"/><polygon fill="#2D3748" points="1487.62,494.0238,1497.4499,493.4136,1492.0544,491.7139,1493.7541,486.3184,1487.62,494.0238" style="stroke: #2D3748; stroke-width: 1.0;"/><!--MD5=[692fb0348761ea5c7cb1dd4ad9302b2e]
link wifi_h to compat_cpp--><path d="M1517.36,385.8038 C1505.04,394.8638 1490.6,403.9138 1476,409.5638 C1417.93,432.0438 1395.88,406.8138 1337,427.0638 C1293.74,441.9438 1249.45,469.3238 1218.13,491.1338 " fill="none" id="wifi_h-&gt;compat_cpp" style="stroke: #2D3748; stroke-width: 1.0;"/><polygon fill="#2D3748" points="1213.99,494.0338,1223.6534,492.1315,1218.0808,491.1589,1219.0534,485.5862,1213.99,494.0338" style="stroke: #2D3748; stroke-width: 1.0;"/><!--MD5=[9ee6409a3afb3902c66de4e5a78bd1a3]
link fs_h to compat_cpp--><path d="M1084.41,385.6238 C1103.52,414.7138 1132.66,459.0938 1152.71,489.6238 " fill="none" id="fs_h-&gt;compat_cpp" style="stroke: #2D3748; stroke-width: 1.0;"/><polygon fill="#2D3748" points="1155.6,494.0138,1153.9744,484.3001,1152.843,489.8426,1147.3004,488.7113,1155.6,494.0138" style="stroke: #2D3748; stroke-width: 1.0;"/><!--MD5=[e54c5a4b31e20a01399c37b852bec78d]
link net_h to compat_cpp--><path d="M870.89,375.1938 C912.82,387.8138 967,405.9138 1013,427.0638 C1052.69,445.3138 1095.02,470.7538 1126.45,490.9338 " fill="none" id="net_h-&gt;compat_cpp" style="stroke: #2D3748; stroke-width: 1.0;"/><polygon fill="#2D3748" points="1131.01,493.8738,1125.6024,485.6423,1126.8041,491.17,1121.2764,492.3717,1131.01,493.8738" style="stroke: #2D3748; stroke-width: 1.0;"/><!--MD5=[491cd4e1afa5cfcce6e9a5a9b36c3628]
link web_h to web_cpp--><path d="M566.13,385.6838 C582.86,394.8538 602.21,404.0038 621,409.5638 C701.46,433.3938 733.18,391.0938 809,427.0638 C838.39,441.0138 863.77,468.0738 880.88,490.0038 " fill="none" id="web_h-&gt;web_cpp" style="stroke: #2D3748; stroke-width: 1.0;"/><polygon fill="#2D3748" points="883.98,494.0338,881.6814,484.457,880.939,490.0649,875.3311,489.3225,883.98,494.0338" style="stroke: #2D3748; stroke-width: 1.0;"/><!--MD5=[da4710c81ca01846d2eff56eb07968ab]
link compat_cpp to idf_gpio--><path d="M1098.18,555.1738 C1037.19,579.0438 961.4,609.6538 957,616.0638 C939.05,642.1938 942.56,680.3238 947.59,704.9238 " fill="none" id="compat_cpp-&gt;idf_gpio" style="stroke: #2D3748; stroke-width: 1.0;"/><polygon fill="#2D3748" points="948.68,709.9538,950.6862,700.3115,947.6226,705.0669,942.8671,702.0033,948.68,709.9538" style="stroke: #2D3748; stroke-width: 1.0;"/><text fill="#000000" font-family="Noto Sans CJK JP" font-size="13" lengthAdjust="spacingAndGlyphs" textLength="271" x="958" y="641.6439">gpio_config / gpio_set_level / gpio_get_level</text><!--MD5=[74142780b5b8481fee77366a5f448c6b]
link compat_cpp to idf_time--><path d="M1206.93,555.3138 C1232,582.3738 1259.37,622.8838 1238,655.0638 C1232.93,662.6938 1227.09,658.7638 1219,663.0638 C1194.41,676.1338 1168.12,693.4338 1148.53,707.0338 " fill="none" id="compat_cpp-&gt;idf_time" style="stroke: #2D3748; stroke-width: 1.0;"/><polygon fill="#2D3748" points="1144.2,710.0538,1153.8665,708.1673,1148.2955,707.1856,1149.2773,701.6146,1144.2,710.0538" style="stroke: #2D3748; stroke-width: 1.0;"/><text fill="#000000" font-family="Noto Sans CJK JP" font-size="13" lengthAdjust="spacingAndGlyphs" textLength="202" x="1246" y="641.6439">esp_timer_get_time / vTaskDelay</text><!--MD5=[3b622bb83ee577fe51ce1969ae4d6c6c]
link compat_cpp to idf_uart--><path d="M1249,555.1938 C1276.41,565.6438 1307.9,577.0238 1337,586.0638 C1389.5,602.3738 1423.17,572.7338 1457,616.0638 C1467.67,629.7238 1468.82,642.3838 1457,655.0638 C1439.84,673.4838 1366.78,652.3538 1344,663.0638 C1324.22,672.3738 1307.45,690.8238 1296.2,705.8638 " fill="none" id="compat_cpp-&gt;idf_uart" style="stroke: #2D3748; stroke-width: 1.0;"/><polygon fill="#2D3748" points="1293.18,710.0038,1301.7106,705.0815,1296.1226,705.9614,1295.2426,700.3734,1293.18,710.0038" style="stroke: #2D3748; stroke-width: 1.0;"/><text fill="#000000" font-family="Noto Sans CJK JP" font-size="13" lengthAdjust="spacingAndGlyphs" textLength="227" x="1466" y="641.6439">uart_driver_install / uart_write_bytes</text><!--MD5=[8e825edfd0d7cce2d670237362bd3631]
link compat_cpp to idf_wifi--><path d="M1110.17,555.0838 C1081.07,566.9338 1045.95,579.3538 1013,586.0638 C939.55,601.0238 390.81,561.8938 339,616.0638 C316.49,639.5938 328.75,679.6438 340.35,705.1938 " fill="none" id="compat_cpp-&gt;idf_wifi" style="stroke: #2D3748; stroke-width: 1.0;"/><polygon fill="#2D3748" points="342.5,709.7938,342.3171,699.9467,340.3848,705.2633,335.0682,703.331,342.5,709.7938" style="stroke: #2D3748; stroke-width: 1.0;"/><text fill="#000000" font-family="Noto Sans CJK JP" font-size="13" lengthAdjust="spacingAndGlyphs" textLength="143" x="340" y="641.6439">esp_wifi_* / esp_netif_*</text><!--MD5=[7a37ff9af53d935d1e5c3db667885209]
link compat_cpp to idf_fs--><path d="M1109.34,555.1838 C1080.39,566.8938 1045.61,579.1838 1013,586.0638 C957.24,597.8338 540.1,574.6038 501,616.0638 C471.98,646.8338 519.56,684.1938 558.01,707.3038 " fill="none" id="compat_cpp-&gt;idf_fs" style="stroke: #2D3748; stroke-width: 1.0;"/><polygon fill="#2D3748" points="562.65,710.0438,556.9393,702.0196,558.3462,707.4987,552.8671,708.9057,562.65,710.0438" style="stroke: #2D3748; stroke-width: 1.0;"/><text fill="#000000" font-family="Noto Sans CJK JP" font-size="13" lengthAdjust="spacingAndGlyphs" textLength="183" x="502" y="641.6439">esp_vfs_spiffs_register / fopen</text><!--MD5=[acd17b574c6f61976e409bcf514e144e]
link compat_cpp to idf_net--><path d="M1108.03,555.0638 C1079.3,566.5338 1045.03,578.6738 1013,586.0638 C945.35,601.6738 748.68,564.6638 702,616.0638 C690.35,628.8938 694.27,639.5438 702,655.0638 C705.68,662.4438 740.71,687.9338 767.85,706.9438 " fill="none" id="compat_cpp-&gt;idf_net" style="stroke: #2D3748; stroke-width: 1.0;"/><polygon fill="#2D3748" points="772.13,709.9438,767.033,701.5165,768.0278,707.0852,762.4591,708.08,772.13,709.9438" style="stroke: #2D3748; stroke-width: 1.0;"/><text fill="#000000" font-family="Noto Sans CJK JP" font-size="13" lengthAdjust="spacingAndGlyphs" textLength="232" x="703" y="641.6439">mdns_* / UDP socket recvfrom/sendto</text><!--MD5=[91231d1a433bae2e435dfd9b7882f7e5]
link wire_cpp to idf_i2c--><path d="M1502.14,529.6338 C1618,538.7338 1821.78,567.3938 1751,655.0638 C1714.98,699.6838 1546.46,718.6938 1459.79,725.6338 " fill="none" id="wire_cpp-&gt;idf_i2c" style="stroke: #2D3748; stroke-width: 1.0;"/><polygon fill="#2D3748" points="1454.71,726.0338,1464.0011,729.3013,1459.694,725.634,1463.3613,721.3269,1454.71,726.0338" style="stroke: #2D3748; stroke-width: 1.0;"/><text fill="#000000" font-family="Noto Sans CJK JP" font-size="13" lengthAdjust="spacingAndGlyphs" textLength="128" x="1810" y="632.1439">i2c_new_master_bus</text><text fill="#000000" font-family="Noto Sans CJK JP" font-size="13" lengthAdjust="spacingAndGlyphs" textLength="216" x="1766" y="650.9679">i2c_master_transmit/receive/probe</text><!--MD5=[f7354d49c69e71b1b07ac0ecde265afa]
link web_cpp to idf_http--><path d="M867.48,555.2338 C850.69,567.1138 829.9,579.5138 809,586.0638 C730.59,610.6538 126.92,556.7838 70,616.0638 C44.2,642.9338 78.51,681.7238 106.52,706.1538 " fill="none" id="web_cpp-&gt;idf_http" style="stroke: #2D3748; stroke-width: 1.0;"/><polygon fill="#2D3748" points="110.6,709.6538,106.3864,700.7518,106.8098,706.3928,101.1688,706.8162,110.6,709.6538" style="stroke: #2D3748; stroke-width: 1.0;"/><text fill="#000000" font-family="Noto Sans CJK JP" font-size="13" lengthAdjust="spacingAndGlyphs" textLength="69" x="119" y="632.1439">httpd_start</text><text fill="#000000" font-family="Noto Sans CJK JP" font-size="13" lengthAdjust="spacingAndGlyphs" textLength="165" x="71" y="650.9679">httpd_register_uri_handler</text><!--MD5=[4a64b7bc972db678070ec6716c8309ff]
link compat_cpp to GMN115--><path d="M1138.74,494.0238 C1104.41,467.4438 1050.13,431.2138 995.5,418.3138 C961.06,410.1838 392.94,410.1838 358.5,418.3138 C318.13,427.8438 278.05,450.4038 246.23,472.2938 " fill="none" id="compat_cpp-GMN115" style="stroke: #2D3748; stroke-width: 1.0; stroke-dasharray: 7.0,7.0;"/><!--MD5=[76eca2b51ff49311b2e3598168c68d9f]
link wire_cpp to GMN118--><path d="M1410.3,493.9838 C1391.87,466.1138 1360.04,427.8838 1319.5,418.3138 C1292.14,411.8538 841.03,412.6138 813.5,418.3138 C769.5,427.4238 723.69,444.8238 683.73,462.9538 " fill="none" id="wire_cpp-GMN118" style="stroke: #2D3748; stroke-width: 1.0; stroke-dasharray: 7.0,7.0;"/><!--MD5=[1b43f98d347bcf9b1ec1cb8eb7d55d41]
link app to GMN121--><path d="M1133.82,168.6038 C958.8,170.7038 558.26,180.8538 432,229.5638 C380.08,249.5938 331.1,292.1038 301.1,321.8538 " fill="none" id="app-GMN121" style="stroke: #2D3748; stroke-width: 1.0; stroke-dasharray: 7.0,7.0;"/><!--MD5=[d7bf4da555f12ff52ae3202db13c1729]
@startuml
skinparam backgroundColor white
skinparam shadowing false
skinparam defaultFontName Noto Sans CJK JP
skinparam componentStyle rectangle
skinparam packageStyle rectangle
skinparam ArrowColor #2d3748
hide stereotype
skinparam package<<canvas>> {
  BackgroundColor #FFFFFF
  BorderColor #FFFFFF
  FontColor #FFFFFF
}

title Arduinoコンパチレイヤ変換フロー（gbs-control-esp）

package " " <<canvas>> {

package "Application Layer (移植対象)" {
  component "gbs_control.cpp\n(gbs_setup/gbs_loop)" as app
  component "PersWiFiManager.cpp" as pwm
  component "SSD1306Wire.cpp\nsi5351mcu.cpp" as i2c_clients
}

package "Arduino Compat API Surface\ncomponents/compat/include" {
  component "Arduino.h\n(digitalWrite/millis/delay/attachInterrupt)" as arduino_h
  component "Wire.h\n(TwoWire)" as wire_h
  component "ESP8266WiFi.h\n(WiFiClass)" as wifi_h
  component "ESPAsyncWebServer.h\n(AsyncWebServer API)" as web_h
  component "FS.h\n(SPIFFS/File/Dir)" as fs_h
  component "ESP8266mDNS.h / ArduinoOTA.h / DNSServer.h" as net_h
}

package "Compat Implementation\ncomponents/compat" {
  component "compat.cpp\nGPIO/Serial/WiFi/mDNS/OTA/DNS/SPIFFS" as compat_cpp
  component "Wire.cpp\nI2C master wrapper" as wire_cpp
  component "WebServerCompat.cpp\nesp_http_server adapter" as web_cpp
}

package "ESP-IDF APIs" {
  component "driver/gpio" as idf_gpio
  component "esp_timer + FreeRTOS" as idf_time
  component "driver/uart" as idf_uart
  component "esp_wifi + esp_netif + esp_event" as idf_wifi
  component "esp_http_server" as idf_http
  component "i2c_master" as idf_i2c
  component "esp_vfs_spiffs + libc FILE" as idf_fs
  component "mdns + lwip socket" as idf_net
}

app - -> arduino_h : pinMode / digitalWrite / delay / millis
app - -> wire_h : Wire.begin(), tx/rx
app - -> wifi_h : WiFi.mode(), WiFi.begin(), WiFi.status()
app - -> web_h : server.on(), request->send()
app - -> fs_h : SPIFFS.open(), Dir
app - -> net_h : MDNS.update(), ArduinoOTA.handle(), dnsServer.processNextRequest()

pwm - -> wifi_h
i2c_clients - -> wire_h

arduino_h - -> compat_cpp
wire_h - -> wire_cpp
wifi_h - -> compat_cpp
fs_h - -> compat_cpp
net_h - -> compat_cpp
web_h - -> web_cpp

compat_cpp - -> idf_gpio : gpio_config / gpio_set_level / gpio_get_level
compat_cpp - -> idf_time : esp_timer_get_time / vTaskDelay
compat_cpp - -> idf_uart : uart_driver_install / uart_write_bytes
compat_cpp - -> idf_wifi : esp_wifi_* / esp_netif_*
compat_cpp - -> idf_fs : esp_vfs_spiffs_register / fopen
compat_cpp - -> idf_net : mdns_* / UDP socket recvfrom/sendto

wire_cpp - -> idf_i2c : i2c_new_master_bus\ni2c_master_transmit/receive/probe
web_cpp - -> idf_http : httpd_start\nhttpd_register_uri_handler

note right of compat_cpp
  互換ポリシー:
  - 必要最小APIのみ実装
  - 一部APIはスタブ/No-op
  - 完全なArduino互換は目的外
  - yield() = taskYIELD() (vTaskDelay(1) 非推奨)
end note

note right of wire_cpp
  スレッド安全:
  - 再帰 Mutex (xSemaphoreCreateRecursiveMutex)
  - beginTransmission/endTransmission/requestFrom で自動ロック
  - tw.h の lockBus/unlockBus と組み合わせて
    複数タスクからの安全な I2C アクセスを実現
  - shell_i2c_bridge はキュー不要で直接呼び出し可能
end note

note bottom of app
  gbs_control.cpp では digitalRead を
  直接 gpio_get_level に再定義して高速化
  (#undef/#define digitalRead)
end note

}

@enduml

PlantUML version 1.2020.02(Sun Mar 01 19:22:07 JST 2020)
(GPL source distribution)
Java Runtime: OpenJDK Runtime Environment
JVM: OpenJDK 64-Bit Server VM
Java Version: 21.0.10+7-Debian-1deb13u1
Operating System: Linux
Default Encoding: UTF-8
Language: ja
Country: JP
--></g></svg>