<?xml version="1.0" encoding="UTF-8" standalone="no"?><svg xmlns="http://www.w3.org/2000/svg" xmlns:xlink="http://www.w3.org/1999/xlink" contentScriptType="application/ecmascript" contentStyleType="text/css" height="1204px" preserveAspectRatio="none" style="width:2221px;height:1204px;" version="1.1" viewBox="0 0 2221 1204" width="2221px" zoomAndPan="magnify"><defs/><g><text fill="#000000" font-family="Noto Sans CJK JP" font-size="18" lengthAdjust="spacingAndGlyphs" textLength="394" x="919.5" y="20.8799">gbs-control-esp 全体フロー（esp-idf ブランチ）</text><!--MD5=[cbc0be2e139dd15b0007deace4fc5f27]
cluster  --><polygon fill="#FFFFFF" points="22,50.0638,31,50.0638,38,76.3357,2199,76.3357,2199,1192.0638,22,1192.0638,22,50.0638" style="stroke: #FFFFFF; stroke-width: 1.5;"/><line style="stroke: #FFFFFF; stroke-width: 1.5;" x1="22" x2="38" y1="76.3357" y2="76.3357"/><text fill="#FFFFFF" font-family="Noto Sans CJK JP" font-size="14" font-weight="bold" lengthAdjust="spacingAndGlyphs" textLength="0" x="29" y="68.3038"/><!--MD5=[a4f7159b2453b397dcb9d5c4aba3b909]
cluster ESP-IDF Runtime--><polygon fill="#FFFFFF" points="987,97.0638,1111,97.0638,1118,123.3357,1227,123.3357,1227,375.0638,987,375.0638,987,97.0638" style="stroke: #000000; stroke-width: 1.5;"/><line style="stroke: #000000; stroke-width: 1.5;" x1="987" x2="1118" y1="123.3357" y2="123.3357"/><text fill="#000000" font-family="Noto Sans CJK JP" font-size="14" font-weight="bold" lengthAdjust="spacingAndGlyphs" textLength="118" x="991" y="115.3038">ESP-IDF Runtime</text><!--MD5=[5fe1fd1079eca77adc238734e46a2ded]
cluster gbs_control component--><polygon fill="#FFFFFF" points="651,446.0638,822,446.0638,829,472.3357,1505,472.3357,1505,1000.0638,651,1000.0638,651,446.0638" style="stroke: #000000; stroke-width: 1.5;"/><line style="stroke: #000000; stroke-width: 1.5;" x1="651" x2="829" y1="472.3357" y2="472.3357"/><text fill="#000000" font-family="Noto Sans CJK JP" font-size="14" font-weight="bold" lengthAdjust="spacingAndGlyphs" textLength="165" x="655" y="464.3038">gbs_control component</text><!--MD5=[53c58219f3dc5fdc2978b1bf2203c8e8]
cluster shell + ble_serial--><polygon fill="#FFFFFF" points="1626,435.5638,1744,435.5638,1751,461.8357,1921,461.8357,1921,781.0638,1626,781.0638,1626,435.5638" style="stroke: #000000; stroke-width: 1.5;"/><line style="stroke: #000000; stroke-width: 1.5;" x1="1626" x2="1751" y1="461.8357" y2="461.8357"/><text fill="#000000" font-family="Noto Sans CJK JP" font-size="14" font-weight="bold" lengthAdjust="spacingAndGlyphs" textLength="112" x="1630" y="453.8038">shell + ble_serial</text><!--MD5=[5512aa1a5911a4305167816cfa7e2b1a]
cluster Peripherals / Storage--><polygon fill="#FFFFFF" points="46,1052.0638,195,1052.0638,202,1078.3357,1039,1078.3357,1039,1168.0638,46,1168.0638,46,1052.0638" style="stroke: #000000; stroke-width: 1.5;"/><line style="stroke: #000000; stroke-width: 1.5;" x1="46" x2="202" y1="1078.3357" y2="1078.3357"/><text fill="#000000" font-family="Noto Sans CJK JP" font-size="14" font-weight="bold" lengthAdjust="spacingAndGlyphs" textLength="143" x="50" y="1070.3038">Peripherals / Storage</text><!--MD5=[8fc3522a43f8c7199df5e09e5bb0188e]
entity user--><ellipse cx="1613" cy="135.0638" fill="#FEFECE" rx="8" ry="8" style="stroke: #A80036; stroke-width: 1.5;"/><path d="M1613,143.0638 L1613,170.0638 M1600,151.0638 L1626,151.0638 M1613,170.0638 L1600,185.0638 M1613,170.0638 L1626,185.0638 " fill="none" style="stroke: #A80036; stroke-width: 1.5;"/><text fill="#000000" font-family="Noto Sans CJK JP" font-size="14" lengthAdjust="spacingAndGlyphs" textLength="30" x="1598" y="203.8038">User</text><!--MD5=[23555a4f9c8a267cdfd801ad53ceaf15]
entity browser--><ellipse cx="1564" cy="473.5638" fill="#FEFECE" rx="8" ry="8" style="stroke: #A80036; stroke-width: 1.5;"/><path d="M1564,481.5638 L1564,508.5638 M1551,489.5638 L1577,489.5638 M1564,508.5638 L1551,523.5638 M1564,508.5638 L1577,523.5638 " fill="none" style="stroke: #A80036; stroke-width: 1.5;"/><text fill="#000000" font-family="Noto Sans CJK JP" font-size="14" lengthAdjust="spacingAndGlyphs" textLength="85" x="1521.5" y="542.3038">Web Browser</text><!--MD5=[62548c4d3a18da1b5712df35db6e7fa9]
entity bleclient--><ellipse cx="1807" cy="297.0638" fill="#FEFECE" rx="8" ry="8" style="stroke: #A80036; stroke-width: 1.5;"/><path d="M1807,305.0638 L1807,332.0638 M1794,313.0638 L1820,313.0638 M1807,332.0638 L1794,347.0638 M1807,332.0638 L1820,347.0638 " fill="none" style="stroke: #A80036; stroke-width: 1.5;"/><text fill="#000000" font-family="Noto Sans CJK JP" font-size="14" lengthAdjust="spacingAndGlyphs" textLength="67" x="1773.5" y="365.8038">BLE Client</text><path d="M1937,645.0638 L1937,824.48 L2183,824.48 L2183,655.0638 L2173,645.0638 L1937,645.0638 " fill="#FBFB77" style="stroke: #A80036; stroke-width: 1.0;"/><path d="M2173,645.0638 L2173,655.0638 L2183,655.0638 L2173,645.0638 " fill="#FBFB77" style="stroke: #A80036; stroke-width: 1.0;"/><text fill="#000000" font-family="Noto Sans CJK JP" font-size="13" lengthAdjust="spacingAndGlyphs" textLength="147" x="1943" y="665.1439">実行ループでの主要順序:</text><text fill="#000000" font-family="Noto Sans CJK JP" font-size="13" lengthAdjust="spacingAndGlyphs" textLength="92" x="1943" y="683.9679">1) OLED/UI更新</text><text fill="#000000" font-family="Noto Sans CJK JP" font-size="13" lengthAdjust="spacingAndGlyphs" textLength="90" x="1943" y="702.7919">2) handleWiFi()</text><text fill="#000000" font-family="Noto Sans CJK JP" font-size="13" lengthAdjust="spacingAndGlyphs" textLength="123" x="1943" y="721.6159">3) コマンド受付/実行</text><text fill="#000000" font-family="Noto Sans CJK JP" font-size="13" lengthAdjust="spacingAndGlyphs" textLength="198" x="1943" y="740.4399">4) sync watcher + レジスタ最適化</text><text fill="#000000" font-family="Noto Sans CJK JP" font-size="13" lengthAdjust="spacingAndGlyphs" textLength="0" x="1946" y="759.2639"/><text fill="#000000" font-family="Noto Sans CJK JP" font-size="13" lengthAdjust="spacingAndGlyphs" textLength="187" x="1943" y="778.0879">yield() = taskYIELD() に修正済み</text><text fill="#000000" font-family="Noto Sans CJK JP" font-size="13" lengthAdjust="spacingAndGlyphs" textLength="220" x="1943" y="796.912">(vTaskDelay(1) は clock gen ループで</text><text fill="#000000" font-family="Noto Sans CJK JP" font-size="13" lengthAdjust="spacingAndGlyphs" textLength="222" x="1946" y="815.736">750ms+ の遅延を発生させるため不可)</text><path d="M1058,1069.5638 L1058,1117.5638 L1023.03,1121.5638 L1058,1125.5638 L1058,1173.6839 A0,0 0 0 0 1058,1173.6839 L1352,1173.6839 A0,0 0 0 0 1352,1173.6839 L1352,1079.5638 L1342,1069.5638 L1058,1069.5638 A0,0 0 0 0 1058,1069.5638 " fill="#FBFB77" style="stroke: #A80036; stroke-width: 1.0;"/><path d="M1342,1069.5638 L1342,1079.5638 L1352,1079.5638 L1342,1069.5638 " fill="#FBFB77" style="stroke: #A80036; stroke-width: 1.0;"/><text fill="#000000" font-family="Noto Sans CJK JP" font-size="13" lengthAdjust="spacingAndGlyphs" textLength="78" x="1064" y="1089.6439">I2C 排他制御:</text><text fill="#000000" font-family="Noto Sans CJK JP" font-size="13" lengthAdjust="spacingAndGlyphs" textLength="190" x="1064" y="1108.4679">Wire に再帰 Mutex を実装済み。</text><text fill="#000000" font-family="Noto Sans CJK JP" font-size="13" lengthAdjust="spacingAndGlyphs" textLength="181" x="1064" y="1127.2919">tw.h の lockBus/unlockBus が</text><text fill="#000000" font-family="Noto Sans CJK JP" font-size="13" lengthAdjust="spacingAndGlyphs" textLength="273" x="1064" y="1146.1159">segment切替とアクセスをアトミックに保護。</text><text fill="#000000" font-family="Noto Sans CJK JP" font-size="13" lengthAdjust="spacingAndGlyphs" textLength="234" x="1064" y="1164.9399">複数タスクからの同時アクセスに安全。</text><!--MD5=[bb6e7df1181211101974e0c98ca18f10]
entity app_main--><rect fill="#FEFECE" height="60.5438" style="stroke: #A80036; stroke-width: 1.5;" width="122" x="1077" y="136.0638"/><rect fill="#FEFECE" height="5" style="stroke: #A80036; stroke-width: 1.5;" width="10" x="1072" y="141.0638"/><rect fill="#FEFECE" height="5" style="stroke: #A80036; stroke-width: 1.5;" width="10" x="1072" y="186.6077"/><text fill="#000000" font-family="Noto Sans CJK JP" font-size="14" lengthAdjust="spacingAndGlyphs" textLength="102" x="1087" y="162.3038">main/main.cpp</text><text fill="#000000" font-family="Noto Sans CJK JP" font-size="14" lengthAdjust="spacingAndGlyphs" textLength="78" x="1087" y="182.5757">app_main()</text><!--MD5=[f63e3aa9e56232f4cd858b55a0096e29]
entity gbs_task--><rect fill="#FEFECE" height="60.5438" style="stroke: #A80036; stroke-width: 1.5;" width="207" x="1003.5" y="298.0638"/><rect fill="#FEFECE" height="5" style="stroke: #A80036; stroke-width: 1.5;" width="10" x="998.5" y="303.0638"/><rect fill="#FEFECE" height="5" style="stroke: #A80036; stroke-width: 1.5;" width="10" x="998.5" y="348.6077"/><text fill="#000000" font-family="Noto Sans CJK JP" font-size="14" lengthAdjust="spacingAndGlyphs" textLength="70" x="1013.5" y="324.3038">gbs_task()</text><text fill="#000000" font-family="Noto Sans CJK JP" font-size="14" lengthAdjust="spacingAndGlyphs" textLength="187" x="1013.5" y="344.5757">(FreeRTOS task, 16 KB stack)</text><!--MD5=[179fc153c76999af38ad3df6aab624a4]
entity gbs_setup--><rect fill="#FEFECE" height="40.2719" style="stroke: #A80036; stroke-width: 1.5;" width="100" x="667" y="485.0638"/><rect fill="#FEFECE" height="5" style="stroke: #A80036; stroke-width: 1.5;" width="10" x="662" y="490.0638"/><rect fill="#FEFECE" height="5" style="stroke: #A80036; stroke-width: 1.5;" width="10" x="662" y="515.3357"/><text fill="#000000" font-family="Noto Sans CJK JP" font-size="14" lengthAdjust="spacingAndGlyphs" textLength="80" x="677" y="511.3038">gbs_setup()</text><!--MD5=[d1f4e74f5ca1717ca1ea858728cf5081]
entity gbs_loop--><rect fill="#FEFECE" height="40.2719" style="stroke: #A80036; stroke-width: 1.5;" width="91" x="1061.5" y="714.5638"/><rect fill="#FEFECE" height="5" style="stroke: #A80036; stroke-width: 1.5;" width="10" x="1056.5" y="719.5638"/><rect fill="#FEFECE" height="5" style="stroke: #A80036; stroke-width: 1.5;" width="10" x="1056.5" y="744.8357"/><text fill="#000000" font-family="Noto Sans CJK JP" font-size="14" lengthAdjust="spacingAndGlyphs" textLength="71" x="1071.5" y="740.8038">gbs_loop()</text><!--MD5=[08af8945a84acfe1eabc0963aa87c412]
entity web--><rect fill="#FEFECE" height="60.5438" style="stroke: #A80036; stroke-width: 1.5;" width="139" x="667.5" y="704.0638"/><rect fill="#FEFECE" height="5" style="stroke: #A80036; stroke-width: 1.5;" width="10" x="662.5" y="709.0638"/><rect fill="#FEFECE" height="5" style="stroke: #A80036; stroke-width: 1.5;" width="10" x="662.5" y="754.6077"/><text fill="#000000" font-family="Noto Sans CJK JP" font-size="14" lengthAdjust="spacingAndGlyphs" textLength="109" x="677.5" y="730.3038">startWebserver()</text><text fill="#000000" font-family="Noto Sans CJK JP" font-size="14" lengthAdjust="spacingAndGlyphs" textLength="119" x="677.5" y="750.5757">HTTP / WebSocket</text><!--MD5=[40e3a1898867be20c4aacfe340ab9403]
entity wifi--><rect fill="#FEFECE" height="60.5438" style="stroke: #A80036; stroke-width: 1.5;" width="184" x="783" y="923.0638"/><rect fill="#FEFECE" height="5" style="stroke: #A80036; stroke-width: 1.5;" width="10" x="778" y="928.0638"/><rect fill="#FEFECE" height="5" style="stroke: #A80036; stroke-width: 1.5;" width="10" x="778" y="973.6077"/><text fill="#000000" font-family="Noto Sans CJK JP" font-size="14" lengthAdjust="spacingAndGlyphs" textLength="85" x="793" y="949.3038">handleWiFi()</text><text fill="#000000" font-family="Noto Sans CJK JP" font-size="14" lengthAdjust="spacingAndGlyphs" textLength="164" x="793" y="969.5757">mDNS/DNS/OTA/WS ping</text><!--MD5=[8b44882b8e17850e01b1ad5c18eac763]
entity sync--><rect fill="#FEFECE" height="60.5438" style="stroke: #A80036; stroke-width: 1.5;" width="213" x="1002.5" y="923.0638"/><rect fill="#FEFECE" height="5" style="stroke: #A80036; stroke-width: 1.5;" width="10" x="997.5" y="928.0638"/><rect fill="#FEFECE" height="5" style="stroke: #A80036; stroke-width: 1.5;" width="10" x="997.5" y="973.6077"/><text fill="#000000" font-family="Noto Sans CJK JP" font-size="14" lengthAdjust="spacingAndGlyphs" textLength="118" x="1012.5" y="949.3038">runSyncWatcher()</text><text fill="#000000" font-family="Noto Sans CJK JP" font-size="14" lengthAdjust="spacingAndGlyphs" textLength="193" x="1012.5" y="969.5757">mode detect + applyPresets()</text><!--MD5=[f04bcface800b3498ac77214835b90cd]
entity cmd--><rect fill="#FEFECE" height="60.5438" style="stroke: #A80036; stroke-width: 1.5;" width="238" x="1251" y="923.0638"/><rect fill="#FEFECE" height="5" style="stroke: #A80036; stroke-width: 1.5;" width="10" x="1246" y="928.0638"/><rect fill="#FEFECE" height="5" style="stroke: #A80036; stroke-width: 1.5;" width="10" x="1246" y="973.6077"/><text fill="#000000" font-family="Noto Sans CJK JP" font-size="14" lengthAdjust="spacingAndGlyphs" textLength="181" x="1261" y="949.3038">Serial command dispatcher</text><text fill="#000000" font-family="Noto Sans CJK JP" font-size="14" lengthAdjust="spacingAndGlyphs" textLength="218" x="1261" y="969.5757">(serialCommand/userCommand)</text><!--MD5=[90bd7bfaf115c178cab719a530508b90]
entity shell--><rect fill="#FEFECE" height="40.2719" style="stroke: #A80036; stroke-width: 1.5;" width="92" x="1642" y="485.0638"/><rect fill="#FEFECE" height="5" style="stroke: #A80036; stroke-width: 1.5;" width="10" x="1637" y="490.0638"/><rect fill="#FEFECE" height="5" style="stroke: #A80036; stroke-width: 1.5;" width="10" x="1637" y="515.3357"/><text fill="#000000" font-family="Noto Sans CJK JP" font-size="14" lengthAdjust="spacingAndGlyphs" textLength="72" x="1652" y="511.3038">shell_init()</text><!--MD5=[356b21d33ae4bbe89a0e9541f25b232f]
entity ble--><rect fill="#FEFECE" height="60.5438" style="stroke: #A80036; stroke-width: 1.5;" width="135" x="1769.5" y="474.5638"/><rect fill="#FEFECE" height="5" style="stroke: #A80036; stroke-width: 1.5;" width="10" x="1764.5" y="479.5638"/><rect fill="#FEFECE" height="5" style="stroke: #A80036; stroke-width: 1.5;" width="10" x="1764.5" y="525.1077"/><text fill="#000000" font-family="Noto Sans CJK JP" font-size="14" lengthAdjust="spacingAndGlyphs" textLength="105" x="1779.5" y="500.8038">ble_serial_init()</text><text fill="#000000" font-family="Noto Sans CJK JP" font-size="14" lengthAdjust="spacingAndGlyphs" textLength="115" x="1779.5" y="521.0757">NUS GATT service</text><!--MD5=[571539a19b26ae2a4a45371a0cee1373]
entity shelltask--><rect fill="#FEFECE" height="60.5438" style="stroke: #A80036; stroke-width: 1.5;" width="164" x="1693" y="704.0638"/><rect fill="#FEFECE" height="5" style="stroke: #A80036; stroke-width: 1.5;" width="10" x="1688" y="709.0638"/><rect fill="#FEFECE" height="5" style="stroke: #A80036; stroke-width: 1.5;" width="10" x="1688" y="754.6077"/><text fill="#000000" font-family="Noto Sans CJK JP" font-size="14" lengthAdjust="spacingAndGlyphs" textLength="144" x="1703" y="730.3038">shell_ble_cmd_task()</text><text fill="#000000" font-family="Noto Sans CJK JP" font-size="14" lengthAdjust="spacingAndGlyphs" textLength="136" x="1703" y="750.5757">process_command()</text><!--MD5=[de382f5d3145b057fc4301680716463e]
entity gbschip--><rect fill="#FEFECE" height="60.5438" style="stroke: #A80036; stroke-width: 1.5;" width="212" x="811" y="1091.0638"/><rect fill="#FEFECE" height="5" style="stroke: #A80036; stroke-width: 1.5;" width="10" x="806" y="1096.0638"/><rect fill="#FEFECE" height="5" style="stroke: #A80036; stroke-width: 1.5;" width="10" x="806" y="1141.6077"/><text fill="#000000" font-family="Noto Sans CJK JP" font-size="14" lengthAdjust="spacingAndGlyphs" textLength="93" x="821" y="1117.3038">GBS8200 (I2C)</text><text fill="#000000" font-family="Noto Sans CJK JP" font-size="14" lengthAdjust="spacingAndGlyphs" textLength="192" x="821" y="1137.5757">tw.h lockBus/GBS::read/write</text><!--MD5=[a69d669ad8f1a4b6f2e8a2047d54bfc3]
entity oled--><rect fill="#FEFECE" height="60.5438" style="stroke: #A80036; stroke-width: 1.5;" width="344" x="62" y="1091.0638"/><rect fill="#FEFECE" height="5" style="stroke: #A80036; stroke-width: 1.5;" width="10" x="57" y="1096.0638"/><rect fill="#FEFECE" height="5" style="stroke: #A80036; stroke-width: 1.5;" width="10" x="57" y="1141.6077"/><text fill="#000000" font-family="Noto Sans CJK JP" font-size="14" lengthAdjust="spacingAndGlyphs" textLength="149" x="72" y="1117.3038">OLED + Rotary Encoder</text><text fill="#000000" font-family="Noto Sans CJK JP" font-size="14" lengthAdjust="spacingAndGlyphs" textLength="324" x="72" y="1137.5757">(PINCFG_USE_ROTARY_ENCODER=0: encoder off)</text><!--MD5=[ad4229f7d83ce039522f500d4650787f]
entity spiffs--><rect fill="#FEFECE" height="60.5438" style="stroke: #A80036; stroke-width: 1.5;" width="141" x="441.5" y="1091.0638"/><rect fill="#FEFECE" height="5" style="stroke: #A80036; stroke-width: 1.5;" width="10" x="436.5" y="1096.0638"/><rect fill="#FEFECE" height="5" style="stroke: #A80036; stroke-width: 1.5;" width="10" x="436.5" y="1141.6077"/><text fill="#000000" font-family="Noto Sans CJK JP" font-size="14" lengthAdjust="spacingAndGlyphs" textLength="45" x="451.5" y="1117.3038">SPIFFS</text><text fill="#000000" font-family="Noto Sans CJK JP" font-size="14" lengthAdjust="spacingAndGlyphs" textLength="121" x="451.5" y="1137.5757">preferences / slots</text><!--MD5=[162363f673e316b906fa47750e3cf30b]
entity wlan--><rect fill="#FEFECE" height="40.2719" style="stroke: #A80036; stroke-width: 1.5;" width="159" x="617.5" y="1101.5638"/><rect fill="#FEFECE" height="5" style="stroke: #A80036; stroke-width: 1.5;" width="10" x="612.5" y="1106.5638"/><rect fill="#FEFECE" height="5" style="stroke: #A80036; stroke-width: 1.5;" width="10" x="612.5" y="1131.8357"/><text fill="#000000" font-family="Noto Sans CJK JP" font-size="14" lengthAdjust="spacingAndGlyphs" textLength="139" x="627.5" y="1127.8038">Wi-Fi STA/AP + mDNS</text><!--MD5=[42320de4a0acaa05f7111737c8640c0a]
link user to browser--><path d="M1607.14,207.8238 C1597.94,270.9838 1580.18,392.9538 1570.57,458.9838 " fill="none" id="user-&gt;browser" style="stroke: #2D3748; stroke-width: 1.0;"/><polygon fill="#2D3748" points="1569.83,464.0238,1575.0761,455.6885,1570.5451,459.0752,1567.1583,454.5443,1569.83,464.0238" style="stroke: #2D3748; stroke-width: 1.0;"/><text fill="#000000" font-family="Noto Sans CJK JP" font-size="13" lengthAdjust="spacingAndGlyphs" textLength="85" x="1595" y="334.6439">HTTPアクセス</text><!--MD5=[a866ad135f1f56fc376fb1d3db47cbf4]
link user to bleclient--><path d="M1628.22,180.1138 C1658.34,204.9538 1726.3,261.0138 1769.22,296.4038 " fill="none" id="user-&gt;bleclient" style="stroke: #2D3748; stroke-width: 1.0;"/><polygon fill="#2D3748" points="1773.29,299.7638,1768.898,290.9485,1769.4349,296.5798,1763.8036,297.1167,1773.29,299.7638" style="stroke: #2D3748; stroke-width: 1.0;"/><text fill="#000000" font-family="Noto Sans CJK JP" font-size="13" lengthAdjust="spacingAndGlyphs" textLength="89" x="1722" y="253.6439">BLEシェル接続</text><!--MD5=[910a9c4fd331cbf66b5ed7b7bf970afd]
link app_main to shell--><path d="M1173.38,197.3038 C1186.92,209.2938 1202.18,223.5838 1215,237.5638 C1269.98,297.5038 1265.15,329.0938 1326,383.0638 C1349.92,404.2838 1357.29,410.6638 1388,419.5638 C1414.69,427.2938 1613.77,413.9538 1638,427.5638 C1658.1,438.8638 1671.5,461.9838 1679.32,479.8738 " fill="none" id="app_main-&gt;shell" style="stroke: #2D3748; stroke-width: 1.0;"/><polygon fill="#2D3748" points="1681.38,484.7638,1681.574,474.9169,1679.4397,480.1557,1674.2009,478.0213,1681.38,484.7638" style="stroke: #2D3748; stroke-width: 1.0;"/><text fill="#000000" font-family="Noto Sans CJK JP" font-size="13" lengthAdjust="spacingAndGlyphs" textLength="65" x="1327" y="334.6439">shell_init()</text><!--MD5=[4552bf73a278303852769c6c72819342]
link app_main to gbs_task--><path d="M1132.24,197.2838 C1127,224.3338 1119.26,264.2938 1113.73,292.8138 " fill="none" id="app_main-&gt;gbs_task" style="stroke: #2D3748; stroke-width: 1.0;"/><polygon fill="#2D3748" points="1112.73,298.0038,1118.3542,289.9187,1113.6721,293.0934,1110.4975,288.4114,1112.73,298.0038" style="stroke: #2D3748; stroke-width: 1.0;"/><text fill="#000000" font-family="Noto Sans CJK JP" font-size="13" lengthAdjust="spacingAndGlyphs" textLength="81" x="1125" y="253.6439">xTaskCreate()</text><!--MD5=[b1d8c7c0ae2f0e74afd89ac55a1f92ac]
link gbs_task to gbs_setup--><path d="M1040.84,359.1638 C962.42,394.2538 833.69,451.8538 764.51,482.8038 " fill="none" id="gbs_task-&gt;gbs_setup" style="stroke: #2D3748; stroke-width: 1.0;"/><polygon fill="#2D3748" points="759.63,484.9838,769.4788,484.9524,764.1925,482.9386,766.2064,477.6523,759.63,484.9838" style="stroke: #2D3748; stroke-width: 1.0;"/><text fill="#000000" font-family="Noto Sans CJK JP" font-size="13" lengthAdjust="spacingAndGlyphs" textLength="72" x="947" y="415.6439">1回だけ実行</text><!--MD5=[93898f062db32f01ed6d94c1a0886cf7]
link gbs_setup to web--><path d="M718.67,525.0738 C722.03,563.2938 729.65,649.9838 733.93,698.6838 " fill="none" id="gbs_setup-&gt;web" style="stroke: #2D3748; stroke-width: 1.0;"/><polygon fill="#2D3748" points="734.39,703.8538,737.5757,694.5344,733.9464,698.8736,729.6072,695.2443,734.39,703.8538" style="stroke: #2D3748; stroke-width: 1.0;"/><text fill="#000000" font-family="Noto Sans CJK JP" font-size="13" lengthAdjust="spacingAndGlyphs" textLength="99" x="727" y="601.6439">startWebserver()</text><!--MD5=[3b367aa0baafd334da15525a10d1aecc]
link gbs_setup to spiffs--><path d="M666.96,523.8538 C609.24,546.0538 513.51,588.1138 445,645.0638 C338.01,733.9938 340.99,784.4938 254,893.0638 C243.15,906.6038 234.91,906.7438 229,923.0638 C211.46,971.5238 208.26,1014.3538 255,1036.0638 C289.1,1051.9038 389.1,1030.0638 424,1044.0638 C446.88,1053.2438 467.91,1071.0038 483.67,1087.1038 " fill="none" id="gbs_setup-&gt;spiffs" style="stroke: #2D3748; stroke-width: 1.0;"/><polygon fill="#2D3748" points="487.15,1090.7238,483.7822,1081.4687,483.6793,1087.1246,478.0234,1087.0218,487.15,1090.7238" style="stroke: #2D3748; stroke-width: 1.0;"/><text fill="#000000" font-family="Noto Sans CJK JP" font-size="13" lengthAdjust="spacingAndGlyphs" textLength="88" x="284" y="870.1439">SPIFFS.begin()</text><text fill="#000000" font-family="Noto Sans CJK JP" font-size="13" lengthAdjust="spacingAndGlyphs" textLength="83" x="286.5" y="888.9679">設定読込/保存</text><!--MD5=[d846b57082dc95aaa6873b11e76546be]
link gbs_setup to gbschip--><path d="M698.29,525.1838 C619.89,606.3538 325.27,922.0938 401,1008.0638 C458.97,1073.8738 710.25,1018.0338 794,1044.0638 C823.84,1053.3338 853.69,1071.6338 876.52,1088.0038 " fill="none" id="gbs_setup-&gt;gbschip" style="stroke: #2D3748; stroke-width: 1.0;"/><polygon fill="#2D3748" points="880.69,1091.0438,875.7533,1082.5215,876.6426,1088.1081,871.0561,1088.9973,880.69,1091.0438" style="stroke: #2D3748; stroke-width: 1.0;"/><text fill="#000000" font-family="Noto Sans CJK JP" font-size="13" lengthAdjust="spacingAndGlyphs" textLength="180" x="431" y="879.6439">startWire() + 初期レジスタ設定</text><!--MD5=[bfdca8f153686d51290b0884c8f6b17e]
link gbs_setup to oled--><path d="M666.86,512.6938 C533.6,533.4738 173.48,611.1738 66,854.0638 C26.15,944.1138 125.45,1039.3238 187.89,1087.8838 " fill="none" id="gbs_setup-&gt;oled" style="stroke: #2D3748; stroke-width: 1.0;"/><polygon fill="#2D3748" points="191.94,1091.0138,187.2482,1082.3543,187.9779,1087.9639,182.3683,1088.6936,191.94,1091.0138" style="stroke: #2D3748; stroke-width: 1.0;"/><text fill="#000000" font-family="Noto Sans CJK JP" font-size="13" lengthAdjust="spacingAndGlyphs" textLength="77" x="117.5" y="870.1439">display.init()</text><text fill="#000000" font-family="Noto Sans CJK JP" font-size="13" lengthAdjust="spacingAndGlyphs" textLength="178" x="67" y="888.9679">encoder ISR attach (条件付き)</text><!--MD5=[c142ffc5a19c9d4599bc57f23f877cc4]
link gbs_task to gbs_loop--><path d="M1083.61,359.4038 C1070.64,377.8938 1055.79,402.7738 1049,427.5638 C1020.72,530.8838 1070.94,657.5438 1095.1,709.5438 " fill="none" id="gbs_task-&gt;gbs_loop" style="stroke: #2D3748; stroke-width: 1.0;"/><polygon fill="#2D3748" points="1097.36,714.3438,1097.1516,704.4972,1095.2331,709.8188,1089.9115,707.9003,1097.36,714.3438" style="stroke: #2D3748; stroke-width: 1.0;"/><text fill="#000000" font-family="Noto Sans CJK JP" font-size="13" lengthAdjust="spacingAndGlyphs" textLength="66" x="1050" y="511.1439">while(true)</text><!--MD5=[6c5e4abe3adcf5726837e07dd96ac62a]
link gbs_loop to wifi--><path d="M1061.21,750.9338 C1005.48,769.3938 908.36,800.7838 824,824.0638 C768.93,839.2638 734.37,809.1938 699,854.0638 C688.27,867.6738 688.89,878.9838 699,893.0638 C704.35,900.5238 739.78,913.1238 777.45,924.8138 " fill="none" id="gbs_loop-&gt;wifi" style="stroke: #2D3748; stroke-width: 1.0;"/><polygon fill="#2D3748" points="782.54,926.3838,775.1184,919.9093,777.762,924.9104,772.7609,927.554,782.54,926.3838" style="stroke: #2D3748; stroke-width: 1.0;"/><text fill="#000000" font-family="Noto Sans CJK JP" font-size="13" lengthAdjust="spacingAndGlyphs" textLength="83" x="700" y="879.6439">handleWiFi(0)</text><!--MD5=[febe2fc4448d7ff57da2d182088fee31]
link gbs_loop to sync--><path d="M1105.87,754.9738 C1104.31,784.7038 1101.91,843.3338 1104,893.0638 C1104.34,901.1238 1104.93,909.7838 1105.6,917.9338 " fill="none" id="gbs_loop-&gt;sync" style="stroke: #2D3748; stroke-width: 1.0;"/><polygon fill="#2D3748" points="1106.02,922.9338,1109.2345,913.6243,1105.5918,917.9522,1101.2639,914.3095,1106.02,922.9338" style="stroke: #2D3748; stroke-width: 1.0;"/><text fill="#000000" font-family="Noto Sans CJK JP" font-size="13" lengthAdjust="spacingAndGlyphs" textLength="109" x="1105" y="879.6439">runSyncWatcher()</text><!--MD5=[eb1235d980bb96cf59b6faf36f4e2182]
link gbs_loop to cmd--><path d="M1125.31,754.7938 C1147.54,778.1838 1186.15,818.8938 1219,854.0638 C1235.1,871.3038 1236.24,878.7638 1255,893.0638 C1268.28,903.1938 1283.55,912.4538 1298.52,920.5038 " fill="none" id="gbs_loop-&gt;cmd" style="stroke: #2D3748; stroke-width: 1.0;"/><polygon fill="#2D3748" points="1303.15,922.9538,1297.0652,915.2095,1298.7304,920.6157,1293.3242,922.2809,1303.15,922.9538" style="stroke: #2D3748; stroke-width: 1.0;"/><text fill="#000000" font-family="Noto Sans CJK JP" font-size="13" lengthAdjust="spacingAndGlyphs" textLength="229" x="1256" y="879.6439">serialCommand/userCommandを処理</text><!--MD5=[8139a071df623c2eb86a8d864bf4df55]
link gbs_loop to gbschip--><path d="M1061.31,751.3038 C1005.67,770.1238 908.65,801.8738 824,824.0638 C762.02,840.3138 738.47,821.9938 683,854.0638 C647.31,874.7038 635.76,884.5638 621,923.0638 C607.48,958.3438 597.16,978.7538 621,1008.0638 C670.55,1068.9938 721.09,1014.8738 794,1044.0638 C821.91,1055.2338 850.58,1072.6638 873.21,1088.0538 " fill="none" id="gbs_loop-&gt;gbschip" style="stroke: #2D3748; stroke-width: 1.0;"/><polygon fill="#2D3748" points="877.37,1090.9038,872.2062,1082.5172,873.2452,1088.0779,867.6846,1089.1169,877.37,1090.9038" style="stroke: #2D3748; stroke-width: 1.0;"/><text fill="#000000" font-family="Noto Sans CJK JP" font-size="13" lengthAdjust="spacingAndGlyphs" textLength="143" x="622" y="959.6439">画像処理パラメータ更新</text><!--MD5=[03935ef2adc817331da3cc0923730f46]
link browser to web--><path d="M1521.26,537.7538 C1515.95,540.8638 1510.46,543.7338 1505,546.0638 C1312.28,628.3738 1247.25,594.0138 1044,645.0638 C964.2,665.1038 873.81,691.6338 811.89,710.4038 " fill="none" id="browser-&gt;web" style="stroke: #2D3748; stroke-width: 1.0;"/><polygon fill="#2D3748" points="806.74,711.9738,816.5149,713.1789,811.5232,710.5175,814.1847,705.5258,806.74,711.9738" style="stroke: #2D3748; stroke-width: 1.0;"/><text fill="#000000" font-family="Noto Sans CJK JP" font-size="13" lengthAdjust="spacingAndGlyphs" textLength="136" x="1422" y="601.6439">/sc, /uc, /slot/*, /wifi/*</text><!--MD5=[5da2597235ccfed32f3763cc88af3dbc]
link web to cmd--><path d="M749.69,765.1838 C767.33,802.2838 803.08,864.4638 855,893.0638 C928.81,933.7238 1149.63,910.8338 1233,923.0638 C1237.24,923.6838 1241.54,924.3638 1245.88,925.0838 " fill="none" id="web-&gt;cmd" style="stroke: #2D3748; stroke-width: 1.0;"/><polygon fill="#2D3748" points="1250.99,925.9438,1242.7777,920.5071,1246.0592,925.1149,1241.4514,928.3964,1250.99,925.9438" style="stroke: #2D3748; stroke-width: 1.0;"/><text fill="#000000" font-family="Noto Sans CJK JP" font-size="13" lengthAdjust="spacingAndGlyphs" textLength="238" x="856" y="879.6439">serialCommand / userCommand を設定</text><!--MD5=[bc41b0413d375acb868f48e7d92a71a8]
link web to spiffs--><path d="M667.31,740.5138 C589.54,749.8338 465.3,776.6938 394,854.0638 C381.87,867.2238 396.81,880.5638 384,893.0638 C341.57,934.4838 290.91,876.6638 254,923.0638 C230.48,952.6238 230.21,978.7138 254,1008.0638 C302.63,1068.0638 354.87,1009.6338 424,1044.0638 C445.38,1054.7138 465.75,1071.8038 481.49,1087.1238 " fill="none" id="web-&gt;spiffs" style="stroke: #2D3748; stroke-width: 1.0;"/><polygon fill="#2D3748" points="485.4,1090.9738,481.8088,1081.803,481.8431,1087.4598,476.1864,1087.4941,485.4,1090.9738" style="stroke: #2D3748; stroke-width: 1.0;"/><text fill="#000000" font-family="Noto Sans CJK JP" font-size="13" lengthAdjust="spacingAndGlyphs" textLength="145" x="255" y="959.6439">プリセットslot保存/読込</text><!--MD5=[37aeff31684b6e527e11237cfddd2711]
link web to wlan--><path d="M699.71,765.2438 C674.5,787.2138 642.39,819.2838 623,854.0638 C614.29,869.6938 626.21,880.9938 613,893.0638 C551.5,949.2438 481.98,859.6238 428,923.0638 C403.52,951.8338 404.18,978.7438 428,1008.0638 C477.24,1068.6838 529.24,1011.0038 600,1044.0638 C628.36,1057.3138 655.92,1080.3238 674.36,1097.6538 " fill="none" id="web-&gt;wlan" style="stroke: #2D3748; stroke-width: 1.0;"/><polygon fill="#2D3748" points="678.39,1101.4838,674.6323,1092.38,674.7697,1098.0352,669.1145,1098.1726,678.39,1101.4838" style="stroke: #2D3748; stroke-width: 1.0;"/><text fill="#000000" font-family="Noto Sans CJK JP" font-size="13" lengthAdjust="spacingAndGlyphs" textLength="130" x="429" y="959.6439">接続制御, AP/STA切替</text><!--MD5=[4b2102890bfada3f82a7923ca87be47a]
link bleclient to ble--><path d="M1813.88,369.5938 C1819.06,399.7238 1826.09,440.5838 1831.03,469.3338 " fill="none" id="bleclient-&gt;ble" style="stroke: #2D3748; stroke-width: 1.0;"/><polygon fill="#2D3748" points="1831.93,474.5638,1834.3557,465.0184,1831.0872,469.6354,1826.4701,466.3669,1831.93,474.5638" style="stroke: #2D3748; stroke-width: 1.0;"/><text fill="#000000" font-family="Noto Sans CJK JP" font-size="13" lengthAdjust="spacingAndGlyphs" textLength="78" x="1823" y="415.6439">NUS RX write</text><!--MD5=[76aad970ad2bc30d44d7a202487dbd82]
link ble to shelltask--><path d="M1828.89,535.8038 C1817.45,577.7838 1796.61,654.2638 1784.47,698.8138 " fill="none" id="ble-&gt;shelltask" style="stroke: #2D3748; stroke-width: 1.0;"/><polygon fill="#2D3748" points="1783.11,703.8138,1789.3333,696.1803,1784.4232,698.9894,1781.6141,694.0792,1783.11,703.8138" style="stroke: #2D3748; stroke-width: 1.0;"/><text fill="#000000" font-family="Noto Sans CJK JP" font-size="13" lengthAdjust="spacingAndGlyphs" textLength="115" x="1817" y="592.1439">shell_ble_line_cb()</text><text fill="#000000" font-family="Noto Sans CJK JP" font-size="13" lengthAdjust="spacingAndGlyphs" textLength="64" x="1842.5" y="610.9679">queue投入</text><!--MD5=[4bac04c64d0fee693aed2baf43c908b9]
link shelltask to cmd--><path d="M1693.58,765.0738 C1642.72,785.6838 1577.37,816.2338 1526,854.0638 C1507.01,868.0538 1508.88,878.9238 1490,893.0638 C1476.34,903.2938 1460.64,912.5538 1445.21,920.5538 " fill="none" id="shelltask-&gt;cmd" style="stroke: #2D3748; stroke-width: 1.0;"/><polygon fill="#2D3748" points="1440.43,922.9938,1450.2629,922.4334,1444.8761,920.7065,1446.6031,915.3197,1440.43,922.9938" style="stroke: #2D3748; stroke-width: 1.0;"/><text fill="#000000" font-family="Noto Sans CJK JP" font-size="13" lengthAdjust="spacingAndGlyphs" textLength="238" x="1527" y="879.6439">serialCommand / userCommand を設定</text><!--MD5=[b67ed93310c68b46cac972f757c12b12]
link shelltask to gbschip--><path d="M1782.79,765.1238 C1789.9,799.0938 1795.82,855.0438 1770,893.0638 C1697.87,999.2738 1629.37,976.1838 1505,1008.0638 C1374.42,1041.5338 1337.48,1026.7738 1203,1036.0638 C1163.94,1038.7638 1064.08,1031.5038 1027,1044.0638 C999.74,1053.2938 973.13,1071.4838 952.91,1087.8038 " fill="none" id="shelltask-&gt;gbschip" style="stroke: #2D3748; stroke-width: 1.0;"/><polygon fill="#2D3748" points="948.95,1091.0338,958.447,1088.4248,952.8179,1087.8653,953.3774,1082.2362,948.95,1091.0338" style="stroke: #2D3748; stroke-width: 1.0;"/><text fill="#000000" font-family="Noto Sans CJK JP" font-size="13" lengthAdjust="spacingAndGlyphs" textLength="111" x="1783.5" y="950.1439">dbg reg read/write</text><text fill="#000000" font-family="Noto Sans CJK JP" font-size="13" lengthAdjust="spacingAndGlyphs" textLength="184" x="1747" y="968.9679">(Wire.beginTransmission 直接)</text><!--MD5=[694e8e752115001b990977d89456e89b]
link wifi to wlan--><path d="M843.18,984.2438 C808.2,1016.8638 752.79,1068.5338 721.19,1098.0038 " fill="none" id="wifi-&gt;wlan" style="stroke: #2D3748; stroke-width: 1.0;"/><polygon fill="#2D3748" points="717.46,1101.4838,726.7683,1098.2659,721.1148,1098.0717,721.309,1092.4182,717.46,1101.4838" style="stroke: #2D3748; stroke-width: 1.0;"/><text fill="#000000" font-family="Noto Sans CJK JP" font-size="13" lengthAdjust="spacingAndGlyphs" textLength="151" x="808" y="1032.1439">MDNS.update(), DNS処理</text><!--MD5=[ba63a6e49a7e376fbd1f8e539012f299]
link sync to gbschip--><path d="M1074.67,984.2438 C1041.2,1013.1838 990.36,1057.1338 955.52,1087.2638 " fill="none" id="sync-&gt;gbschip" style="stroke: #2D3748; stroke-width: 1.0;"/><polygon fill="#2D3748" points="951.35,1090.8638,960.7697,1087.9881,955.127,1087.5876,955.5276,1081.9449,951.35,1090.8638" style="stroke: #2D3748; stroke-width: 1.0;"/><text fill="#000000" font-family="Noto Sans CJK JP" font-size="13" lengthAdjust="spacingAndGlyphs" textLength="158" x="1036" y="1032.1439">モード判定, applyPresets()</text><!--MD5=[d6e172db87f530acfd4b4ea6e35015be]
link gbs_loop to GMN50--><path d="M1144.43,714.5038 C1260.78,654.9438 1624.99,489.7338 1903.5,595.5638 C1931.86,606.3438 1958.38,624.8738 1981.22,644.9638 " fill="none" id="gbs_loop-GMN50" style="stroke: #2D3748; stroke-width: 1.0; stroke-dasharray: 7.0,7.0;"/><!--MD5=[efa918c62e2d55a7e2758bc54f13707f]
@startuml
skinparam backgroundColor white
skinparam shadowing false
skinparam defaultFontName Noto Sans CJK JP
skinparam componentStyle rectangle
skinparam ArrowColor #2d3748
skinparam packageStyle rectangle
hide stereotype
skinparam package<<canvas>> {
  BackgroundColor #FFFFFF
  BorderColor #FFFFFF
  FontColor #FFFFFF
}

title gbs-control-esp 全体フロー（esp-idf ブランチ）

package " " <<canvas>> {
actor "User" as user
actor "Web Browser" as browser
actor "BLE Client" as bleclient

package "ESP-IDF Runtime" {
  component "main/main.cpp\napp_main()" as app_main
  component "gbs_task()\n(FreeRTOS task, 16 KB stack)" as gbs_task
}

package "gbs_control component" {
  component "gbs_setup()" as gbs_setup
  component "gbs_loop()" as gbs_loop
  component "startWebserver()\nHTTP / WebSocket" as web
  component "handleWiFi()\nmDNS/DNS/OTA/WS ping" as wifi
  component "runSyncWatcher()\nmode detect + applyPresets()" as sync
  component "Serial command dispatcher\n(serialCommand/userCommand)" as cmd
}

package "shell + ble_serial" {
  component "shell_init()" as shell
  component "ble_serial_init()\nNUS GATT service" as ble
  component "shell_ble_cmd_task()\nprocess_command()" as shelltask
}

package "Peripherals / Storage" {
  component "GBS8200 (I2C)\ntw.h lockBus/GBS::read/write" as gbschip
  component "OLED + Rotary Encoder\n(PINCFG_USE_ROTARY_ENCODER=0: encoder off)" as oled
  component "SPIFFS\npreferences / slots" as spiffs
  component "Wi-Fi STA/AP + mDNS" as wlan
}

user - -> browser : HTTPアクセス
user - -> bleclient : BLEシェル接続

app_main - -> shell : shell_init()
app_main - -> gbs_task : xTaskCreate()

gbs_task - -> gbs_setup : 1回だけ実行

gbs_setup - -> web : startWebserver()
gbs_setup - -> spiffs : SPIFFS.begin()\n設定読込/保存
gbs_setup - -> gbschip : startWire() + 初期レジスタ設定
gbs_setup - -> oled : display.init()\nencoder ISR attach (条件付き)

gbs_task - -> gbs_loop : while(true)
gbs_loop - -> wifi : handleWiFi(0)
gbs_loop - -> sync : runSyncWatcher()
gbs_loop - -> cmd : serialCommand/userCommandを処理
gbs_loop - -> gbschip : 画像処理パラメータ更新

browser - -> web : /sc, /uc, /slot/*, /wifi/*
web - -> cmd : serialCommand / userCommand を設定
web - -> spiffs : プリセットslot保存/読込
web - -> wlan : 接続制御, AP/STA切替

bleclient - -> ble : NUS RX write
ble - -> shelltask : shell_ble_line_cb()\nqueue投入
shelltask - -> cmd : serialCommand / userCommand を設定
shelltask - -> gbschip : dbg reg read/write\n(Wire.beginTransmission 直接)

wifi - -> wlan : MDNS.update(), DNS処理
sync - -> gbschip : モード判定, applyPresets()

note right of gbs_loop
  実行ループでの主要順序:
  1) OLED/UI更新
  2) handleWiFi()
  3) コマンド受付/実行
  4) sync watcher + レジスタ最適化

  yield() = taskYIELD() に修正済み
  (vTaskDelay(1) は clock gen ループで
   750ms+ の遅延を発生させるため不可)
end note

note right of gbschip
  I2C 排他制御:
  Wire に再帰 Mutex を実装済み。
  tw.h の lockBus/unlockBus が
  segment切替とアクセスをアトミックに保護。
  複数タスクからの同時アクセスに安全。
end note
}

@enduml

PlantUML version 1.2020.02(Sun Mar 01 19:22:07 JST 2020)
(GPL source distribution)
Java Runtime: OpenJDK Runtime Environment
JVM: OpenJDK 64-Bit Server VM
Java Version: 21.0.10+7-Debian-1deb13u1
Operating System: Linux
Default Encoding: UTF-8
Language: ja
Country: JP
--></g></svg>