<?xml version="1.0" encoding="UTF-8" standalone="no"?><svg xmlns="http://www.w3.org/2000/svg" xmlns:xlink="http://www.w3.org/1999/xlink" contentScriptType="application/ecmascript" contentStyleType="text/css" height="1266px" preserveAspectRatio="none" style="width:2655px;height:1266px;" version="1.1" viewBox="0 0 2655 1266" width="2655px" zoomAndPan="magnify"><defs/><g><text fill="#000000" font-family="Noto Sans CJK JP" font-size="18" lengthAdjust="spacingAndGlyphs" textLength="426" x="1120.5" y="20.8799">gbs-control-esp 全体フロー（esp-idf-ext ブランチ）</text><!--MD5=[cbc0be2e139dd15b0007deace4fc5f27]
cluster  --><polygon fill="#FFFFFF" points="22,50.0638,31,50.0638,38,76.3357,2633,76.3357,2633,1254.0638,22,1254.0638,22,50.0638" style="stroke: #FFFFFF; stroke-width: 1.5;"/><line style="stroke: #FFFFFF; stroke-width: 1.5;" x1="22" x2="38" y1="76.3357" y2="76.3357"/><text fill="#FFFFFF" font-family="Noto Sans CJK JP" font-size="14" font-weight="bold" lengthAdjust="spacingAndGlyphs" textLength="0" x="29" y="68.3038"/><!--MD5=[a4f7159b2453b397dcb9d5c4aba3b909]
cluster ESP-IDF Runtime--><polygon fill="#FFFFFF" points="1518,97.0638,1642,97.0638,1649,123.3357,1758,123.3357,1758,375.0638,1518,375.0638,1518,97.0638" style="stroke: #000000; stroke-width: 1.5;"/><line style="stroke: #000000; stroke-width: 1.5;" x1="1518" x2="1649" y1="123.3357" y2="123.3357"/><text fill="#000000" font-family="Noto Sans CJK JP" font-size="14" font-weight="bold" lengthAdjust="spacingAndGlyphs" textLength="118" x="1522" y="115.3038">ESP-IDF Runtime</text><!--MD5=[5fe1fd1079eca77adc238734e46a2ded]
cluster gbs_control component--><polygon fill="#FFFFFF" points="843,435.5638,1014,435.5638,1021,461.8357,1907,461.8357,1907,1013.0638,843,1013.0638,843,435.5638" style="stroke: #000000; stroke-width: 1.5;"/><line style="stroke: #000000; stroke-width: 1.5;" x1="843" x2="1021" y1="461.8357" y2="461.8357"/><text fill="#000000" font-family="Noto Sans CJK JP" font-size="14" font-weight="bold" lengthAdjust="spacingAndGlyphs" textLength="165" x="847" y="453.8038">gbs_control component</text><!--MD5=[53c58219f3dc5fdc2978b1bf2203c8e8]
cluster shell + ble_serial--><polygon fill="#FFFFFF" points="2028,435.5638,2146,435.5638,2153,461.8357,2323,461.8357,2323,1023.0638,2028,1023.0638,2028,435.5638" style="stroke: #000000; stroke-width: 1.5;"/><line style="stroke: #000000; stroke-width: 1.5;" x1="2028" x2="2153" y1="461.8357" y2="461.8357"/><text fill="#000000" font-family="Noto Sans CJK JP" font-size="14" font-weight="bold" lengthAdjust="spacingAndGlyphs" textLength="112" x="2032" y="453.8038">shell + ble_serial</text><!--MD5=[5512aa1a5911a4305167816cfa7e2b1a]
cluster Peripherals / Storage--><polygon fill="#FFFFFF" points="46,1094.0638,195,1094.0638,202,1120.3357,1407,1120.3357,1407,1230.0638,46,1230.0638,46,1094.0638" style="stroke: #000000; stroke-width: 1.5;"/><line style="stroke: #000000; stroke-width: 1.5;" x1="46" x2="202" y1="1120.3357" y2="1120.3357"/><text fill="#000000" font-family="Noto Sans CJK JP" font-size="14" font-weight="bold" lengthAdjust="spacingAndGlyphs" textLength="143" x="50" y="1112.3038">Peripherals / Storage</text><!--MD5=[8fc3522a43f8c7199df5e09e5bb0188e]
entity user--><ellipse cx="2015" cy="135.0638" fill="#FEFECE" rx="8" ry="8" style="stroke: #A80036; stroke-width: 1.5;"/><path d="M2015,143.0638 L2015,170.0638 M2002,151.0638 L2028,151.0638 M2015,170.0638 L2002,185.0638 M2015,170.0638 L2028,185.0638 " fill="none" style="stroke: #A80036; stroke-width: 1.5;"/><text fill="#000000" font-family="Noto Sans CJK JP" font-size="14" lengthAdjust="spacingAndGlyphs" textLength="30" x="2000" y="203.8038">User</text><!--MD5=[23555a4f9c8a267cdfd801ad53ceaf15]
entity browser--><ellipse cx="1966" cy="473.5638" fill="#FEFECE" rx="8" ry="8" style="stroke: #A80036; stroke-width: 1.5;"/><path d="M1966,481.5638 L1966,508.5638 M1953,489.5638 L1979,489.5638 M1966,508.5638 L1953,523.5638 M1966,508.5638 L1979,523.5638 " fill="none" style="stroke: #A80036; stroke-width: 1.5;"/><text fill="#000000" font-family="Noto Sans CJK JP" font-size="14" lengthAdjust="spacingAndGlyphs" textLength="85" x="1923.5" y="542.3038">Web Browser</text><!--MD5=[62548c4d3a18da1b5712df35db6e7fa9]
entity bleclient--><ellipse cx="2209" cy="297.0638" fill="#FEFECE" rx="8" ry="8" style="stroke: #A80036; stroke-width: 1.5;"/><path d="M2209,305.0638 L2209,332.0638 M2196,313.0638 L2222,313.0638 M2209,332.0638 L2196,347.0638 M2209,332.0638 L2222,347.0638 " fill="none" style="stroke: #A80036; stroke-width: 1.5;"/><text fill="#000000" font-family="Noto Sans CJK JP" font-size="14" lengthAdjust="spacingAndGlyphs" textLength="67" x="2175.5" y="365.8038">BLE Client</text><path d="M2339,645.0638 L2339,805.656 L2617,805.656 L2617,655.0638 L2607,645.0638 L2339,645.0638 " fill="#FBFB77" style="stroke: #A80036; stroke-width: 1.0;"/><path d="M2607,645.0638 L2607,655.0638 L2617,655.0638 L2607,645.0638 " fill="#FBFB77" style="stroke: #A80036; stroke-width: 1.0;"/><text fill="#000000" font-family="Noto Sans CJK JP" font-size="13" lengthAdjust="spacingAndGlyphs" textLength="147" x="2345" y="665.1439">実行ループでの主要順序:</text><text fill="#000000" font-family="Noto Sans CJK JP" font-size="13" lengthAdjust="spacingAndGlyphs" textLength="92" x="2345" y="683.9679">1) OLED/UI更新</text><text fill="#000000" font-family="Noto Sans CJK JP" font-size="13" lengthAdjust="spacingAndGlyphs" textLength="90" x="2345" y="702.7919">2) handleWiFi()</text><text fill="#000000" font-family="Noto Sans CJK JP" font-size="13" lengthAdjust="spacingAndGlyphs" textLength="123" x="2345" y="721.6159">3) コマンド受付/実行</text><text fill="#000000" font-family="Noto Sans CJK JP" font-size="13" lengthAdjust="spacingAndGlyphs" textLength="198" x="2345" y="740.4399">4) sync watcher + レジスタ最適化</text><text fill="#000000" font-family="Noto Sans CJK JP" font-size="13" lengthAdjust="spacingAndGlyphs" textLength="0" x="2348" y="759.2639"/><text fill="#000000" font-family="Noto Sans CJK JP" font-size="13" lengthAdjust="spacingAndGlyphs" textLength="119" x="2345" y="778.0879">yield() = taskYIELD()</text><text fill="#000000" font-family="Noto Sans CJK JP" font-size="13" lengthAdjust="spacingAndGlyphs" textLength="257" x="2345" y="796.912">(vTaskDelay(1) は GBS 同期破壊のため禁止)</text><path d="M2338.5,905.0638 L2338.5,962.5638 L2287.59,966.5638 L2338.5,970.5638 L2338.5,1028.0079 A0,0 0 0 0 2338.5,1028.0079 L2577.5,1028.0079 A0,0 0 0 0 2577.5,1028.0079 L2577.5,915.0638 L2567.5,905.0638 L2338.5,905.0638 A0,0 0 0 0 2338.5,905.0638 " fill="#FBFB77" style="stroke: #A80036; stroke-width: 1.0;"/><path d="M2567.5,905.0638 L2567.5,915.0638 L2577.5,915.0638 L2567.5,905.0638 " fill="#FBFB77" style="stroke: #A80036; stroke-width: 1.0;"/><text fill="#000000" font-family="Noto Sans CJK JP" font-size="13" lengthAdjust="spacingAndGlyphs" textLength="146" x="2344.5" y="925.1439">shell_i2c_bridge の設計:</text><text fill="#000000" font-family="Noto Sans CJK JP" font-size="13" lengthAdjust="spacingAndGlyphs" textLength="148" x="2344.5" y="943.9679">キュー/ポーリング不要。</text><text fill="#000000" font-family="Noto Sans CJK JP" font-size="13" lengthAdjust="spacingAndGlyphs" textLength="190" x="2344.5" y="962.7919">Shell タスクから直接呼び出し。</text><text fill="#000000" font-family="Noto Sans CJK JP" font-size="13" lengthAdjust="spacingAndGlyphs" textLength="218" x="2344.5" y="981.6159">Wire 再帰 Mutex が bus 排他を保証。</text><text fill="#000000" font-family="Noto Sans CJK JP" font-size="13" lengthAdjust="spacingAndGlyphs" textLength="169" x="2344.5" y="1000.4399">tw.h の curSeg キャッシュも</text><text fill="#000000" font-family="Noto Sans CJK JP" font-size="13" lengthAdjust="spacingAndGlyphs" textLength="143" x="2344.5" y="1019.2639">lockBus 区間内で一貫。</text><!--MD5=[bb6e7df1181211101974e0c98ca18f10]
entity app_main--><rect fill="#FEFECE" height="60.5438" style="stroke: #A80036; stroke-width: 1.5;" width="122" x="1608" y="136.0638"/><rect fill="#FEFECE" height="5" style="stroke: #A80036; stroke-width: 1.5;" width="10" x="1603" y="141.0638"/><rect fill="#FEFECE" height="5" style="stroke: #A80036; stroke-width: 1.5;" width="10" x="1603" y="186.6077"/><text fill="#000000" font-family="Noto Sans CJK JP" font-size="14" lengthAdjust="spacingAndGlyphs" textLength="102" x="1618" y="162.3038">main/main.cpp</text><text fill="#000000" font-family="Noto Sans CJK JP" font-size="14" lengthAdjust="spacingAndGlyphs" textLength="78" x="1618" y="182.5757">app_main()</text><!--MD5=[f63e3aa9e56232f4cd858b55a0096e29]
entity gbs_task--><rect fill="#FEFECE" height="60.5438" style="stroke: #A80036; stroke-width: 1.5;" width="207" x="1534.5" y="298.0638"/><rect fill="#FEFECE" height="5" style="stroke: #A80036; stroke-width: 1.5;" width="10" x="1529.5" y="303.0638"/><rect fill="#FEFECE" height="5" style="stroke: #A80036; stroke-width: 1.5;" width="10" x="1529.5" y="348.6077"/><text fill="#000000" font-family="Noto Sans CJK JP" font-size="14" lengthAdjust="spacingAndGlyphs" textLength="70" x="1544.5" y="324.3038">gbs_task()</text><text fill="#000000" font-family="Noto Sans CJK JP" font-size="14" lengthAdjust="spacingAndGlyphs" textLength="187" x="1544.5" y="344.5757">(FreeRTOS task, 16 KB stack)</text><!--MD5=[179fc153c76999af38ad3df6aab624a4]
entity gbs_setup--><rect fill="#FEFECE" height="60.5438" style="stroke: #A80036; stroke-width: 1.5;" width="238" x="859" y="474.5638"/><rect fill="#FEFECE" height="5" style="stroke: #A80036; stroke-width: 1.5;" width="10" x="854" y="479.5638"/><rect fill="#FEFECE" height="5" style="stroke: #A80036; stroke-width: 1.5;" width="10" x="854" y="525.1077"/><text fill="#000000" font-family="Noto Sans CJK JP" font-size="14" lengthAdjust="spacingAndGlyphs" textLength="80" x="869" y="500.8038">gbs_setup()</text><text fill="#000000" font-family="Noto Sans CJK JP" font-size="14" lengthAdjust="spacingAndGlyphs" textLength="218" x="869" y="521.0757">applyInputModeFromPinConfig()</text><!--MD5=[d1f4e74f5ca1717ca1ea858728cf5081]
entity gbs_loop--><rect fill="#FEFECE" height="40.2719" style="stroke: #A80036; stroke-width: 1.5;" width="91" x="1592.5" y="705.5638"/><rect fill="#FEFECE" height="5" style="stroke: #A80036; stroke-width: 1.5;" width="10" x="1587.5" y="710.5638"/><rect fill="#FEFECE" height="5" style="stroke: #A80036; stroke-width: 1.5;" width="10" x="1587.5" y="735.8357"/><text fill="#000000" font-family="Noto Sans CJK JP" font-size="14" lengthAdjust="spacingAndGlyphs" textLength="71" x="1602.5" y="731.8038">gbs_loop()</text><!--MD5=[08af8945a84acfe1eabc0963aa87c412]
entity web--><rect fill="#FEFECE" height="60.5438" style="stroke: #A80036; stroke-width: 1.5;" width="139" x="1184.5" y="695.0638"/><rect fill="#FEFECE" height="5" style="stroke: #A80036; stroke-width: 1.5;" width="10" x="1179.5" y="700.0638"/><rect fill="#FEFECE" height="5" style="stroke: #A80036; stroke-width: 1.5;" width="10" x="1179.5" y="745.6077"/><text fill="#000000" font-family="Noto Sans CJK JP" font-size="14" lengthAdjust="spacingAndGlyphs" textLength="109" x="1194.5" y="721.3038">startWebserver()</text><text fill="#000000" font-family="Noto Sans CJK JP" font-size="14" lengthAdjust="spacingAndGlyphs" textLength="119" x="1194.5" y="741.5757">HTTP / WebSocket</text><!--MD5=[40e3a1898867be20c4aacfe340ab9403]
entity wifi--><rect fill="#FEFECE" height="60.5438" style="stroke: #A80036; stroke-width: 1.5;" width="184" x="1459" y="936.0638"/><rect fill="#FEFECE" height="5" style="stroke: #A80036; stroke-width: 1.5;" width="10" x="1454" y="941.0638"/><rect fill="#FEFECE" height="5" style="stroke: #A80036; stroke-width: 1.5;" width="10" x="1454" y="986.6077"/><text fill="#000000" font-family="Noto Sans CJK JP" font-size="14" lengthAdjust="spacingAndGlyphs" textLength="85" x="1469" y="962.3038">handleWiFi()</text><text fill="#000000" font-family="Noto Sans CJK JP" font-size="14" lengthAdjust="spacingAndGlyphs" textLength="164" x="1469" y="982.5757">mDNS/DNS/OTA/WS ping</text><!--MD5=[8b44882b8e17850e01b1ad5c18eac763]
entity sync--><rect fill="#FEFECE" height="60.5438" style="stroke: #A80036; stroke-width: 1.5;" width="213" x="1678.5" y="936.0638"/><rect fill="#FEFECE" height="5" style="stroke: #A80036; stroke-width: 1.5;" width="10" x="1673.5" y="941.0638"/><rect fill="#FEFECE" height="5" style="stroke: #A80036; stroke-width: 1.5;" width="10" x="1673.5" y="986.6077"/><text fill="#000000" font-family="Noto Sans CJK JP" font-size="14" lengthAdjust="spacingAndGlyphs" textLength="118" x="1688.5" y="962.3038">runSyncWatcher()</text><text fill="#000000" font-family="Noto Sans CJK JP" font-size="14" lengthAdjust="spacingAndGlyphs" textLength="193" x="1688.5" y="982.5757">mode detect + applyPresets()</text><!--MD5=[f04bcface800b3498ac77214835b90cd]
entity cmd--><rect fill="#FEFECE" height="60.5438" style="stroke: #A80036; stroke-width: 1.5;" width="238" x="1186" y="936.0638"/><rect fill="#FEFECE" height="5" style="stroke: #A80036; stroke-width: 1.5;" width="10" x="1181" y="941.0638"/><rect fill="#FEFECE" height="5" style="stroke: #A80036; stroke-width: 1.5;" width="10" x="1181" y="986.6077"/><text fill="#000000" font-family="Noto Sans CJK JP" font-size="14" lengthAdjust="spacingAndGlyphs" textLength="181" x="1196" y="962.3038">Serial command dispatcher</text><text fill="#000000" font-family="Noto Sans CJK JP" font-size="14" lengthAdjust="spacingAndGlyphs" textLength="218" x="1196" y="982.5757">(serialCommand/userCommand)</text><!--MD5=[44a27a07239cbe4351b1c9f3aa4037df]
entity gbtask--><rect fill="#FEFECE" height="80.8157" style="stroke: #A80036; stroke-width: 1.5;" width="290" x="859" y="685.0638"/><rect fill="#FEFECE" height="5" style="stroke: #A80036; stroke-width: 1.5;" width="10" x="854" y="690.0638"/><rect fill="#FEFECE" height="5" style="stroke: #A80036; stroke-width: 1.5;" width="10" x="854" y="755.8796"/><text fill="#000000" font-family="Noto Sans CJK JP" font-size="14" lengthAdjust="spacingAndGlyphs" textLength="168" x="869" y="711.3038">geometry_buttons_task()</text><text fill="#000000" font-family="Noto Sans CJK JP" font-size="14" lengthAdjust="spacingAndGlyphs" textLength="149" x="869" y="731.5757">D-Pad ISR + モード切替</text><text fill="#000000" font-family="Noto Sans CJK JP" font-size="14" lengthAdjust="spacingAndGlyphs" textLength="270" x="869" y="751.8476">(PINCFG_USE_ROTARY_ENCODER=0のみ)</text><!--MD5=[90bd7bfaf115c178cab719a530508b90]
entity shell--><rect fill="#FEFECE" height="40.2719" style="stroke: #A80036; stroke-width: 1.5;" width="92" x="2044" y="485.0638"/><rect fill="#FEFECE" height="5" style="stroke: #A80036; stroke-width: 1.5;" width="10" x="2039" y="490.0638"/><rect fill="#FEFECE" height="5" style="stroke: #A80036; stroke-width: 1.5;" width="10" x="2039" y="515.3357"/><text fill="#000000" font-family="Noto Sans CJK JP" font-size="14" lengthAdjust="spacingAndGlyphs" textLength="72" x="2054" y="511.3038">shell_init()</text><!--MD5=[356b21d33ae4bbe89a0e9541f25b232f]
entity ble--><rect fill="#FEFECE" height="60.5438" style="stroke: #A80036; stroke-width: 1.5;" width="135" x="2171.5" y="474.5638"/><rect fill="#FEFECE" height="5" style="stroke: #A80036; stroke-width: 1.5;" width="10" x="2166.5" y="479.5638"/><rect fill="#FEFECE" height="5" style="stroke: #A80036; stroke-width: 1.5;" width="10" x="2166.5" y="525.1077"/><text fill="#000000" font-family="Noto Sans CJK JP" font-size="14" lengthAdjust="spacingAndGlyphs" textLength="105" x="2181.5" y="500.8038">ble_serial_init()</text><text fill="#000000" font-family="Noto Sans CJK JP" font-size="14" lengthAdjust="spacingAndGlyphs" textLength="115" x="2181.5" y="521.0757">NUS GATT service</text><!--MD5=[571539a19b26ae2a4a45371a0cee1373]
entity shelltask--><rect fill="#FEFECE" height="60.5438" style="stroke: #A80036; stroke-width: 1.5;" width="164" x="2108" y="695.0638"/><rect fill="#FEFECE" height="5" style="stroke: #A80036; stroke-width: 1.5;" width="10" x="2103" y="700.0638"/><rect fill="#FEFECE" height="5" style="stroke: #A80036; stroke-width: 1.5;" width="10" x="2103" y="745.6077"/><text fill="#000000" font-family="Noto Sans CJK JP" font-size="14" lengthAdjust="spacingAndGlyphs" textLength="144" x="2118" y="721.3038">shell_ble_cmd_task()</text><text fill="#000000" font-family="Noto Sans CJK JP" font-size="14" lengthAdjust="spacingAndGlyphs" textLength="136" x="2118" y="741.5757">process_command()</text><!--MD5=[a7320cd3549932729193ed1741cd59db]
entity bridge--><rect fill="#FEFECE" height="80.8157" style="stroke: #A80036; stroke-width: 1.5;" width="187" x="2100.5" y="926.0638"/><rect fill="#FEFECE" height="5" style="stroke: #A80036; stroke-width: 1.5;" width="10" x="2095.5" y="931.0638"/><rect fill="#FEFECE" height="5" style="stroke: #A80036; stroke-width: 1.5;" width="10" x="2095.5" y="996.8796"/><text fill="#000000" font-family="Noto Sans CJK JP" font-size="14" lengthAdjust="spacingAndGlyphs" textLength="110" x="2110.5" y="952.3038">shell_i2c_bridge</text><text fill="#000000" font-family="Noto Sans CJK JP" font-size="14" lengthAdjust="spacingAndGlyphs" textLength="167" x="2110.5" y="972.5757">shellI2cBridgeRead/Write</text><text fill="#000000" font-family="Noto Sans CJK JP" font-size="14" lengthAdjust="spacingAndGlyphs" textLength="162" x="2110.5" y="992.8476">→ GBS::read/write (tw.h)</text><!--MD5=[de382f5d3145b057fc4301680716463e]
entity gbschip--><rect fill="#FEFECE" height="60.5438" style="stroke: #A80036; stroke-width: 1.5;" width="212" x="1179" y="1143.0638"/><rect fill="#FEFECE" height="5" style="stroke: #A80036; stroke-width: 1.5;" width="10" x="1174" y="1148.0638"/><rect fill="#FEFECE" height="5" style="stroke: #A80036; stroke-width: 1.5;" width="10" x="1174" y="1193.6077"/><text fill="#000000" font-family="Noto Sans CJK JP" font-size="14" lengthAdjust="spacingAndGlyphs" textLength="93" x="1189" y="1169.3038">GBS8200 (I2C)</text><text fill="#000000" font-family="Noto Sans CJK JP" font-size="14" lengthAdjust="spacingAndGlyphs" textLength="192" x="1189" y="1189.5757">tw.h lockBus/GBS::read/write</text><!--MD5=[a69d669ad8f1a4b6f2e8a2047d54bfc3]
entity oled--><rect fill="#FEFECE" height="60.5438" style="stroke: #A80036; stroke-width: 1.5;" width="117" x="359.5" y="1143.0638"/><rect fill="#FEFECE" height="5" style="stroke: #A80036; stroke-width: 1.5;" width="10" x="354.5" y="1148.0638"/><rect fill="#FEFECE" height="5" style="stroke: #A80036; stroke-width: 1.5;" width="10" x="354.5" y="1193.6077"/><text fill="#000000" font-family="Noto Sans CJK JP" font-size="14" lengthAdjust="spacingAndGlyphs" textLength="36" x="369.5" y="1169.3038">OLED</text><text fill="#000000" font-family="Noto Sans CJK JP" font-size="14" lengthAdjust="spacingAndGlyphs" textLength="97" x="369.5" y="1189.5757">(SSD1306Wire)</text><!--MD5=[681adf0a5db5b47eb86014b0f2ebd1f6]
entity dpad--><rect fill="#FEFECE" height="80.8157" style="stroke: #A80036; stroke-width: 1.5;" width="262" x="688" y="1133.0638"/><rect fill="#FEFECE" height="5" style="stroke: #A80036; stroke-width: 1.5;" width="10" x="683" y="1138.0638"/><rect fill="#FEFECE" height="5" style="stroke: #A80036; stroke-width: 1.5;" width="10" x="683" y="1203.8796"/><text fill="#000000" font-family="Noto Sans CJK JP" font-size="14" lengthAdjust="spacingAndGlyphs" textLength="104" x="698" y="1159.3038">D-pad ボタン x4</text><text fill="#000000" font-family="Noto Sans CJK JP" font-size="14" lengthAdjust="spacingAndGlyphs" textLength="171" x="698" y="1179.5757">+ Mode ボタン + Mode LED</text><text fill="#000000" font-family="Noto Sans CJK JP" font-size="14" lengthAdjust="spacingAndGlyphs" textLength="242" x="698" y="1199.8476">(PINCFG_USE_ROTARY_ENCODER=0)</text><!--MD5=[0418aaadd4ad327489187e2a2eef2d9f]
entity re--><rect fill="#FEFECE" height="60.5438" style="stroke: #A80036; stroke-width: 1.5;" width="262" x="62" y="1143.0638"/><rect fill="#FEFECE" height="5" style="stroke: #A80036; stroke-width: 1.5;" width="10" x="57" y="1148.0638"/><rect fill="#FEFECE" height="5" style="stroke: #A80036; stroke-width: 1.5;" width="10" x="57" y="1193.6077"/><text fill="#000000" font-family="Noto Sans CJK JP" font-size="14" lengthAdjust="spacingAndGlyphs" textLength="99" x="72" y="1169.3038">Rotary Encoder</text><text fill="#000000" font-family="Noto Sans CJK JP" font-size="14" lengthAdjust="spacingAndGlyphs" textLength="242" x="72" y="1189.5757">(PINCFG_USE_ROTARY_ENCODER=1)</text><!--MD5=[ad4229f7d83ce039522f500d4650787f]
entity spiffs--><rect fill="#FEFECE" height="60.5438" style="stroke: #A80036; stroke-width: 1.5;" width="141" x="511.5" y="1143.0638"/><rect fill="#FEFECE" height="5" style="stroke: #A80036; stroke-width: 1.5;" width="10" x="506.5" y="1148.0638"/><rect fill="#FEFECE" height="5" style="stroke: #A80036; stroke-width: 1.5;" width="10" x="506.5" y="1193.6077"/><text fill="#000000" font-family="Noto Sans CJK JP" font-size="14" lengthAdjust="spacingAndGlyphs" textLength="45" x="521.5" y="1169.3038">SPIFFS</text><text fill="#000000" font-family="Noto Sans CJK JP" font-size="14" lengthAdjust="spacingAndGlyphs" textLength="121" x="521.5" y="1189.5757">preferences / slots</text><!--MD5=[162363f673e316b906fa47750e3cf30b]
entity wlan--><rect fill="#FEFECE" height="40.2719" style="stroke: #A80036; stroke-width: 1.5;" width="159" x="985.5" y="1153.5638"/><rect fill="#FEFECE" height="5" style="stroke: #A80036; stroke-width: 1.5;" width="10" x="980.5" y="1158.5638"/><rect fill="#FEFECE" height="5" style="stroke: #A80036; stroke-width: 1.5;" width="10" x="980.5" y="1183.8357"/><text fill="#000000" font-family="Noto Sans CJK JP" font-size="14" lengthAdjust="spacingAndGlyphs" textLength="139" x="995.5" y="1179.8038">Wi-Fi STA/AP + mDNS</text><!--MD5=[42320de4a0acaa05f7111737c8640c0a]
link user to browser--><path d="M2009.14,207.8238 C1999.94,270.9838 1982.18,392.9538 1972.57,458.9838 " fill="none" id="user-&gt;browser" style="stroke: #2D3748; stroke-width: 1.0;"/><polygon fill="#2D3748" points="1971.83,464.0238,1977.0761,455.6885,1972.5451,459.0752,1969.1583,454.5443,1971.83,464.0238" style="stroke: #2D3748; stroke-width: 1.0;"/><text fill="#000000" font-family="Noto Sans CJK JP" font-size="13" lengthAdjust="spacingAndGlyphs" textLength="85" x="1997" y="334.6439">HTTPアクセス</text><!--MD5=[a866ad135f1f56fc376fb1d3db47cbf4]
link user to bleclient--><path d="M2030.22,180.1138 C2060.34,204.9538 2128.3,261.0138 2171.22,296.4038 " fill="none" id="user-&gt;bleclient" style="stroke: #2D3748; stroke-width: 1.0;"/><polygon fill="#2D3748" points="2175.29,299.7638,2170.898,290.9485,2171.4349,296.5798,2165.8036,297.1167,2175.29,299.7638" style="stroke: #2D3748; stroke-width: 1.0;"/><text fill="#000000" font-family="Noto Sans CJK JP" font-size="13" lengthAdjust="spacingAndGlyphs" textLength="89" x="2124" y="253.6439">BLEシェル接続</text><!--MD5=[910a9c4fd331cbf66b5ed7b7bf970afd]
link app_main to shell--><path d="M1709.42,197.2938 C1722.6,208.6538 1736.31,222.5338 1746,237.5638 C1782.83,294.6738 1750.5,330.0338 1793,383.0638 C1813,408.0138 1824.34,410.4938 1855,419.5638 C1874.73,425.4038 2022.12,417.3838 2040,427.5638 C2060.04,438.9738 2073.44,462.0838 2081.28,479.9338 " fill="none" id="app_main-&gt;shell" style="stroke: #2D3748; stroke-width: 1.0;"/><polygon fill="#2D3748" points="2083.35,484.8138,2083.5072,474.9662,2081.3925,480.213,2076.1458,478.0983,2083.35,484.8138" style="stroke: #2D3748; stroke-width: 1.0;"/><text fill="#000000" font-family="Noto Sans CJK JP" font-size="13" lengthAdjust="spacingAndGlyphs" textLength="65" x="1794" y="334.6439">shell_init()</text><!--MD5=[4552bf73a278303852769c6c72819342]
link app_main to gbs_task--><path d="M1663.24,197.2838 C1658,224.3338 1650.26,264.2938 1644.73,292.8138 " fill="none" id="app_main-&gt;gbs_task" style="stroke: #2D3748; stroke-width: 1.0;"/><polygon fill="#2D3748" points="1643.73,298.0038,1649.3542,289.9187,1644.6721,293.0934,1641.4975,288.4114,1643.73,298.0038" style="stroke: #2D3748; stroke-width: 1.0;"/><text fill="#000000" font-family="Noto Sans CJK JP" font-size="13" lengthAdjust="spacingAndGlyphs" textLength="81" x="1656" y="253.6439">xTaskCreate()</text><!--MD5=[b1d8c7c0ae2f0e74afd89ac55a1f92ac]
link gbs_task to gbs_setup--><path d="M1534.15,357.0238 C1414.83,388.5738 1219.5,440.2138 1094.93,473.1438 " fill="none" id="gbs_task-&gt;gbs_setup" style="stroke: #2D3748; stroke-width: 1.0;"/><polygon fill="#2D3748" points="1089.79,474.5038,1099.5107,476.0873,1094.6261,473.2342,1097.4793,468.3496,1089.79,474.5038" style="stroke: #2D3748; stroke-width: 1.0;"/><text fill="#000000" font-family="Noto Sans CJK JP" font-size="13" lengthAdjust="spacingAndGlyphs" textLength="72" x="1368" y="415.6439">1回だけ実行</text><!--MD5=[93898f062db32f01ed6d94c1a0886cf7]
link gbs_setup to web--><path d="M1097.02,514.5938 C1141.88,523.7438 1189.79,541.6238 1222,576.0638 C1250.55,606.6038 1256.01,656.2638 1256.03,689.6538 " fill="none" id="gbs_setup-&gt;web" style="stroke: #2D3748; stroke-width: 1.0;"/><polygon fill="#2D3748" points="1255.99,694.8638,1260.0414,685.8868,1256.0186,689.8639,1252.0415,685.8411,1255.99,694.8638" style="stroke: #2D3748; stroke-width: 1.0;"/><text fill="#000000" font-family="Noto Sans CJK JP" font-size="13" lengthAdjust="spacingAndGlyphs" textLength="99" x="1245" y="601.6439">startWebserver()</text><!--MD5=[3b367aa0baafd334da15525a10d1aecc]
link gbs_setup to spiffs--><path d="M896.09,535.6638 C865.04,547.4638 829.58,561.6638 798,576.0638 C738.13,603.3638 719.66,605.6038 667,645.0638 C572.43,715.9338 560.66,747.8638 482,836.0638 C467.08,852.7938 468.87,862.9538 450,875.0638 C405.91,903.3538 367.99,863.5738 336,905.0638 C301.81,949.4138 312.34,980.3138 336,1031.0638 C349.73,1060.5138 361.93,1065.7638 392,1078.0638 C434.09,1095.2738 452.62,1067.2138 494,1086.0638 C519.37,1097.6238 541.69,1119.7938 557.51,1138.7838 " fill="none" id="gbs_setup-&gt;spiffs" style="stroke: #2D3748; stroke-width: 1.0;"/><polygon fill="#2D3748" points="560.98,1143.0338,558.392,1133.5311,557.82,1139.159,552.1922,1138.587,560.98,1143.0338" style="stroke: #2D3748; stroke-width: 1.0;"/><text fill="#000000" font-family="Noto Sans CJK JP" font-size="13" lengthAdjust="spacingAndGlyphs" textLength="88" x="483" y="852.1439">SPIFFS.begin()</text><text fill="#000000" font-family="Noto Sans CJK JP" font-size="13" lengthAdjust="spacingAndGlyphs" textLength="83" x="485.5" y="870.9679">設定読込/保存</text><!--MD5=[d846b57082dc95aaa6873b11e76546be]
link gbs_setup to gbschip--><path d="M923.09,535.5938 C821.19,594.5538 619.26,733.4438 689,875.0638 C698.66,894.6838 713.48,888.7138 728,905.0638 C771.27,953.8038 749.51,993.8338 803,1031.0638 C897.58,1096.9038 943.72,1063.1838 1058,1078.0638 C1103.97,1084.0538 1118.37,1070.3938 1162,1086.0638 C1194.52,1097.7438 1226.28,1120.4638 1249.39,1139.6938 " fill="none" id="gbs_setup-&gt;gbschip" style="stroke: #2D3748; stroke-width: 1.0;"/><polygon fill="#2D3748" points="1253.31,1142.9838,1249.0054,1134.1255,1249.4866,1139.7618,1243.8502,1140.243,1253.31,1142.9838" style="stroke: #2D3748; stroke-width: 1.0;"/><text fill="#000000" font-family="Noto Sans CJK JP" font-size="13" lengthAdjust="spacingAndGlyphs" textLength="180" x="690" y="861.6439">startWire() + 初期レジスタ設定</text><!--MD5=[bfdca8f153686d51290b0884c8f6b17e]
link gbs_setup to oled--><path d="M858.78,534.4238 C810.5,546.4538 754.37,561.1338 704,576.0638 C612.23,603.2638 577.79,589.3038 500,645.0638 C486.92,654.4338 337.44,866.2138 324,875.0638 C278.44,905.0638 238.52,862.0438 205,905.0638 C157.04,966.6238 168.01,1038.0338 235,1078.0638 C255.47,1090.2938 320.66,1075.4338 342,1086.0638 C365.12,1097.5838 384.27,1119.5138 397.56,1138.4138 " fill="none" id="gbs_setup-&gt;oled" style="stroke: #2D3748; stroke-width: 1.0;"/><polygon fill="#2D3748" points="400.47,1142.6438,398.6674,1132.9613,397.6374,1138.5236,392.0751,1137.4936,400.47,1142.6438" style="stroke: #2D3748; stroke-width: 1.0;"/><text fill="#000000" font-family="Noto Sans CJK JP" font-size="13" lengthAdjust="spacingAndGlyphs" textLength="77" x="355" y="861.6439">display.init()</text><!--MD5=[1c2d7cc7ad71cdb307c03349e61175f8]
link gbs_setup to gbtask--><path d="M972.83,535.5938 C970.9,548.0438 968.95,562.7138 968,576.0638 C966.77,593.3538 965.26,597.9438 968,615.0638 C971.52,637.0138 978.76,660.5338 985.83,680.1238 " fill="none" id="gbs_setup-&gt;gbtask" style="stroke: #2D3748; stroke-width: 1.0;"/><polygon fill="#2D3748" points="987.62,685.0238,988.2939,675.1981,985.9067,680.3265,980.7782,677.9393,987.62,685.0238" style="stroke: #2D3748; stroke-width: 1.0;"/><text fill="#000000" font-family="Noto Sans CJK JP" font-size="13" lengthAdjust="spacingAndGlyphs" textLength="149" x="1018.5" y="592.1439">geometry_buttons_init()</text><text fill="#000000" font-family="Noto Sans CJK JP" font-size="13" lengthAdjust="spacingAndGlyphs" textLength="248" x="969" y="610.9679">[PINCFG_USE_ROTARY_ENCODER=0のみ]</text><!--MD5=[d2285ecceb186b40eddb3f32714b2d4a]
link gbs_setup to re--><path d="M858.78,518.0238 C770.49,528.6138 647.85,546.9838 543,576.0638 C310.33,640.5938 182.95,624.8338 66,836.0638 C8.14,940.5638 107.67,1076.7938 161.68,1138.9738 " fill="none" id="gbs_setup-&gt;re" style="stroke: #2D3748; stroke-width: 1.0;"/><polygon fill="#2D3748" points="165.17,1142.9638,162.2361,1133.5621,161.8704,1139.2072,156.2254,1138.8415,165.17,1142.9638" style="stroke: #2D3748; stroke-width: 1.0;"/><text fill="#000000" font-family="Noto Sans CJK JP" font-size="13" lengthAdjust="spacingAndGlyphs" textLength="115" x="133.5" y="852.1439">encoder ISR attach</text><text fill="#000000" font-family="Noto Sans CJK JP" font-size="13" lengthAdjust="spacingAndGlyphs" textLength="248" x="67" y="870.9679">[PINCFG_USE_ROTARY_ENCODER=1のみ]</text><!--MD5=[c142ffc5a19c9d4599bc57f23f877cc4]
link gbs_task to gbs_loop--><path d="M1614.61,359.4038 C1601.64,377.8938 1586.79,402.7738 1580,427.5638 C1552.65,527.4638 1601.82,649.6238 1625.88,700.5238 " fill="none" id="gbs_task-&gt;gbs_loop" style="stroke: #2D3748; stroke-width: 1.0;"/><polygon fill="#2D3748" points="1628.12,705.2238,1627.862,695.3784,1625.9703,700.7095,1620.6392,698.8178,1628.12,705.2238" style="stroke: #2D3748; stroke-width: 1.0;"/><text fill="#000000" font-family="Noto Sans CJK JP" font-size="13" lengthAdjust="spacingAndGlyphs" textLength="66" x="1581" y="511.1439">while(true)</text><!--MD5=[6c5e4abe3adcf5726837e07dd96ac62a]
link gbs_loop to wifi--><path d="M1634.44,745.7638 C1628.78,774.4938 1616.55,830.1238 1599,875.0638 C1591.49,894.2938 1580.92,914.6938 1571.61,931.2438 " fill="none" id="gbs_loop-&gt;wifi" style="stroke: #2D3748; stroke-width: 1.0;"/><polygon fill="#2D3748" points="1569.02,935.8138,1576.9479,929.9701,1571.493,931.4682,1569.9949,926.0133,1569.02,935.8138" style="stroke: #2D3748; stroke-width: 1.0;"/><text fill="#000000" font-family="Noto Sans CJK JP" font-size="13" lengthAdjust="spacingAndGlyphs" textLength="83" x="1612" y="861.6439">handleWiFi(0)</text><!--MD5=[febe2fc4448d7ff57da2d182088fee31]
link gbs_loop to sync--><path d="M1649.78,745.7138 C1674.58,786.0438 1732.47,880.1538 1763.86,931.1838 " fill="none" id="gbs_loop-&gt;sync" style="stroke: #2D3748; stroke-width: 1.0;"/><polygon fill="#2D3748" points="1766.62,935.6838,1765.3335,925.9194,1764.0099,931.4192,1758.51,930.0956,1766.62,935.6838" style="stroke: #2D3748; stroke-width: 1.0;"/><text fill="#000000" font-family="Noto Sans CJK JP" font-size="13" lengthAdjust="spacingAndGlyphs" textLength="109" x="1729" y="861.6439">runSyncWatcher()</text><!--MD5=[eb1235d980bb96cf59b6faf36f4e2182]
link gbs_loop to cmd--><path d="M1592.43,733.3438 C1531.97,744.5738 1425.31,772.4538 1360,836.0638 C1333.62,861.7638 1319.23,902.1138 1311.87,930.9338 " fill="none" id="gbs_loop-&gt;cmd" style="stroke: #2D3748; stroke-width: 1.0;"/><polygon fill="#2D3748" points="1310.66,935.8238,1316.7019,928.0459,1311.8592,930.9698,1308.9354,926.1272,1310.66,935.8238" style="stroke: #2D3748; stroke-width: 1.0;"/><text fill="#000000" font-family="Noto Sans CJK JP" font-size="13" lengthAdjust="spacingAndGlyphs" textLength="229" x="1361" y="861.6439">serialCommand/userCommandを処理</text><!--MD5=[8139a071df623c2eb86a8d864bf4df55]
link gbs_loop to gbschip--><path d="M1592.31,741.7738 C1534.51,760.3138 1431.57,791.0438 1341,806.0638 C1292,814.1938 928.92,799.7838 895,836.0638 C837.31,897.7638 963.63,901.7938 967,905.0638 C1011.11,947.8638 979.56,988.6038 1024,1031.0638 C1071.74,1076.6738 1103.93,1054.6338 1162,1086.0638 C1190.53,1101.5038 1220.34,1122.3338 1243.47,1139.6838 " fill="none" id="gbs_loop-&gt;gbschip" style="stroke: #2D3748; stroke-width: 1.0;"/><polygon fill="#2D3748" points="1247.71,1142.8838,1242.91,1134.2838,1243.71,1139.8838,1238.11,1140.6838,1247.71,1142.8838" style="stroke: #2D3748; stroke-width: 1.0;"/><text fill="#000000" font-family="Noto Sans CJK JP" font-size="13" lengthAdjust="spacingAndGlyphs" textLength="143" x="1025" y="972.6439">画像処理パラメータ更新</text><!--MD5=[03935ef2adc817331da3cc0923730f46]
link browser to web--><path d="M1923.46,537.2538 C1918.07,540.4938 1912.51,543.5238 1907,546.0638 C1853.89,570.5038 1488.89,664.7738 1328.89,705.5738 " fill="none" id="browser-&gt;web" style="stroke: #2D3748; stroke-width: 1.0;"/><polygon fill="#2D3748" points="1323.75,706.8838,1333.4618,708.521,1328.5931,705.6409,1331.4732,700.7722,1323.75,706.8838" style="stroke: #2D3748; stroke-width: 1.0;"/><text fill="#000000" font-family="Noto Sans CJK JP" font-size="13" lengthAdjust="spacingAndGlyphs" textLength="136" x="1813" y="601.6439">/sc, /uc, /slot/*, /wifi/*</text><!--MD5=[5da2597235ccfed32f3763cc88af3dbc]
link web to cmd--><path d="M1227.31,756.1538 C1211.16,772.6438 1189.41,792.5138 1167,806.0638 C1133.43,826.3538 1106.53,803.9538 1084,836.0638 C1074.04,850.2538 1074.28,860.7138 1084,875.0638 C1104.13,904.7938 1125.75,891.5238 1159,905.0638 C1181.89,914.3838 1206.76,924.6438 1229.37,934.0138 " fill="none" id="web-&gt;cmd" style="stroke: #2D3748; stroke-width: 1.0;"/><polygon fill="#2D3748" points="1234.15,936.0038,1227.362,928.8678,1229.5296,934.0929,1224.3045,936.2605,1234.15,936.0038" style="stroke: #2D3748; stroke-width: 1.0;"/><text fill="#000000" font-family="Noto Sans CJK JP" font-size="13" lengthAdjust="spacingAndGlyphs" textLength="238" x="1085" y="861.6439">serialCommand / userCommand を設定</text><!--MD5=[bc41b0413d375acb868f48e7d92a71a8]
link web to spiffs--><path d="M1230.78,756.2938 C1214.93,774.1738 1192.28,795.4538 1167,806.0638 C1110.36,829.8338 659.37,793.5838 615,836.0638 C572.51,876.7438 576.33,1060.0138 579.98,1137.6438 " fill="none" id="web-&gt;spiffs" style="stroke: #2D3748; stroke-width: 1.0;"/><polygon fill="#2D3748" points="580.25,1143.0438,583.8074,1133.8599,580.0067,1138.0498,575.8169,1134.2491,580.25,1143.0438" style="stroke: #2D3748; stroke-width: 1.0;"/><text fill="#000000" font-family="Noto Sans CJK JP" font-size="13" lengthAdjust="spacingAndGlyphs" textLength="145" x="588" y="972.6439">プリセットslot保存/読込</text><!--MD5=[37aeff31684b6e527e11237cfddd2711]
link web to wlan--><path d="M1230.27,756.3438 C1214.39,774.0038 1191.87,795.0338 1167,806.0638 C1102.52,834.6638 904.62,790.2338 851,836.0638 C837.4,847.6938 846.05,857.8938 841,875.0638 C821.37,941.7138 792.09,973.5138 831,1031.0638 C867.75,1085.4138 912.24,1051.4938 968,1086.0638 C996.77,1103.8938 1025.12,1130.5338 1043.68,1149.5238 " fill="none" id="web-&gt;wlan" style="stroke: #2D3748; stroke-width: 1.0;"/><polygon fill="#2D3748" points="1047.25,1153.2238,1043.8638,1143.9754,1043.7722,1149.6315,1038.1161,1149.5399,1047.25,1153.2238" style="stroke: #2D3748; stroke-width: 1.0;"/><text fill="#000000" font-family="Noto Sans CJK JP" font-size="13" lengthAdjust="spacingAndGlyphs" textLength="130" x="832" y="972.6439">接続制御, AP/STA切替</text><!--MD5=[4b2102890bfada3f82a7923ca87be47a]
link bleclient to ble--><path d="M2215.88,369.5938 C2221.06,399.7238 2228.09,440.5838 2233.03,469.3338 " fill="none" id="bleclient-&gt;ble" style="stroke: #2D3748; stroke-width: 1.0;"/><polygon fill="#2D3748" points="2233.93,474.5638,2236.3557,465.0184,2233.0872,469.6354,2228.4701,466.3669,2233.93,474.5638" style="stroke: #2D3748; stroke-width: 1.0;"/><text fill="#000000" font-family="Noto Sans CJK JP" font-size="13" lengthAdjust="spacingAndGlyphs" textLength="78" x="2225" y="415.6439">NUS RX write</text><!--MD5=[76aad970ad2bc30d44d7a202487dbd82]
link ble to shelltask--><path d="M2232.29,535.9838 C2223.27,576.1938 2207.28,647.5038 2197.76,689.9738 " fill="none" id="ble-&gt;shelltask" style="stroke: #2D3748; stroke-width: 1.0;"/><polygon fill="#2D3748" points="2196.63,695.0038,2202.492,687.0895,2197.7177,690.1236,2194.6836,685.3492,2196.63,695.0038" style="stroke: #2D3748; stroke-width: 1.0;"/><text fill="#000000" font-family="Noto Sans CJK JP" font-size="13" lengthAdjust="spacingAndGlyphs" textLength="115" x="2224" y="592.1439">shell_ble_line_cb()</text><text fill="#000000" font-family="Noto Sans CJK JP" font-size="13" lengthAdjust="spacingAndGlyphs" textLength="64" x="2249.5" y="610.9679">queue投入</text><!--MD5=[4bac04c64d0fee693aed2baf43c908b9]
link shelltask to cmd--><path d="M2123.39,756.0838 C2027.73,798.3738 1861.3,871.5438 1847,875.0638 C1671.73,918.1838 1617.11,861.3038 1442,905.0638 C1415.75,911.6238 1388.2,922.8438 1364.75,933.8638 " fill="none" id="shelltask-&gt;cmd" style="stroke: #2D3748; stroke-width: 1.0;"/><polygon fill="#2D3748" points="1360.12,936.0538,1369.9658,935.808,1364.6369,933.9097,1366.5352,928.5809,1360.12,936.0538" style="stroke: #2D3748; stroke-width: 1.0;"/><text fill="#000000" font-family="Noto Sans CJK JP" font-size="13" lengthAdjust="spacingAndGlyphs" textLength="238" x="1939" y="861.6439">serialCommand / userCommand を設定</text><!--MD5=[2c51766dcb6965a1e9eb1b7ee630ef32]
link shelltask to bridge--><path d="M2190.5,756.3538 C2191.19,797.6438 2192.44,872.6038 2193.25,920.6938 " fill="none" id="shelltask-&gt;bridge" style="stroke: #2D3748; stroke-width: 1.0;"/><polygon fill="#2D3748" points="2193.34,925.8438,2197.1851,916.7766,2193.2543,920.8446,2189.1863,916.9137,2193.34,925.8438" style="stroke: #2D3748; stroke-width: 1.0;"/><text fill="#000000" font-family="Noto Sans CJK JP" font-size="13" lengthAdjust="spacingAndGlyphs" textLength="111" x="2193" y="861.6439">dbg reg read/write</text><!--MD5=[e72bb3f99e5c87464f838d4fb2e4617d]
link bridge to gbschip--><path d="M2100.35,992.7738 C2012.29,1016.1238 1876.62,1051.2038 1758,1078.0638 C1634.84,1105.9538 1492.64,1133.7738 1396.58,1151.9338 " fill="none" id="bridge-&gt;gbschip" style="stroke: #2D3748; stroke-width: 1.0;"/><polygon fill="#2D3748" points="1391.47,1152.9038,1401.0562,1155.1633,1396.3831,1151.9755,1399.5708,1147.3024,1391.47,1152.9038" style="stroke: #2D3748; stroke-width: 1.0;"/><text fill="#000000" font-family="Noto Sans CJK JP" font-size="13" lengthAdjust="spacingAndGlyphs" textLength="249" x="1842" y="1074.1439">lockBus → GBS::read/write → unlockBus</text><!--MD5=[aa1a218dc72526480e553a8b5eda423d]
link dpad to gbtask--><path d="M761.49,1132.9438 C734.74,1116.1738 701.84,1097.8438 670,1086.0638 C543.68,1039.3438 458.16,1134.5838 372,1031.0638 C336.18,988.0238 335.34,947.3938 372,905.0638 C433.15,834.4638 510.49,937.4538 580,875.0638 C593.32,863.1138 577.39,848.7638 590,836.0638 C627.27,798.5038 751.1,768.8638 853.7,749.9438 " fill="none" id="dpad-&gt;gbtask" style="stroke: #2D3748; stroke-width: 1.0;"/><polygon fill="#2D3748" points="858.87,748.9938,849.2967,746.6806,853.9518,749.8946,850.7378,754.5497,858.87,748.9938" style="stroke: #2D3748; stroke-width: 1.0;"/><text fill="#000000" font-family="Noto Sans CJK JP" font-size="13" lengthAdjust="spacingAndGlyphs" textLength="133" x="373" y="972.6439">GPIO ISR (active LOW)</text><!--MD5=[20a6017515fb7e281cf15e063677b1e7]
link gbtask to cmd--><path d="M953.76,766.0838 C919.65,797.6138 885.63,841.8538 915,875.0638 C951.2,915.9838 1106.17,891.1438 1159,905.0638 C1185.99,912.1738 1214.58,923.1838 1239.24,933.8738 " fill="none" id="gbtask-&gt;cmd" style="stroke: #2D3748; stroke-width: 1.0;"/><polygon fill="#2D3748" points="1244.12,936.0038,1237.4969,928.7145,1239.5445,933.9877,1234.2712,936.0353,1244.12,936.0038" style="stroke: #2D3748; stroke-width: 1.0;"/><text fill="#000000" font-family="Noto Sans CJK JP" font-size="13" lengthAdjust="spacingAndGlyphs" textLength="151" x="916" y="861.6439">move/scale コマンド発行</text><!--MD5=[7c56551962ca4e13adc5263378630a08]
link gbtask to oled--><path d="M858.89,738.0438 C715.78,752.3338 510.37,781.7538 453,836.0638 C440,848.3638 456.27,863.0638 443,875.0638 C376.98,934.7538 303.03,837.5738 245,905.0638 C194.53,963.7538 202.73,1032.0938 265,1078.0638 C292.68,1098.5038 311.43,1070.2738 342,1086.0638 C364.95,1097.9138 384.1,1119.8438 397.43,1138.6538 " fill="none" id="gbtask-&gt;oled" style="stroke: #2D3748; stroke-width: 1.0;"/><polygon fill="#2D3748" points="400.36,1142.8638,398.5189,1133.1886,397.511,1138.7549,391.9446,1137.747,400.36,1142.8638" style="stroke: #2D3748; stroke-width: 1.0;"/><text fill="#000000" font-family="Noto Sans CJK JP" font-size="13" lengthAdjust="spacingAndGlyphs" textLength="89" x="246" y="972.6439">モードLED更新</text><!--MD5=[694e8e752115001b990977d89456e89b]
link wifi to wlan--><path d="M1508.8,997.1438 C1489.3,1009.4738 1465.33,1022.8138 1442,1031.0638 C1322.43,1073.3438 1273.56,1025.7538 1162,1086.0638 C1131.67,1102.4638 1102.99,1130.1038 1084.79,1149.7238 " fill="none" id="wifi-&gt;wlan" style="stroke: #2D3748; stroke-width: 1.0;"/><polygon fill="#2D3748" points="1081.29,1153.5338,1090.3243,1149.6119,1084.6725,1149.8516,1084.4327,1144.1999,1081.29,1153.5338" style="stroke: #2D3748; stroke-width: 1.0;"/><text fill="#000000" font-family="Noto Sans CJK JP" font-size="13" lengthAdjust="spacingAndGlyphs" textLength="151" x="1234" y="1074.1439">MDNS.update(), DNS処理</text><!--MD5=[ba63a6e49a7e376fbd1f8e539012f299]
link sync to gbschip--><path d="M1730.4,997.2138 C1709.02,1008.3738 1684.11,1020.8338 1661,1031.0638 C1565.82,1073.1838 1453.85,1114.2738 1377,1141.2338 " fill="none" id="sync-&gt;gbschip" style="stroke: #2D3748; stroke-width: 1.0;"/><polygon fill="#2D3748" points="1371.99,1142.9838,1381.805,1143.7994,1376.7115,1141.3385,1379.1724,1136.2449,1371.99,1142.9838" style="stroke: #2D3748; stroke-width: 1.0;"/><text fill="#000000" font-family="Noto Sans CJK JP" font-size="13" lengthAdjust="spacingAndGlyphs" textLength="158" x="1591" y="1074.1439">モード判定, applyPresets()</text><!--MD5=[7c8e3b520728afb15358564fd205afe2]
link gbs_loop to GMN60--><path d="M1674.67,705.5438 C1776.81,652.4838 2072.34,517.5438 2305.5,595.5638 C2336.97,606.0938 2367.3,624.8838 2393.51,644.9538 " fill="none" id="gbs_loop-GMN60" style="stroke: #2D3748; stroke-width: 1.0; stroke-dasharray: 7.0,7.0;"/><!--MD5=[728de4df039a51d816c6e37908a173f1]
@startuml
skinparam backgroundColor white
skinparam shadowing false
skinparam defaultFontName Noto Sans CJK JP
skinparam componentStyle rectangle
skinparam ArrowColor #2d3748
skinparam packageStyle rectangle
hide stereotype
skinparam package<<canvas>> {
  BackgroundColor #FFFFFF
  BorderColor #FFFFFF
  FontColor #FFFFFF
}

title gbs-control-esp 全体フロー（esp-idf-ext ブランチ）

package " " <<canvas>> {
actor "User" as user
actor "Web Browser" as browser
actor "BLE Client" as bleclient

package "ESP-IDF Runtime" {
  component "main/main.cpp\napp_main()" as app_main
  component "gbs_task()\n(FreeRTOS task, 16 KB stack)" as gbs_task
}

package "gbs_control component" {
  component "gbs_setup()\napplyInputModeFromPinConfig()" as gbs_setup
  component "gbs_loop()" as gbs_loop
  component "startWebserver()\nHTTP / WebSocket" as web
  component "handleWiFi()\nmDNS/DNS/OTA/WS ping" as wifi
  component "runSyncWatcher()\nmode detect + applyPresets()" as sync
  component "Serial command dispatcher\n(serialCommand/userCommand)" as cmd
  component "geometry_buttons_task()\nD-Pad ISR + モード切替\n(PINCFG_USE_ROTARY_ENCODER=0のみ)" as gbtask
}

package "shell + ble_serial" {
  component "shell_init()" as shell
  component "ble_serial_init()\nNUS GATT service" as ble
  component "shell_ble_cmd_task()\nprocess_command()" as shelltask
  component "shell_i2c_bridge\nshellI2cBridgeRead/Write\n→ GBS::read/write (tw.h)" as bridge
}

package "Peripherals / Storage" {
  component "GBS8200 (I2C)\ntw.h lockBus/GBS::read/write" as gbschip
  component "OLED\n(SSD1306Wire)" as oled
  component "D-pad ボタン x4\n+ Mode ボタン + Mode LED\n(PINCFG_USE_ROTARY_ENCODER=0)" as dpad
  component "Rotary Encoder\n(PINCFG_USE_ROTARY_ENCODER=1)" as re
  component "SPIFFS\npreferences / slots" as spiffs
  component "Wi-Fi STA/AP + mDNS" as wlan
}

user - -> browser : HTTPアクセス
user - -> bleclient : BLEシェル接続

app_main - -> shell : shell_init()
app_main - -> gbs_task : xTaskCreate()

gbs_task - -> gbs_setup : 1回だけ実行

gbs_setup - -> web : startWebserver()
gbs_setup - -> spiffs : SPIFFS.begin()\n設定読込/保存
gbs_setup - -> gbschip : startWire() + 初期レジスタ設定
gbs_setup - -> oled : display.init()
gbs_setup - -> gbtask : geometry_buttons_init()\n[PINCFG_USE_ROTARY_ENCODER=0のみ]
gbs_setup - -> re : encoder ISR attach\n[PINCFG_USE_ROTARY_ENCODER=1のみ]

gbs_task - -> gbs_loop : while(true)
gbs_loop - -> wifi : handleWiFi(0)
gbs_loop - -> sync : runSyncWatcher()
gbs_loop - -> cmd : serialCommand/userCommandを処理
gbs_loop - -> gbschip : 画像処理パラメータ更新

browser - -> web : /sc, /uc, /slot/*, /wifi/*
web - -> cmd : serialCommand / userCommand を設定
web - -> spiffs : プリセットslot保存/読込
web - -> wlan : 接続制御, AP/STA切替

bleclient - -> ble : NUS RX write
ble - -> shelltask : shell_ble_line_cb()\nqueue投入
shelltask - -> cmd : serialCommand / userCommand を設定
shelltask - -> bridge : dbg reg read/write
bridge - -> gbschip : lockBus → GBS::read/write → unlockBus

dpad - -> gbtask : GPIO ISR (active LOW)
gbtask - -> cmd : move/scale コマンド発行
gbtask - -> oled : モードLED更新

wifi - -> wlan : MDNS.update(), DNS処理
sync - -> gbschip : モード判定, applyPresets()

note right of gbs_loop
  実行ループでの主要順序:
  1) OLED/UI更新
  2) handleWiFi()
  3) コマンド受付/実行
  4) sync watcher + レジスタ最適化

  yield() = taskYIELD()
  (vTaskDelay(1) は GBS 同期破壊のため禁止)
end note

note right of bridge
  shell_i2c_bridge の設計:
  キュー/ポーリング不要。
  Shell タスクから直接呼び出し。
  Wire 再帰 Mutex が bus 排他を保証。
  tw.h の curSeg キャッシュも
  lockBus 区間内で一貫。
end note
}

@enduml

PlantUML version 1.2020.02(Sun Mar 01 19:22:07 JST 2020)
(GPL source distribution)
Java Runtime: OpenJDK Runtime Environment
JVM: OpenJDK 64-Bit Server VM
Java Version: 21.0.10+7-Debian-1deb13u1
Operating System: Linux
Default Encoding: UTF-8
Language: ja
Country: JP
--></g></svg>